<svg width="411" height="379" viewBox="0 0 411 379" fill="none" xmlns="http://www.w3.org/2000/svg">
<path d="M376.824 349.029H411.001V349.288H376.824V349.029Z" fill="#EBEBEB"/>
<path d="M279.508 351.816H288.439V352.075H279.508V351.816Z" fill="#EBEBEB"/>
<path d="M355.965 339.436H375.79V339.694H355.965V339.436Z" fill="#EBEBEB"/>
<path d="M0.617188 341.188H45.2227V341.446H0.617188V341.188Z" fill="#EBEBEB"/>
<path d="M54.4141 341.188H60.9707V341.446H54.4141V341.188Z" fill="#EBEBEB"/>
<path d="M82.1914 345.521H178.94V345.78H82.1914V345.521Z" fill="#EBEBEB"/>
<path d="M406.354 58.8066V299.712H156.223V58.8066H406.354Z" fill="#E0E0E0"/>
<path d="M406.82 63.1934V295.587H160.715V63.1934H406.82Z" fill="#F5F5F5"/>
<path d="M162.057 239.255V169.356H169.285V160.122L185.65 152.488V143.048H188.387V169.356H191.123V239.255H194.737V202.939H202.945V183.903H205.63V239.255H211.98V218.363H216.523V212.946H226.539V193.859H232.011V181.169H238.361V162.083H241.098V181.169H247.448V193.859H252.868V212.946H262.884V218.363H267.427V239.255H272.848V212.946H282.864V154.861H285.6V148.464H307.386V154.861H311.929V196.594H330.102V201.133H336.452V203.867H330.102V220.168H349.152V165.745H352.818V154.861H361.904V113.076H364.64V154.861H370.99V165.745H406.355V295.535H160.25V239.255H162.057Z" fill="#E6E6E6"/>
<path d="M387.46 171.161H384.879V168.582H387.46V171.161Z" fill="#F0F0F0"/>
<path d="M387.46 175.443H384.879V172.863H387.46V175.443Z" fill="#F0F0F0"/>
<path d="M387.46 192.724H384.879V190.145H387.46V192.724Z" fill="#F0F0F0"/>
<path d="M387.46 197.005H384.879V194.426H387.46V197.005Z" fill="#F0F0F0"/>
<path d="M387.46 201.339H384.879V198.76H387.46V201.339Z" fill="#F0F0F0"/>
<path d="M387.46 214.235H384.879V211.707H387.46V214.235Z" fill="#F0F0F0"/>
<path d="M387.46 218.57H384.879V215.99H387.46V218.57Z" fill="#F0F0F0"/>
<path d="M383.378 188.392H380.797V185.812H383.378V188.392Z" fill="#F0F0F0"/>
<path d="M383.378 192.724H380.797V190.145H383.378V192.724Z" fill="#F0F0F0"/>
<path d="M383.378 197.005H380.797V194.426H383.378V197.005Z" fill="#F0F0F0"/>
<path d="M383.378 201.339H380.797V198.76H383.378V201.339Z" fill="#F0F0F0"/>
<path d="M383.378 205.62H380.797V203.041H383.378V205.62Z" fill="#F0F0F0"/>
<path d="M383.378 214.235H380.797V211.707H383.378V214.235Z" fill="#F0F0F0"/>
<path d="M383.378 218.57H380.797V215.99H383.378V218.57Z" fill="#F0F0F0"/>
<path d="M379.3 171.161H376.719V168.582H379.3V171.161Z" fill="#F0F0F0"/>
<path d="M379.3 175.443H376.719V172.863H379.3V175.443Z" fill="#F0F0F0"/>
<path d="M379.3 179.777H376.719V177.197H379.3V179.777Z" fill="#F0F0F0"/>
<path d="M379.3 184.057H376.719V181.529H379.3V184.057Z" fill="#F0F0F0"/>
<path d="M379.3 188.392H376.719V185.812H379.3V188.392Z" fill="#F0F0F0"/>
<path d="M379.3 192.724H376.719V190.145H379.3V192.724Z" fill="#F0F0F0"/>
<path d="M379.3 197.005H376.719V194.426H379.3V197.005Z" fill="#F0F0F0"/>
<path d="M379.3 201.339H376.719V198.76H379.3V201.339Z" fill="#F0F0F0"/>
<path d="M379.3 205.62H376.719V203.041H379.3V205.62Z" fill="#F0F0F0"/>
<path d="M379.3 209.954H376.719V207.375H379.3V209.954Z" fill="#F0F0F0"/>
<path d="M379.3 218.57H376.719V215.99H379.3V218.57Z" fill="#F0F0F0"/>
<path d="M375.17 171.161H372.641V168.582H375.17V171.161Z" fill="#F0F0F0"/>
<path d="M375.17 175.443H372.641V172.863H375.17V175.443Z" fill="#F0F0F0"/>
<path d="M375.17 179.777H372.641V177.197H375.17V179.777Z" fill="#F0F0F0"/>
<path d="M375.17 184.057H372.641V181.529H375.17V184.057Z" fill="#F0F0F0"/>
<path d="M375.17 188.392H372.641V185.812H375.17V188.392Z" fill="#F0F0F0"/>
<path d="M375.17 192.724H372.641V190.145H375.17V192.724Z" fill="#F0F0F0"/>
<path d="M375.17 197.005H372.641V194.426H375.17V197.005Z" fill="#F0F0F0"/>
<path d="M375.17 235.799H372.641V233.271H375.17V235.799Z" fill="#F0F0F0"/>
<path d="M371.093 171.161H368.512V168.582H371.093V171.161Z" fill="#F0F0F0"/>
<path d="M371.093 175.443H368.512V172.863H371.093V175.443Z" fill="#F0F0F0"/>
<path d="M371.093 179.777H368.512V177.197H371.093V179.777Z" fill="#F0F0F0"/>
<path d="M371.093 184.057H368.512V181.529H371.093V184.057Z" fill="#F0F0F0"/>
<path d="M371.093 188.392H368.512V185.812H371.093V188.392Z" fill="#F0F0F0"/>
<path d="M371.093 192.724H368.512V190.145H371.093V192.724Z" fill="#F0F0F0"/>
<path d="M371.093 197.005H368.512V194.426H371.093V197.005Z" fill="#F0F0F0"/>
<path d="M371.093 201.339H368.512V198.76H371.093V201.339Z" fill="#F0F0F0"/>
<path d="M371.093 227.183H368.512V224.604H371.093V227.183Z" fill="#F0F0F0"/>
<path d="M371.093 231.517H368.512V228.938H371.093V231.517Z" fill="#F0F0F0"/>
<path d="M371.093 235.799H368.512V233.271H371.093V235.799Z" fill="#F0F0F0"/>
<path d="M371.093 240.132H368.512V237.553H371.093V240.132Z" fill="#F0F0F0"/>
<path d="M371.093 257.361H368.512V254.781H371.093V257.361Z" fill="#F0F0F0"/>
<path d="M367.015 171.161H364.434V168.582H367.015V171.161Z" fill="#F0F0F0"/>
<path d="M367.015 175.443H364.434V172.863H367.015V175.443Z" fill="#F0F0F0"/>
<path d="M367.015 179.777H364.434V177.197H367.015V179.777Z" fill="#F0F0F0"/>
<path d="M367.015 184.057H364.434V181.529H367.015V184.057Z" fill="#F0F0F0"/>
<path d="M367.015 188.392H364.434V185.812H367.015V188.392Z" fill="#F0F0F0"/>
<path d="M367.015 192.724H364.434V190.145H367.015V192.724Z" fill="#F0F0F0"/>
<path d="M367.015 197.005H364.434V194.426H367.015V197.005Z" fill="#F0F0F0"/>
<path d="M367.015 201.339H364.434V198.76H367.015V201.339Z" fill="#F0F0F0"/>
<path d="M367.015 205.62H364.434V203.041H367.015V205.62Z" fill="#F0F0F0"/>
<path d="M367.015 209.954H364.434V207.375H367.015V209.954Z" fill="#F0F0F0"/>
<path d="M367.015 222.902H364.434V220.322H367.015V222.902Z" fill="#F0F0F0"/>
<path d="M367.015 227.183H364.434V224.604H367.015V227.183Z" fill="#F0F0F0"/>
<path d="M367.015 231.517H364.434V228.938H367.015V231.517Z" fill="#F0F0F0"/>
<path d="M367.015 235.799H364.434V233.271H367.015V235.799Z" fill="#F0F0F0"/>
<path d="M367.015 240.132H364.434V237.553H367.015V240.132Z" fill="#F0F0F0"/>
<path d="M367.015 257.361H364.434V254.781H367.015V257.361Z" fill="#F0F0F0"/>
<path d="M362.937 171.161H360.355V168.582H362.937V171.161Z" fill="#F0F0F0"/>
<path d="M362.937 175.443H360.355V172.863H362.937V175.443Z" fill="#F0F0F0"/>
<path d="M362.937 179.777H360.355V177.197H362.937V179.777Z" fill="#F0F0F0"/>
<path d="M362.937 184.057H360.355V181.529H362.937V184.057Z" fill="#F0F0F0"/>
<path d="M362.937 188.392H360.355V185.812H362.937V188.392Z" fill="#F0F0F0"/>
<path d="M362.937 192.724H360.355V190.145H362.937V192.724Z" fill="#F0F0F0"/>
<path d="M362.937 197.005H360.355V194.426H362.937V197.005Z" fill="#F0F0F0"/>
<path d="M362.937 201.339H360.355V198.76H362.937V201.339Z" fill="#F0F0F0"/>
<path d="M362.937 205.62H360.355V203.041H362.937V205.62Z" fill="#F0F0F0"/>
<path d="M362.937 209.954H360.355V207.375H362.937V209.954Z" fill="#F0F0F0"/>
<path d="M362.937 214.235H360.355V211.707H362.937V214.235Z" fill="#F0F0F0"/>
<path d="M362.937 218.57H360.355V215.99H362.937V218.57Z" fill="#F0F0F0"/>
<path d="M362.937 222.902H360.355V220.322H362.937V222.902Z" fill="#F0F0F0"/>
<path d="M362.937 227.183H360.355V224.604H362.937V227.183Z" fill="#F0F0F0"/>
<path d="M362.937 231.517H360.355V228.938H362.937V231.517Z" fill="#F0F0F0"/>
<path d="M362.937 235.799H360.355V233.271H362.937V235.799Z" fill="#F0F0F0"/>
<path d="M362.937 240.132H360.355V237.553H362.937V240.132Z" fill="#F0F0F0"/>
<path d="M362.937 244.464H360.355V241.885H362.937V244.464Z" fill="#F0F0F0"/>
<path d="M358.859 171.161H356.277V168.582H358.859V171.161Z" fill="#F0F0F0"/>
<path d="M358.859 175.443H356.277V172.863H358.859V175.443Z" fill="#F0F0F0"/>
<path d="M358.859 179.777H356.277V177.197H358.859V179.777Z" fill="#F0F0F0"/>
<path d="M358.859 184.057H356.277V181.529H358.859V184.057Z" fill="#F0F0F0"/>
<path d="M358.859 188.392H356.277V185.812H358.859V188.392Z" fill="#F0F0F0"/>
<path d="M358.859 192.724H356.277V190.145H358.859V192.724Z" fill="#F0F0F0"/>
<path d="M358.859 197.005H356.277V194.426H358.859V197.005Z" fill="#F0F0F0"/>
<path d="M358.859 201.339H356.277V198.76H358.859V201.339Z" fill="#F0F0F0"/>
<path d="M358.859 205.62H356.277V203.041H358.859V205.62Z" fill="#F0F0F0"/>
<path d="M358.859 209.954H356.277V207.375H358.859V209.954Z" fill="#F0F0F0"/>
<path d="M358.859 222.902H356.277V220.322H358.859V222.902Z" fill="#F0F0F0"/>
<path d="M358.859 227.183H356.277V224.604H358.859V227.183Z" fill="#F0F0F0"/>
<path d="M358.859 231.517H356.277V228.938H358.859V231.517Z" fill="#F0F0F0"/>
<path d="M358.859 235.799H356.277V233.271H358.859V235.799Z" fill="#F0F0F0"/>
<path d="M354.777 171.161H352.195V168.582H354.777V171.161Z" fill="#F0F0F0"/>
<path d="M354.777 175.443H352.195V172.863H354.777V175.443Z" fill="#F0F0F0"/>
<path d="M354.777 179.777H352.195V177.197H354.777V179.777Z" fill="#F0F0F0"/>
<path d="M354.777 184.057H352.195V181.529H354.777V184.057Z" fill="#F0F0F0"/>
<path d="M354.777 188.392H352.195V185.812H354.777V188.392Z" fill="#F0F0F0"/>
<path d="M354.777 192.724H352.195V190.145H354.777V192.724Z" fill="#F0F0F0"/>
<path d="M354.777 197.005H352.195V194.426H354.777V197.005Z" fill="#F0F0F0"/>
<path d="M354.777 201.339H352.195V198.76H354.777V201.339Z" fill="#F0F0F0"/>
<path d="M354.777 205.62H352.195V203.041H354.777V205.62Z" fill="#F0F0F0"/>
<path d="M354.777 209.954H352.195V207.375H354.777V209.954Z" fill="#F0F0F0"/>
<path d="M354.777 222.902H352.195V220.322H354.777V222.902Z" fill="#F0F0F0"/>
<path d="M354.777 227.183H352.195V224.604H354.777V227.183Z" fill="#F0F0F0"/>
<path d="M354.777 231.517H352.195V228.938H354.777V231.517Z" fill="#F0F0F0"/>
<path d="M308.73 159.968H306.148V157.389H308.73V159.968Z" fill="#F0F0F0"/>
<path d="M308.73 164.249H306.148V161.67H308.73V164.249Z" fill="#F0F0F0"/>
<path d="M308.73 168.583H306.148V166.004H308.73V168.583Z" fill="#F0F0F0"/>
<path d="M308.73 172.864H306.148V170.336H308.73V172.864Z" fill="#F0F0F0"/>
<path d="M308.73 177.196H306.148V174.617H308.73V177.196Z" fill="#F0F0F0"/>
<path d="M308.73 181.53H306.148V178.951H308.73V181.53Z" fill="#F0F0F0"/>
<path d="M308.73 185.812H306.148V183.232H308.73V185.812Z" fill="#F0F0F0"/>
<path d="M308.73 190.146H306.148V187.566H308.73V190.146Z" fill="#F0F0F0"/>
<path d="M308.73 203.041H306.148V200.514H308.73V203.041Z" fill="#F0F0F0"/>
<path d="M308.73 207.374H306.148V204.795H308.73V207.374Z" fill="#F0F0F0"/>
<path d="M304.648 159.968H302.066V157.389H304.648V159.968Z" fill="#F0F0F0"/>
<path d="M304.648 164.249H302.066V161.67H304.648V164.249Z" fill="#F0F0F0"/>
<path d="M304.648 168.583H302.066V166.004H304.648V168.583Z" fill="#F0F0F0"/>
<path d="M304.648 172.864H302.066V170.336H304.648V172.864Z" fill="#F0F0F0"/>
<path d="M304.648 177.196H302.066V174.617H304.648V177.196Z" fill="#F0F0F0"/>
<path d="M304.648 181.53H302.066V178.951H304.648V181.53Z" fill="#F0F0F0"/>
<path d="M304.648 185.812H302.066V183.232H304.648V185.812Z" fill="#F0F0F0"/>
<path d="M304.648 190.146H302.066V187.566H304.648V190.146Z" fill="#F0F0F0"/>
<path d="M304.648 207.374H302.066V204.795H304.648V207.374Z" fill="#F0F0F0"/>
<path d="M300.57 159.968H297.988V157.389H300.57V159.968Z" fill="#F0F0F0"/>
<path d="M300.57 164.249H297.988V161.67H300.57V164.249Z" fill="#F0F0F0"/>
<path d="M300.57 168.583H297.988V166.004H300.57V168.583Z" fill="#F0F0F0"/>
<path d="M300.57 172.864H297.988V170.336H300.57V172.864Z" fill="#F0F0F0"/>
<path d="M300.57 177.196H297.988V174.617H300.57V177.196Z" fill="#F0F0F0"/>
<path d="M300.57 181.53H297.988V178.951H300.57V181.53Z" fill="#F0F0F0"/>
<path d="M300.57 185.812H297.988V183.232H300.57V185.812Z" fill="#F0F0F0"/>
<path d="M300.57 190.146H297.988V187.566H300.57V190.146Z" fill="#F0F0F0"/>
<path d="M296.491 159.968H293.91V157.389H296.491V159.968Z" fill="#F0F0F0"/>
<path d="M296.491 164.249H293.91V161.67H296.491V164.249Z" fill="#F0F0F0"/>
<path d="M296.491 168.583H293.91V166.004H296.491V168.583Z" fill="#F0F0F0"/>
<path d="M296.491 172.864H293.91V170.336H296.491V172.864Z" fill="#F0F0F0"/>
<path d="M296.491 177.196H293.91V174.617H296.491V177.196Z" fill="#F0F0F0"/>
<path d="M296.491 181.53H293.91V178.951H296.491V181.53Z" fill="#F0F0F0"/>
<path d="M296.491 190.146H293.91V187.566H296.491V190.146Z" fill="#F0F0F0"/>
<path d="M296.491 194.427H293.91V191.848H296.491V194.427Z" fill="#F0F0F0"/>
<path d="M296.491 207.374H293.91V204.795H296.491V207.374Z" fill="#F0F0F0"/>
<path d="M296.491 211.708H293.91V209.129H296.491V211.708Z" fill="#F0F0F0"/>
<path d="M296.491 215.989H293.91V213.41H296.491V215.989Z" fill="#F0F0F0"/>
<path d="M296.491 220.323H293.91V217.744H296.491V220.323Z" fill="#F0F0F0"/>
<path d="M296.491 224.604H293.91V222.076H296.491V224.604Z" fill="#F0F0F0"/>
<path d="M296.491 228.937H293.91V226.357H296.491V228.937Z" fill="#F0F0F0"/>
<path d="M296.491 233.271H293.91V230.691H296.491V233.271Z" fill="#F0F0F0"/>
<path d="M292.363 159.968H289.781V157.389H292.363V159.968Z" fill="#F0F0F0"/>
<path d="M292.363 164.249H289.781V161.67H292.363V164.249Z" fill="#F0F0F0"/>
<path d="M292.363 168.583H289.781V166.004H292.363V168.583Z" fill="#F0F0F0"/>
<path d="M292.363 172.864H289.781V170.336H292.363V172.864Z" fill="#F0F0F0"/>
<path d="M292.363 177.196H289.781V174.617H292.363V177.196Z" fill="#F0F0F0"/>
<path d="M292.363 181.53H289.781V178.951H292.363V181.53Z" fill="#F0F0F0"/>
<path d="M292.363 194.427H289.781V191.848H292.363V194.427Z" fill="#F0F0F0"/>
<path d="M292.363 198.761H289.781V196.182H292.363V198.761Z" fill="#F0F0F0"/>
<path d="M292.363 203.041H289.781V200.514H292.363V203.041Z" fill="#F0F0F0"/>
<path d="M292.363 207.374H289.781V204.795H292.363V207.374Z" fill="#F0F0F0"/>
<path d="M292.363 211.708H289.781V209.129H292.363V211.708Z" fill="#F0F0F0"/>
<path d="M292.363 215.989H289.781V213.41H292.363V215.989Z" fill="#F0F0F0"/>
<path d="M292.363 220.323H289.781V217.744H292.363V220.323Z" fill="#F0F0F0"/>
<path d="M292.363 224.604H289.781V222.076H292.363V224.604Z" fill="#F0F0F0"/>
<path d="M292.363 228.937H289.781V226.357H292.363V228.937Z" fill="#F0F0F0"/>
<path d="M292.363 233.271H289.781V230.691H292.363V233.271Z" fill="#F0F0F0"/>
<path d="M292.363 237.552H289.781V234.973H292.363V237.552Z" fill="#F0F0F0"/>
<path d="M292.363 246.167H289.781V243.588H292.363V246.167Z" fill="#F0F0F0"/>
<path d="M288.284 159.968H285.703V157.389H288.284V159.968Z" fill="#F0F0F0"/>
<path d="M288.284 164.249H285.703V161.67H288.284V164.249Z" fill="#F0F0F0"/>
<path d="M288.284 168.583H285.703V166.004H288.284V168.583Z" fill="#F0F0F0"/>
<path d="M288.284 172.864H285.703V170.336H288.284V172.864Z" fill="#F0F0F0"/>
<path d="M288.284 177.196H285.703V174.617H288.284V177.196Z" fill="#F0F0F0"/>
<path d="M288.284 181.53H285.703V178.951H288.284V181.53Z" fill="#F0F0F0"/>
<path d="M288.284 194.427H285.703V191.848H288.284V194.427Z" fill="#F0F0F0"/>
<path d="M288.284 198.761H285.703V196.182H288.284V198.761Z" fill="#F0F0F0"/>
<path d="M288.284 203.041H285.703V200.514H288.284V203.041Z" fill="#F0F0F0"/>
<path d="M288.284 207.374H285.703V204.795H288.284V207.374Z" fill="#F0F0F0"/>
<path d="M288.284 220.323H285.703V217.744H288.284V220.323Z" fill="#F0F0F0"/>
<path d="M288.284 224.604H285.703V222.076H288.284V224.604Z" fill="#F0F0F0"/>
<path d="M288.284 228.937H285.703V226.357H288.284V228.937Z" fill="#F0F0F0"/>
<path d="M288.284 233.271H285.703V230.691H288.284V233.271Z" fill="#F0F0F0"/>
<path d="M288.284 237.552H285.703V234.973H288.284V237.552Z" fill="#F0F0F0"/>
<path d="M288.284 246.167H285.703V243.588H288.284V246.167Z" fill="#F0F0F0"/>
<path d="M288.284 250.499H285.703V247.92H288.284V250.499Z" fill="#F0F0F0"/>
<path d="M251.214 200.05H248.633V197.471H251.214V200.05Z" fill="#F0F0F0"/>
<path d="M251.214 204.33H248.633V201.803H251.214V204.33Z" fill="#F0F0F0"/>
<path d="M251.214 208.665H248.633V206.086H251.214V208.665Z" fill="#F0F0F0"/>
<path d="M251.214 212.997H248.633V210.418H251.214V212.997Z" fill="#F0F0F0"/>
<path d="M251.214 217.279H248.633V214.699H251.214V217.279Z" fill="#F0F0F0"/>
<path d="M251.214 221.612H248.633V219.033H251.214V221.612Z" fill="#F0F0F0"/>
<path d="M251.214 225.894H248.633V223.314H251.214V225.894Z" fill="#F0F0F0"/>
<path d="M251.214 238.841H248.633V236.262H251.214V238.841Z" fill="#F0F0F0"/>
<path d="M251.214 243.175H248.633V240.596H251.214V243.175Z" fill="#F0F0F0"/>
<path d="M251.214 247.456H248.633V244.877H251.214V247.456Z" fill="#F0F0F0"/>
<path d="M247.084 200.05H244.555V197.471H247.084V200.05Z" fill="#F0F0F0"/>
<path d="M247.084 204.33H244.555V201.803H247.084V204.33Z" fill="#F0F0F0"/>
<path d="M247.084 208.665H244.555V206.086H247.084V208.665Z" fill="#F0F0F0"/>
<path d="M247.084 212.997H244.555V210.418H247.084V212.997Z" fill="#F0F0F0"/>
<path d="M247.084 217.279H244.555V214.699H247.084V217.279Z" fill="#F0F0F0"/>
<path d="M247.084 221.612H244.555V219.033H247.084V221.612Z" fill="#F0F0F0"/>
<path d="M247.084 225.894H244.555V223.314H247.084V225.894Z" fill="#F0F0F0"/>
<path d="M243.007 200.05H240.426V197.471H243.007V200.05Z" fill="#F0F0F0"/>
<path d="M243.007 204.33H240.426V201.803H243.007V204.33Z" fill="#F0F0F0"/>
<path d="M243.007 208.665H240.426V206.086H243.007V208.665Z" fill="#F0F0F0"/>
<path d="M243.007 212.997H240.426V210.418H243.007V212.997Z" fill="#F0F0F0"/>
<path d="M243.007 217.279H240.426V214.699H243.007V217.279Z" fill="#F0F0F0"/>
<path d="M243.007 221.612H240.426V219.033H243.007V221.612Z" fill="#F0F0F0"/>
<path d="M243.007 225.894H240.426V223.314H243.007V225.894Z" fill="#F0F0F0"/>
<path d="M238.929 200.05H236.348V197.471H238.929V200.05Z" fill="#F0F0F0"/>
<path d="M238.929 204.33H236.348V201.803H238.929V204.33Z" fill="#F0F0F0"/>
<path d="M238.929 208.665H236.348V206.086H238.929V208.665Z" fill="#F0F0F0"/>
<path d="M238.929 212.997H236.348V210.418H238.929V212.997Z" fill="#F0F0F0"/>
<path d="M238.929 217.279H236.348V214.699H238.929V217.279Z" fill="#F0F0F0"/>
<path d="M238.929 221.612H236.348V219.033H238.929V221.612Z" fill="#F0F0F0"/>
<path d="M238.929 225.894H236.348V223.314H238.929V225.894Z" fill="#F0F0F0"/>
<path d="M238.929 230.228H236.348V227.648H238.929V230.228Z" fill="#F0F0F0"/>
<path d="M238.929 234.508H236.348V231.98H238.929V234.508Z" fill="#F0F0F0"/>
<path d="M238.929 238.841H236.348V236.262H238.929V238.841Z" fill="#F0F0F0"/>
<path d="M238.929 243.175H236.348V240.596H238.929V243.175Z" fill="#F0F0F0"/>
<path d="M234.851 200.05H232.27V197.471H234.851V200.05Z" fill="#F0F0F0"/>
<path d="M234.851 204.33H232.27V201.803H234.851V204.33Z" fill="#F0F0F0"/>
<path d="M234.851 208.665H232.27V206.086H234.851V208.665Z" fill="#F0F0F0"/>
<path d="M234.851 212.997H232.27V210.418H234.851V212.997Z" fill="#F0F0F0"/>
<path d="M234.851 217.279H232.27V214.699H234.851V217.279Z" fill="#F0F0F0"/>
<path d="M234.851 221.612H232.27V219.033H234.851V221.612Z" fill="#F0F0F0"/>
<path d="M234.851 225.894H232.27V223.314H234.851V225.894Z" fill="#F0F0F0"/>
<path d="M234.851 230.228H232.27V227.648H234.851V230.228Z" fill="#F0F0F0"/>
<path d="M234.851 234.508H232.27V231.98H234.851V234.508Z" fill="#F0F0F0"/>
<path d="M234.851 238.841H232.27V236.262H234.851V238.841Z" fill="#F0F0F0"/>
<path d="M234.851 243.175H232.27V240.596H234.851V243.175Z" fill="#F0F0F0"/>
<path d="M234.851 247.456H232.27V244.877H234.851V247.456Z" fill="#F0F0F0"/>
<path d="M234.851 260.405H232.27V257.826H234.851V260.405Z" fill="#F0F0F0"/>
<path d="M234.851 264.686H232.27V262.158H234.851V264.686Z" fill="#F0F0F0"/>
<path d="M230.773 200.05H228.191V197.471H230.773V200.05Z" fill="#F0F0F0"/>
<path d="M230.773 204.33H228.191V201.803H230.773V204.33Z" fill="#F0F0F0"/>
<path d="M230.773 208.665H228.191V206.086H230.773V208.665Z" fill="#F0F0F0"/>
<path d="M230.773 221.612H228.191V219.033H230.773V221.612Z" fill="#F0F0F0"/>
<path d="M230.773 225.894H228.191V223.314H230.773V225.894Z" fill="#F0F0F0"/>
<path d="M230.773 230.228H228.191V227.648H230.773V230.228Z" fill="#F0F0F0"/>
<path d="M230.773 234.508H228.191V231.98H230.773V234.508Z" fill="#F0F0F0"/>
<path d="M230.773 238.841H228.191V236.262H230.773V238.841Z" fill="#F0F0F0"/>
<path d="M230.773 243.175H228.191V240.596H230.773V243.175Z" fill="#F0F0F0"/>
<path d="M230.773 247.456H228.191V244.877H230.773V247.456Z" fill="#F0F0F0"/>
<path d="M230.773 260.405H228.191V257.826H230.773V260.405Z" fill="#F0F0F0"/>
<path d="M230.773 264.686H228.191V262.158H230.773V264.686Z" fill="#F0F0F0"/>
<path d="M230.773 269.019H228.191V266.439H230.773V269.019Z" fill="#F0F0F0"/>
<path d="M187.921 174.154H185.34V171.574H187.921V174.154Z" fill="#F0F0F0"/>
<path d="M187.921 178.486H185.34V175.906H187.921V178.486Z" fill="#F0F0F0"/>
<path d="M187.921 182.768H185.34V180.24H187.921V182.768Z" fill="#F0F0F0"/>
<path d="M187.921 187.103H185.34V184.523H187.921V187.103Z" fill="#F0F0F0"/>
<path d="M187.921 191.435H185.34V188.855H187.921V191.435Z" fill="#F0F0F0"/>
<path d="M187.921 195.716H185.34V193.137H187.921V195.716Z" fill="#F0F0F0"/>
<path d="M187.921 200.05H185.34V197.471H187.921V200.05Z" fill="#F0F0F0"/>
<path d="M187.921 204.33H185.34V201.803H187.921V204.33Z" fill="#F0F0F0"/>
<path d="M187.921 208.665H185.34V206.086H187.921V208.665Z" fill="#F0F0F0"/>
<path d="M187.921 212.997H185.34V210.418H187.921V212.997Z" fill="#F0F0F0"/>
<path d="M187.921 217.279H185.34V214.699H187.921V217.279Z" fill="#F0F0F0"/>
<path d="M187.921 221.612H185.34V219.033H187.921V221.612Z" fill="#F0F0F0"/>
<path d="M187.921 225.894H185.34V223.314H187.921V225.894Z" fill="#F0F0F0"/>
<path d="M187.921 230.228H185.34V227.648H187.921V230.228Z" fill="#F0F0F0"/>
<path d="M187.921 234.508H185.34V231.98H187.921V234.508Z" fill="#F0F0F0"/>
<path d="M187.921 238.841H185.34V236.262H187.921V238.841Z" fill="#F0F0F0"/>
<path d="M187.921 243.175H185.34V240.596H187.921V243.175Z" fill="#F0F0F0"/>
<path d="M187.921 247.456H185.34V244.877H187.921V247.456Z" fill="#F0F0F0"/>
<path d="M187.921 251.79H185.34V249.211H187.921V251.79Z" fill="#F0F0F0"/>
<path d="M187.921 256.072H185.34V253.492H187.921V256.072Z" fill="#F0F0F0"/>
<path d="M187.921 260.405H185.34V257.826H187.921V260.405Z" fill="#F0F0F0"/>
<path d="M187.921 264.686H185.34V262.158H187.921V264.686Z" fill="#F0F0F0"/>
<path d="M187.921 269.019H185.34V266.439H187.921V269.019Z" fill="#F0F0F0"/>
<path d="M183.843 174.154H181.262V171.574H183.843V174.154Z" fill="#F0F0F0"/>
<path d="M183.843 178.486H181.262V175.906H183.843V178.486Z" fill="#F0F0F0"/>
<path d="M183.843 182.768H181.262V180.24H183.843V182.768Z" fill="#F0F0F0"/>
<path d="M183.843 187.103H181.262V184.523H183.843V187.103Z" fill="#F0F0F0"/>
<path d="M183.843 191.435H181.262V188.855H183.843V191.435Z" fill="#F0F0F0"/>
<path d="M183.843 195.716H181.262V193.137H183.843V195.716Z" fill="#F0F0F0"/>
<path d="M183.843 200.05H181.262V197.471H183.843V200.05Z" fill="#F0F0F0"/>
<path d="M183.843 204.33H181.262V201.803H183.843V204.33Z" fill="#F0F0F0"/>
<path d="M183.843 208.665H181.262V206.086H183.843V208.665Z" fill="#F0F0F0"/>
<path d="M183.843 212.997H181.262V210.418H183.843V212.997Z" fill="#F0F0F0"/>
<path d="M183.843 217.279H181.262V214.699H183.843V217.279Z" fill="#F0F0F0"/>
<path d="M183.843 221.612H181.262V219.033H183.843V221.612Z" fill="#F0F0F0"/>
<path d="M183.843 225.894H181.262V223.314H183.843V225.894Z" fill="#F0F0F0"/>
<path d="M183.843 230.228H181.262V227.648H183.843V230.228Z" fill="#F0F0F0"/>
<path d="M183.843 234.508H181.262V231.98H183.843V234.508Z" fill="#F0F0F0"/>
<path d="M183.843 238.841H181.262V236.262H183.843V238.841Z" fill="#F0F0F0"/>
<path d="M183.843 243.175H181.262V240.596H183.843V243.175Z" fill="#F0F0F0"/>
<path d="M183.843 247.456H181.262V244.877H183.843V247.456Z" fill="#F0F0F0"/>
<path d="M183.843 251.79H181.262V249.211H183.843V251.79Z" fill="#F0F0F0"/>
<path d="M179.713 174.154H177.184V171.574H179.713V174.154Z" fill="#F0F0F0"/>
<path d="M179.713 178.486H177.184V175.906H179.713V178.486Z" fill="#F0F0F0"/>
<path d="M179.713 182.768H177.184V180.24H179.713V182.768Z" fill="#F0F0F0"/>
<path d="M179.713 187.103H177.184V184.523H179.713V187.103Z" fill="#F0F0F0"/>
<path d="M179.713 191.435H177.184V188.855H179.713V191.435Z" fill="#F0F0F0"/>
<path d="M179.713 195.716H177.184V193.137H179.713V195.716Z" fill="#F0F0F0"/>
<path d="M179.713 200.05H177.184V197.471H179.713V200.05Z" fill="#F0F0F0"/>
<path d="M179.713 204.33H177.184V201.803H179.713V204.33Z" fill="#F0F0F0"/>
<path d="M179.713 208.665H177.184V206.086H179.713V208.665Z" fill="#F0F0F0"/>
<path d="M179.713 212.997H177.184V210.418H179.713V212.997Z" fill="#F0F0F0"/>
<path d="M179.713 217.279H177.184V214.699H179.713V217.279Z" fill="#F0F0F0"/>
<path d="M179.713 221.612H177.184V219.033H179.713V221.612Z" fill="#F0F0F0"/>
<path d="M179.713 225.894H177.184V223.314H179.713V225.894Z" fill="#F0F0F0"/>
<path d="M179.713 230.228H177.184V227.648H179.713V230.228Z" fill="#F0F0F0"/>
<path d="M179.713 234.508H177.184V231.98H179.713V234.508Z" fill="#F0F0F0"/>
<path d="M179.713 238.841H177.184V236.262H179.713V238.841Z" fill="#F0F0F0"/>
<path d="M179.713 243.175H177.184V240.596H179.713V243.175Z" fill="#F0F0F0"/>
<path d="M179.713 247.456H177.184V244.877H179.713V247.456Z" fill="#F0F0F0"/>
<path d="M179.713 251.79H177.184V249.211H179.713V251.79Z" fill="#F0F0F0"/>
<path d="M175.636 174.154H173.055V171.574H175.636V174.154Z" fill="#F0F0F0"/>
<path d="M175.636 178.486H173.055V175.906H175.636V178.486Z" fill="#F0F0F0"/>
<path d="M175.636 182.768H173.055V180.24H175.636V182.768Z" fill="#F0F0F0"/>
<path d="M175.636 187.103H173.055V184.523H175.636V187.103Z" fill="#F0F0F0"/>
<path d="M175.636 191.435H173.055V188.855H175.636V191.435Z" fill="#F0F0F0"/>
<path d="M175.636 195.716H173.055V193.137H175.636V195.716Z" fill="#F0F0F0"/>
<path d="M175.636 200.05H173.055V197.471H175.636V200.05Z" fill="#F0F0F0"/>
<path d="M175.636 204.33H173.055V201.803H175.636V204.33Z" fill="#F0F0F0"/>
<path d="M175.636 208.665H173.055V206.086H175.636V208.665Z" fill="#F0F0F0"/>
<path d="M175.636 212.997H173.055V210.418H175.636V212.997Z" fill="#F0F0F0"/>
<path d="M175.636 217.279H173.055V214.699H175.636V217.279Z" fill="#F0F0F0"/>
<path d="M175.636 221.612H173.055V219.033H175.636V221.612Z" fill="#F0F0F0"/>
<path d="M175.636 225.894H173.055V223.314H175.636V225.894Z" fill="#F0F0F0"/>
<path d="M175.636 230.228H173.055V227.648H175.636V230.228Z" fill="#F0F0F0"/>
<path d="M175.636 234.508H173.055V231.98H175.636V234.508Z" fill="#F0F0F0"/>
<path d="M171.554 174.154H168.973V171.574H171.554V174.154Z" fill="#F0F0F0"/>
<path d="M171.554 178.486H168.973V175.906H171.554V178.486Z" fill="#F0F0F0"/>
<path d="M171.554 182.768H168.973V180.24H171.554V182.768Z" fill="#F0F0F0"/>
<path d="M171.554 187.103H168.973V184.523H171.554V187.103Z" fill="#F0F0F0"/>
<path d="M171.554 191.435H168.973V188.855H171.554V191.435Z" fill="#F0F0F0"/>
<path d="M171.554 195.716H168.973V193.137H171.554V195.716Z" fill="#F0F0F0"/>
<path d="M171.554 200.05H168.973V197.471H171.554V200.05Z" fill="#F0F0F0"/>
<path d="M171.554 204.33H168.973V201.803H171.554V204.33Z" fill="#F0F0F0"/>
<path d="M171.554 208.665H168.973V206.086H171.554V208.665Z" fill="#F0F0F0"/>
<path d="M171.554 212.997H168.973V210.418H171.554V212.997Z" fill="#F0F0F0"/>
<path d="M171.554 217.279H168.973V214.699H171.554V217.279Z" fill="#F0F0F0"/>
<path d="M171.554 221.612H168.973V219.033H171.554V221.612Z" fill="#F0F0F0"/>
<path d="M171.554 225.894H168.973V223.314H171.554V225.894Z" fill="#F0F0F0"/>
<path d="M167.476 171.574V174.154H164.895V171.574H167.476Z" fill="#F0F0F0"/>
<path d="M167.476 178.486H164.895V175.906H167.476V178.486Z" fill="#F0F0F0"/>
<path d="M167.476 182.768H164.895V180.24H167.476V182.768Z" fill="#F0F0F0"/>
<path d="M167.476 187.103H164.895V184.523H167.476V187.103Z" fill="#F0F0F0"/>
<path d="M167.476 191.435H164.895V188.855H167.476V191.435Z" fill="#F0F0F0"/>
<path d="M167.476 195.716H164.895V193.137H167.476V195.716Z" fill="#F0F0F0"/>
<path d="M167.476 200.05H164.895V197.471H167.476V200.05Z" fill="#F0F0F0"/>
<path d="M167.476 204.33H164.895V201.803H167.476V204.33Z" fill="#F0F0F0"/>
<path d="M167.476 208.665H164.895V206.086H167.476V208.665Z" fill="#F0F0F0"/>
<path d="M167.476 212.997H164.895V210.418H167.476V212.997Z" fill="#F0F0F0"/>
<path d="M167.476 217.279H164.895V214.699H167.476V217.279Z" fill="#F0F0F0"/>
<path d="M167.476 221.612H164.895V219.033H167.476V221.612Z" fill="#F0F0F0"/>
<path d="M406.097 172.864H403.516V170.336H406.097V172.864Z" fill="#F0F0F0"/>
<path d="M406.097 177.196H403.516V174.617H406.097V177.196Z" fill="#F0F0F0"/>
<path d="M406.097 181.53H403.516V178.951H406.097V181.53Z" fill="#F0F0F0"/>
<path d="M406.097 185.812H403.516V183.232H406.097V185.812Z" fill="#F0F0F0"/>
<path d="M406.097 190.146H403.516V187.566H406.097V190.146Z" fill="#F0F0F0"/>
<path d="M406.097 194.427H403.516V191.848H406.097V194.427Z" fill="#F0F0F0"/>
<path d="M406.097 198.761H403.516V196.182H406.097V198.761Z" fill="#F0F0F0"/>
<path d="M406.097 203.041H403.516V200.514H406.097V203.041Z" fill="#F0F0F0"/>
<path d="M406.097 207.374H403.516V204.795H406.097V207.374Z" fill="#F0F0F0"/>
<path d="M406.097 211.708H403.516V209.129H406.097V211.708Z" fill="#F0F0F0"/>
<path d="M406.097 215.989H403.516V213.41H406.097V215.989Z" fill="#F0F0F0"/>
<path d="M406.097 220.323H403.516V217.744H406.097V220.323Z" fill="#F0F0F0"/>
<path d="M406.097 224.604H403.516V222.076H406.097V224.604Z" fill="#F0F0F0"/>
<path d="M406.097 228.937H403.516V226.357H406.097V228.937Z" fill="#F0F0F0"/>
<path d="M406.097 233.271H403.516V230.691H406.097V233.271Z" fill="#F0F0F0"/>
<path d="M406.097 237.552H403.516V234.973H406.097V237.552Z" fill="#F0F0F0"/>
<path d="M406.097 241.886H403.516V239.307H406.097V241.886Z" fill="#F0F0F0"/>
<path d="M406.097 250.499H403.516V247.92H406.097V250.499Z" fill="#F0F0F0"/>
<path d="M406.097 254.782H403.516V252.254H406.097V254.782Z" fill="#F0F0F0"/>
<path d="M406.097 259.114H403.516V256.535H406.097V259.114Z" fill="#F0F0F0"/>
<path d="M406.097 263.448H403.516V260.869H406.097V263.448Z" fill="#F0F0F0"/>
<path d="M406.097 267.73H403.516V265.15H406.097V267.73Z" fill="#F0F0F0"/>
<path d="M402.019 172.864H399.438V170.336H402.019V172.864Z" fill="#F0F0F0"/>
<path d="M402.019 177.196H399.438V174.617H402.019V177.196Z" fill="#F0F0F0"/>
<path d="M402.019 181.53H399.438V178.951H402.019V181.53Z" fill="#F0F0F0"/>
<path d="M402.019 185.812H399.438V183.232H402.019V185.812Z" fill="#F0F0F0"/>
<path d="M402.019 190.146H399.438V187.566H402.019V190.146Z" fill="#F0F0F0"/>
<path d="M402.019 194.427H399.438V191.848H402.019V194.427Z" fill="#F0F0F0"/>
<path d="M402.019 198.761H399.438V196.182H402.019V198.761Z" fill="#F0F0F0"/>
<path d="M402.019 203.041H399.438V200.514H402.019V203.041Z" fill="#F0F0F0"/>
<path d="M402.019 207.374H399.438V204.795H402.019V207.374Z" fill="#F0F0F0"/>
<path d="M402.019 211.708H399.438V209.129H402.019V211.708Z" fill="#F0F0F0"/>
<path d="M402.019 215.989H399.438V213.41H402.019V215.989Z" fill="#F0F0F0"/>
<path d="M402.019 220.323H399.438V217.744H402.019V220.323Z" fill="#F0F0F0"/>
<path d="M402.019 224.604H399.438V222.076H402.019V224.604Z" fill="#F0F0F0"/>
<path d="M402.019 228.937H399.438V226.357H402.019V228.937Z" fill="#F0F0F0"/>
<path d="M402.019 233.271H399.438V230.691H402.019V233.271Z" fill="#F0F0F0"/>
<path d="M402.019 237.552H399.438V234.973H402.019V237.552Z" fill="#F0F0F0"/>
<path d="M402.019 263.448H399.438V260.869H402.019V263.448Z" fill="#F0F0F0"/>
<path d="M402.019 267.73H399.438V265.15H402.019V267.73Z" fill="#F0F0F0"/>
<path d="M397.889 172.864H395.359V170.336H397.889V172.864Z" fill="#F0F0F0"/>
<path d="M397.889 177.196H395.359V174.617H397.889V177.196Z" fill="#F0F0F0"/>
<path d="M397.889 181.53H395.359V178.951H397.889V181.53Z" fill="#F0F0F0"/>
<path d="M397.889 185.812H395.359V183.232H397.889V185.812Z" fill="#F0F0F0"/>
<path d="M397.889 190.146H395.359V187.566H397.889V190.146Z" fill="#F0F0F0"/>
<path d="M397.889 194.427H395.359V191.848H397.889V194.427Z" fill="#F0F0F0"/>
<path d="M397.889 198.761H395.359V196.182H397.889V198.761Z" fill="#F0F0F0"/>
<path d="M397.889 203.041H395.359V200.514H397.889V203.041Z" fill="#F0F0F0"/>
<path d="M397.889 207.374H395.359V204.795H397.889V207.374Z" fill="#F0F0F0"/>
<path d="M397.889 211.708H395.359V209.129H397.889V211.708Z" fill="#F0F0F0"/>
<path d="M397.889 215.989H395.359V213.41H397.889V215.989Z" fill="#F0F0F0"/>
<path d="M397.889 220.323H395.359V217.744H397.889V220.323Z" fill="#F0F0F0"/>
<path d="M397.889 224.604H395.359V222.076H397.889V224.604Z" fill="#F0F0F0"/>
<path d="M397.889 228.937H395.359V226.357H397.889V228.937Z" fill="#F0F0F0"/>
<path d="M397.889 233.271H395.359V230.691H397.889V233.271Z" fill="#F0F0F0"/>
<path d="M397.889 237.552H395.359V234.973H397.889V237.552Z" fill="#F0F0F0"/>
<path d="M397.889 246.167H395.359V243.588H397.889V246.167Z" fill="#F0F0F0"/>
<path d="M397.889 250.499H395.359V247.92H397.889V250.499Z" fill="#F0F0F0"/>
<path d="M397.889 254.782H395.359V252.254H397.889V254.782Z" fill="#F0F0F0"/>
<path d="M397.889 259.114H395.359V256.535H397.889V259.114Z" fill="#F0F0F0"/>
<path d="M397.889 267.73H395.359V265.15H397.889V267.73Z" fill="#F0F0F0"/>
<path d="M326.589 203.041H324.008V200.514H326.589V203.041Z" fill="#F0F0F0"/>
<path d="M326.589 207.374H324.008V204.795H326.589V207.374Z" fill="#F0F0F0"/>
<path d="M326.589 211.708H324.008V209.129H326.589V211.708Z" fill="#F0F0F0"/>
<path d="M326.589 215.989H324.008V213.41H326.589V215.989Z" fill="#F0F0F0"/>
<path d="M326.589 220.323H324.008V217.744H326.589V220.323Z" fill="#F0F0F0"/>
<path d="M326.589 224.604H324.008V222.076H326.589V224.604Z" fill="#F0F0F0"/>
<path d="M326.589 228.937H324.008V226.357H326.589V228.937Z" fill="#F0F0F0"/>
<path d="M326.589 233.271H324.008V230.691H326.589V233.271Z" fill="#F0F0F0"/>
<path d="M326.589 237.552H324.008V234.973H326.589V237.552Z" fill="#F0F0F0"/>
<path d="M326.589 241.886H324.008V239.307H326.589V241.886Z" fill="#F0F0F0"/>
<path d="M326.589 246.167H324.008V243.588H326.589V246.167Z" fill="#F0F0F0"/>
<path d="M326.589 250.499H324.008V247.92H326.589V250.499Z" fill="#F0F0F0"/>
<path d="M326.589 254.782H324.008V252.254H326.589V254.782Z" fill="#F0F0F0"/>
<path d="M326.589 263.448H324.008V260.869H326.589V263.448Z" fill="#F0F0F0"/>
<path d="M326.589 267.73H324.008V265.15H326.589V267.73Z" fill="#F0F0F0"/>
<path d="M326.589 272.064H324.008V269.484H326.589V272.064Z" fill="#F0F0F0"/>
<path d="M326.589 276.345H324.008V273.766H326.589V276.345Z" fill="#F0F0F0"/>
<path d="M326.589 284.959H324.008V282.432H326.589V284.959Z" fill="#F0F0F0"/>
<path d="M326.589 289.294H324.008V286.715H326.589V289.294Z" fill="#F0F0F0"/>
<path d="M326.589 293.626H324.008V291.047H326.589V293.626Z" fill="#F0F0F0"/>
<path d="M322.511 203.041H319.93V200.514H322.511V203.041Z" fill="#F0F0F0"/>
<path d="M322.511 207.374H319.93V204.795H322.511V207.374Z" fill="#F0F0F0"/>
<path d="M322.511 211.708H319.93V209.129H322.511V211.708Z" fill="#F0F0F0"/>
<path d="M322.511 215.989H319.93V213.41H322.511V215.989Z" fill="#F0F0F0"/>
<path d="M322.511 220.323H319.93V217.744H322.511V220.323Z" fill="#F0F0F0"/>
<path d="M322.511 224.604H319.93V222.076H322.511V224.604Z" fill="#F0F0F0"/>
<path d="M322.511 228.937H319.93V226.357H322.511V228.937Z" fill="#F0F0F0"/>
<path d="M322.511 233.271H319.93V230.691H322.511V233.271Z" fill="#F0F0F0"/>
<path d="M322.511 237.552H319.93V234.973H322.511V237.552Z" fill="#F0F0F0"/>
<path d="M322.511 241.886H319.93V239.307H322.511V241.886Z" fill="#F0F0F0"/>
<path d="M322.511 246.167H319.93V243.588H322.511V246.167Z" fill="#F0F0F0"/>
<path d="M322.511 250.499H319.93V247.92H322.511V250.499Z" fill="#F0F0F0"/>
<path d="M322.511 254.782H319.93V252.254H322.511V254.782Z" fill="#F0F0F0"/>
<path d="M322.511 267.73H319.93V265.15H322.511V267.73Z" fill="#F0F0F0"/>
<path d="M322.511 272.064H319.93V269.484H322.511V272.064Z" fill="#F0F0F0"/>
<path d="M322.511 280.677H319.93V278.098H322.511V280.677Z" fill="#F0F0F0"/>
<path d="M322.511 284.959H319.93V282.432H322.511V284.959Z" fill="#F0F0F0"/>
<path d="M322.511 289.294H319.93V286.715H322.511V289.294Z" fill="#F0F0F0"/>
<path d="M322.511 293.626H319.93V291.047H322.511V293.626Z" fill="#F0F0F0"/>
<path d="M318.433 203.041H315.852V200.514H318.433V203.041Z" fill="#F0F0F0"/>
<path d="M318.433 207.374H315.852V204.795H318.433V207.374Z" fill="#F0F0F0"/>
<path d="M318.433 211.708H315.852V209.129H318.433V211.708Z" fill="#F0F0F0"/>
<path d="M318.433 215.989H315.852V213.41H318.433V215.989Z" fill="#F0F0F0"/>
<path d="M318.433 220.323H315.852V217.744H318.433V220.323Z" fill="#F0F0F0"/>
<path d="M318.433 224.604H315.852V222.076H318.433V224.604Z" fill="#F0F0F0"/>
<path d="M318.433 228.937H315.852V226.357H318.433V228.937Z" fill="#F0F0F0"/>
<path d="M318.433 233.271H315.852V230.691H318.433V233.271Z" fill="#F0F0F0"/>
<path d="M318.433 237.552H315.852V234.973H318.433V237.552Z" fill="#F0F0F0"/>
<path d="M318.433 241.886H315.852V239.307H318.433V241.886Z" fill="#F0F0F0"/>
<path d="M318.433 246.167H315.852V243.588H318.433V246.167Z" fill="#F0F0F0"/>
<path d="M318.433 250.499H315.852V247.92H318.433V250.499Z" fill="#F0F0F0"/>
<path d="M318.433 254.782H315.852V252.254H318.433V254.782Z" fill="#F0F0F0"/>
<path d="M318.433 259.114H315.852V256.535H318.433V259.114Z" fill="#F0F0F0"/>
<path d="M318.433 267.73H315.852V265.15H318.433V267.73Z" fill="#F0F0F0"/>
<path d="M318.433 276.345H315.852V273.766H318.433V276.345Z" fill="#F0F0F0"/>
<path d="M318.433 280.677H315.852V278.098H318.433V280.677Z" fill="#F0F0F0"/>
<path d="M318.433 284.959H315.852V282.432H318.433V284.959Z" fill="#F0F0F0"/>
<path d="M318.433 289.294H315.852V286.715H318.433V289.294Z" fill="#F0F0F0"/>
<path d="M318.433 293.626H315.852V291.047H318.433V293.626Z" fill="#F0F0F0"/>
<path d="M343.265 227.648H340.684V225.068H343.265V227.648Z" fill="#F0F0F0"/>
<path d="M343.265 231.982H340.684V229.402H343.265V231.982Z" fill="#F0F0F0"/>
<path d="M343.265 236.263H340.684V233.684H343.265V236.263Z" fill="#F0F0F0"/>
<path d="M343.265 240.595H340.684V238.016H343.265V240.595Z" fill="#F0F0F0"/>
<path d="M343.265 244.878H340.684V242.299H343.265V244.878Z" fill="#F0F0F0"/>
<path d="M343.265 249.21H340.684V246.631H343.265V249.21Z" fill="#F0F0F0"/>
<path d="M343.265 262.157H340.684V259.578H343.265V262.157Z" fill="#F0F0F0"/>
<path d="M343.265 266.441H340.684V263.861H343.265V266.441Z" fill="#F0F0F0"/>
<path d="M343.265 270.773H340.684V268.193H343.265V270.773Z" fill="#F0F0F0"/>
<path d="M343.265 275.055H340.684V272.527H343.265V275.055Z" fill="#F0F0F0"/>
<path d="M343.265 279.388H340.684V276.809H343.265V279.388Z" fill="#F0F0F0"/>
<path d="M343.265 283.722H340.684V281.143H343.265V283.722Z" fill="#F0F0F0"/>
<path d="M343.265 288.003H340.684V285.424H343.265V288.003Z" fill="#F0F0F0"/>
<path d="M339.187 227.648H336.605V225.068H339.187V227.648Z" fill="#F0F0F0"/>
<path d="M339.187 231.982H336.605V229.402H339.187V231.982Z" fill="#F0F0F0"/>
<path d="M339.187 236.263H336.605V233.684H339.187V236.263Z" fill="#F0F0F0"/>
<path d="M339.187 240.595H336.605V238.016H339.187V240.595Z" fill="#F0F0F0"/>
<path d="M339.187 244.878H336.605V242.299H339.187V244.878Z" fill="#F0F0F0"/>
<path d="M339.187 249.21H336.605V246.631H339.187V249.21Z" fill="#F0F0F0"/>
<path d="M339.187 262.157H336.605V259.578H339.187V262.157Z" fill="#F0F0F0"/>
<path d="M339.187 266.441H336.605V263.861H339.187V266.441Z" fill="#F0F0F0"/>
<path d="M339.187 270.773H336.605V268.193H339.187V270.773Z" fill="#F0F0F0"/>
<path d="M339.187 275.055H336.605V272.527H339.187V275.055Z" fill="#F0F0F0"/>
<path d="M339.187 279.388H336.605V276.809H339.187V279.388Z" fill="#F0F0F0"/>
<path d="M339.187 283.722H336.605V281.143H339.187V283.722Z" fill="#F0F0F0"/>
<path d="M339.187 292.335H336.605V289.756H339.187V292.335Z" fill="#F0F0F0"/>
<path d="M203.359 208.665H200.777V206.086H203.359V208.665Z" fill="#F0F0F0"/>
<path d="M203.359 212.997H200.777V210.418H203.359V212.997Z" fill="#F0F0F0"/>
<path d="M203.359 217.279H200.777V214.699H203.359V217.279Z" fill="#F0F0F0"/>
<path d="M203.359 221.612H200.777V219.033H203.359V221.612Z" fill="#F0F0F0"/>
<path d="M203.359 225.894H200.777V223.314H203.359V225.894Z" fill="#F0F0F0"/>
<path d="M203.359 230.228H200.777V227.648H203.359V230.228Z" fill="#F0F0F0"/>
<path d="M203.359 234.508H200.777V231.98H203.359V234.508Z" fill="#F0F0F0"/>
<path d="M203.359 238.841H200.777V236.262H203.359V238.841Z" fill="#F0F0F0"/>
<path d="M203.359 243.175H200.777V240.596H203.359V243.175Z" fill="#F0F0F0"/>
<path d="M203.359 247.456H200.777V244.877H203.359V247.456Z" fill="#F0F0F0"/>
<path d="M203.359 251.79H200.777V249.211H203.359V251.79Z" fill="#F0F0F0"/>
<path d="M203.359 260.405H200.777V257.826H203.359V260.405Z" fill="#F0F0F0"/>
<path d="M203.359 264.686H200.777V262.158H203.359V264.686Z" fill="#F0F0F0"/>
<path d="M203.359 269.019H200.777V266.439H203.359V269.019Z" fill="#F0F0F0"/>
<path d="M203.359 273.353H200.777V270.773H203.359V273.353Z" fill="#F0F0F0"/>
<path d="M203.359 277.634H200.777V275.055H203.359V277.634Z" fill="#F0F0F0"/>
<path d="M203.359 281.968H200.777V279.389H203.359V281.968Z" fill="#F0F0F0"/>
<path d="M203.359 286.248H200.777V283.721H203.359V286.248Z" fill="#F0F0F0"/>
<path d="M203.359 290.583H200.777V288.004H203.359V290.583Z" fill="#F0F0F0"/>
<path d="M199.281 208.665H196.699V206.086H199.281V208.665Z" fill="#F0F0F0"/>
<path d="M199.281 212.997H196.699V210.418H199.281V212.997Z" fill="#F0F0F0"/>
<path d="M199.281 217.279H196.699V214.699H199.281V217.279Z" fill="#F0F0F0"/>
<path d="M199.281 221.612H196.699V219.033H199.281V221.612Z" fill="#F0F0F0"/>
<path d="M199.281 225.894H196.699V223.314H199.281V225.894Z" fill="#F0F0F0"/>
<path d="M199.281 230.228H196.699V227.648H199.281V230.228Z" fill="#F0F0F0"/>
<path d="M199.281 234.508H196.699V231.98H199.281V234.508Z" fill="#F0F0F0"/>
<path d="M199.281 238.841H196.699V236.262H199.281V238.841Z" fill="#F0F0F0"/>
<path d="M199.281 243.175H196.699V240.596H199.281V243.175Z" fill="#F0F0F0"/>
<path d="M199.281 247.456H196.699V244.877H199.281V247.456Z" fill="#F0F0F0"/>
<path d="M199.281 251.79H196.699V249.211H199.281V251.79Z" fill="#F0F0F0"/>
<path d="M199.281 256.071H196.699V253.492H199.281V256.071Z" fill="#F0F0F0"/>
<path d="M199.281 260.405H196.699V257.826H199.281V260.405Z" fill="#F0F0F0"/>
<path d="M199.281 264.686H196.699V262.158H199.281V264.686Z" fill="#F0F0F0"/>
<path d="M199.281 269.019H196.699V266.439H199.281V269.019Z" fill="#F0F0F0"/>
<path d="M199.281 273.353H196.699V270.773H199.281V273.353Z" fill="#F0F0F0"/>
<path d="M199.281 277.634H196.699V275.055H199.281V277.634Z" fill="#F0F0F0"/>
<path d="M199.281 281.968H196.699V279.389H199.281V281.968Z" fill="#F0F0F0"/>
<path d="M199.281 286.248H196.699V283.721H199.281V286.248Z" fill="#F0F0F0"/>
<path d="M199.281 290.583H196.699V288.004H199.281V290.583Z" fill="#F0F0F0"/>
<path d="M223.491 225.43H220.91V222.902H223.491V225.43Z" fill="#F0F0F0"/>
<path d="M223.491 229.763H220.91V227.184H223.491V229.763Z" fill="#F0F0F0"/>
<path d="M223.491 234.097H220.91V231.518H223.491V234.097Z" fill="#F0F0F0"/>
<path d="M223.491 238.378H220.91V235.799H223.491V238.378Z" fill="#F0F0F0"/>
<path d="M223.491 242.71H220.91V240.131H223.491V242.71Z" fill="#F0F0F0"/>
<path d="M223.491 246.992H220.91V244.465H223.491V246.992Z" fill="#F0F0F0"/>
<path d="M223.491 251.325H220.91V248.746H223.491V251.325Z" fill="#F0F0F0"/>
<path d="M223.491 255.659H220.91V253.08H223.491V255.659Z" fill="#F0F0F0"/>
<path d="M223.491 259.941H220.91V257.361H223.491V259.941Z" fill="#F0F0F0"/>
<path d="M223.491 264.275H220.91V261.695H223.491V264.275Z" fill="#F0F0F0"/>
<path d="M219.413 225.43H216.832V222.902H219.413V225.43Z" fill="#F0F0F0"/>
<path d="M219.413 229.763H216.832V227.184H219.413V229.763Z" fill="#F0F0F0"/>
<path d="M219.413 234.097H216.832V231.518H219.413V234.097Z" fill="#F0F0F0"/>
<path d="M219.413 238.378H216.832V235.799H219.413V238.378Z" fill="#F0F0F0"/>
<path d="M219.413 242.71H216.832V240.131H219.413V242.71Z" fill="#F0F0F0"/>
<path d="M219.413 246.992H216.832V244.465H219.413V246.992Z" fill="#F0F0F0"/>
<path d="M219.413 251.325H216.832V248.746H219.413V251.325Z" fill="#F0F0F0"/>
<path d="M219.413 255.659H216.832V253.08H219.413V255.659Z" fill="#F0F0F0"/>
<path d="M219.413 259.941H216.832V257.361H219.413V259.941Z" fill="#F0F0F0"/>
<path d="M239.395 299.713V59.2715H243.731V299.713H239.395Z" fill="#E0E0E0"/>
<path d="M320.652 299.713V59.2715H324.989V299.713H320.652Z" fill="#E0E0E0"/>
<path d="M401.914 299.713V59.2715H406.251V299.713H401.914Z" fill="#E0E0E0"/>
<path d="M130.253 332.314H94.5273V280.883C94.5273 278.356 96.5924 276.344 99.0705 276.344H125.71C128.24 276.344 130.253 278.356 130.253 280.883V332.314Z" fill="#F0F0F0"/>
<path d="M130.253 287.9H94.5273V283.928H130.253V287.9Z" fill="#E6E6E6"/>
<path d="M123.749 325.508H114.869C113.526 325.508 112.391 326.591 112.391 327.984V332.317H126.227V327.984C126.227 326.591 125.091 325.508 123.749 325.508Z" fill="#E0E0E0"/>
<path d="M126.227 332.315H116.366C115.488 332.315 114.766 331.593 114.766 330.716C114.766 329.839 115.488 329.117 116.366 329.117H126.227C127.104 329.117 127.827 329.839 127.827 330.716C127.827 331.593 127.104 332.315 126.227 332.315Z" fill="#E6E6E6"/>
<path d="M254.934 24.2969C254.934 37.7092 265.827 48.5938 279.25 48.5938C292.673 48.5938 303.566 37.7092 303.566 24.2969C303.566 10.8846 292.673 0 279.25 0C265.827 0 254.934 10.8846 254.934 24.2969Z" fill="#E0E0E0"/>
<path d="M258.547 24.2966C258.547 35.7486 267.84 44.9825 279.249 44.9825C290.659 44.9825 299.952 35.7486 299.952 24.2966C299.952 12.8961 290.659 3.66229 279.249 3.66229C267.84 3.66229 258.547 12.8961 258.547 24.2966Z" fill="#F0F0F0"/>
<path d="M280.23 10.1621V24.6061L289.781 19.1896" fill="#F0F0F0"/>
<path d="M280.23 10.1621V24.6061L289.781 19.1896" stroke="#E0E0E0" stroke-width="4" stroke-linecap="round" stroke-linejoin="round"/>
<path d="M46.5667 261.488C44.7081 258.445 41.6105 261.075 41.6105 261.075C42.0752 255.195 36.6544 251.223 36.6544 251.223C36.6544 251.223 42.9528 251.223 43.8305 245.239C44.7081 239.255 41.6105 242.04 38.7711 241.989C35.88 241.937 32.8856 250.346 36.6544 255.04C40.4747 259.786 39.4422 267.833 30.7173 275.571C28.549 277.428 27.1034 279.956 26.1225 282.69C26.7937 275.571 27.155 265.563 25.09 258.857C21.5277 247.508 28.2908 244.465 30.2526 238.739C32.2145 233.064 25.09 228.267 25.09 228.267C25.09 228.267 31.8014 225.223 28.4973 221.715C25.2448 218.208 18.4301 218.723 18.4301 223.263C18.4301 227.854 23.0249 229.608 23.0249 229.608C23.0249 229.608 28.2908 235.025 28.2908 237.862C28.2908 240.751 23.0249 246.838 23.0249 246.838C23.0249 246.838 25.4514 241.628 20.6501 241.37C15.8488 241.163 14.3 247.508 16.2618 250.346C18.2236 253.183 21.5277 250.758 21.5277 250.758C21.5277 250.758 21.8891 256.897 23.0249 260.611C23.4895 262.262 23.283 268.658 22.87 275.313C21.8891 272.889 20.5468 270.722 18.585 269.02C9.86007 261.282 8.82754 253.234 12.6479 248.488C16.4167 243.794 13.4223 235.386 10.5312 235.437C7.69175 235.489 4.59415 232.703 5.4718 238.687C6.34946 244.671 12.6479 244.671 12.6479 244.671C12.6479 244.671 7.22711 248.643 7.69175 254.524C7.69175 254.524 4.59414 251.842 2.73558 254.937C-0.568532 260.405 7.12386 263.758 8.41453 261.075C8.41453 261.075 24.7286 272.631 20.8049 289.241L21.6826 290.582C21.5793 291.924 21.5277 292.697 21.5277 292.697L22.7668 292.182L24.2639 294.297C24.1607 298.475 24.6253 301.519 24.6253 301.519L28.4973 295.793C24.5737 279.182 40.8878 267.627 40.8878 267.627C42.1784 270.309 49.8708 266.956 46.5667 261.488Z" fill="#E0E0E0"/>
<path opacity="0.2" d="M46.5667 261.488C44.7081 258.445 41.6105 261.075 41.6105 261.075C42.0752 255.195 36.6544 251.223 36.6544 251.223C36.6544 251.223 42.9528 251.223 43.8305 245.239C44.7081 239.255 41.6105 242.04 38.7711 241.989C35.88 241.937 32.8856 250.346 36.6544 255.04C40.4747 259.786 39.4422 267.833 30.7173 275.571C28.549 277.428 27.1034 279.956 26.1225 282.69C26.7937 275.571 27.155 265.563 25.09 258.857C21.5277 247.508 28.2908 244.465 30.2526 238.739C32.2145 233.064 25.09 228.267 25.09 228.267C25.09 228.267 31.8014 225.223 28.4973 221.715C25.2448 218.208 18.4301 218.723 18.4301 223.263C18.4301 227.854 23.0249 229.608 23.0249 229.608C23.0249 229.608 28.2908 235.025 28.2908 237.862C28.2908 240.751 23.0249 246.838 23.0249 246.838C23.0249 246.838 25.4514 241.628 20.6501 241.37C15.8488 241.163 14.3 247.508 16.2618 250.346C18.2236 253.183 21.5277 250.758 21.5277 250.758C21.5277 250.758 21.8891 256.897 23.0249 260.611C23.4895 262.262 23.283 268.658 22.87 275.313C21.8891 272.889 20.5468 270.722 18.585 269.02C9.86007 261.282 8.82754 253.234 12.6479 248.488C16.4167 243.794 13.4223 235.386 10.5312 235.437C7.69175 235.489 4.59415 232.703 5.4718 238.687C6.34946 244.671 12.6479 244.671 12.6479 244.671C12.6479 244.671 7.22711 248.643 7.69175 254.524C7.69175 254.524 4.59414 251.842 2.73558 254.937C-0.568532 260.405 7.12386 263.758 8.41453 261.075C8.41453 261.075 24.7286 272.631 20.8049 289.241L21.6826 290.582C21.5793 291.924 21.5277 292.697 21.5277 292.697L22.7668 292.182L24.2639 294.297C24.1607 298.475 24.6253 301.519 24.6253 301.519L28.4973 295.793C24.5737 279.182 40.8878 267.627 40.8878 267.627C42.1784 270.309 49.8708 266.956 46.5667 261.488Z" fill="#E0E0E0"/>
<path d="M43.3656 332.315H5.98783L1.96094 291.459H47.3925L43.3656 332.315Z" fill="#E6E6E6"/>
<path d="M49.4068 295.947H0V286.92H49.4068V295.947Z" fill="#F0F0F0"/>
<path d="M404.808 367.341C404.808 373.789 315.184 378.999 204.599 378.999C94.0147 378.999 4.39062 373.789 4.39062 367.341C4.39062 360.893 94.0147 355.631 204.599 355.631C315.184 355.631 404.808 360.893 404.808 367.341Z" fill="#F5F5F5"/>
<path d="M370.268 334.792C370.423 333.761 374.036 308.845 366.809 300.23C365.208 298.321 363.195 297.341 360.768 297.289C346.158 296.928 344.196 308.69 344.145 308.793L345.9 309.051C345.951 308.638 347.655 298.682 360.768 299.043C362.627 299.043 364.176 299.817 365.466 301.365C372.178 309.36 368.564 334.276 368.564 334.534L370.268 334.792Z" fill="#096A56"/>
<path d="M371.143 333.657L372.898 333.606C372.898 333.399 372.33 310.65 383.533 305.956C394.478 301.364 399.434 310.805 399.641 311.217L401.19 310.444C401.138 310.34 395.356 299.146 382.862 304.356C370.523 309.515 371.091 332.677 371.143 333.657Z" fill="#096A56"/>
<path d="M371.091 335.462C371.091 335.101 371.195 299.146 378.216 288.622C384.927 278.563 395.82 283.309 396.285 283.515L397.008 281.916C396.853 281.865 384.308 276.345 376.77 287.694C369.439 298.63 369.336 333.966 369.336 335.462H371.091Z" fill="#096A56"/>
<path d="M358.704 298.165C358.704 298.165 365.054 300.487 363.195 306.058C361.285 311.578 341.099 320.708 341.099 320.708C341.099 320.708 332.632 312.97 340.428 300.383C348.172 287.797 358.497 294.193 358.704 298.165Z" fill="#003C2F"/>
<path d="M378.526 286.765C378.526 286.765 373.983 286.249 374.345 283.515C374.706 280.729 392.001 273.662 402.172 285.114C402.172 285.114 395.615 296.308 386.219 296.463C376.823 296.618 378.526 286.765 378.526 286.765Z" fill="#003C2F"/>
<path d="M383.175 305.182C383.175 305.182 380.078 302.654 383.433 301.416C386.789 300.178 403.361 300.539 403.516 316.892C403.516 316.892 384.259 320.142 381.885 313.9C379.458 307.658 383.175 305.182 383.175 305.182Z" fill="#003C2F"/>
<path d="M355.244 368.168H385.187L388.44 335.463H352.043L355.244 368.168Z" fill="#003C2F"/>
<path d="M350.441 339.074H389.987V331.852H350.441V339.074Z" fill="#096A56"/>
<path d="M321.376 344.748L291.639 341.808V300.023H279.868V341.808L249.976 344.748C247.033 345.006 244.762 347.534 244.762 350.474V354.962H284.618H286.786H326.642V350.474C326.642 347.534 324.37 345.006 321.376 344.748Z" fill="#263238"/>
<path opacity="0.2" d="M321.376 344.748L291.639 341.808V300.023H279.868V341.808L249.976 344.748C247.033 345.006 244.762 347.534 244.762 350.474V354.962H284.618H286.786H326.642V350.474C326.642 347.534 324.37 345.006 321.376 344.748Z" fill="white"/>
<path d="M255.604 360.481C255.604 364.763 252.145 368.167 247.911 368.167C243.678 368.167 240.219 364.763 240.219 360.481C240.219 356.251 243.678 352.795 247.911 352.795C252.145 352.795 255.604 356.251 255.604 360.481Z" fill="#263238"/>
<path d="M315.75 360.481C315.75 364.763 319.209 368.167 323.494 368.167C327.727 368.167 331.186 364.763 331.186 360.481C331.186 356.251 327.727 352.795 323.494 352.795C319.209 352.795 315.75 356.251 315.75 360.481Z" fill="#263238"/>
<path d="M289.42 308.998H282.089C279.766 308.998 277.855 307.089 277.855 304.768V271.805H293.705V304.768C293.705 307.089 291.795 308.998 289.42 308.998Z" fill="#263238"/>
<path opacity="0.3" d="M289.42 308.998H282.089C279.766 308.998 277.855 307.089 277.855 304.768V271.805H293.705V304.768C293.705 307.089 291.795 308.998 289.42 308.998Z" fill="white"/>
<path d="M313.94 206.498C313.94 206.498 316.212 262.211 300.672 271.806H318.38C318.38 271.806 332.113 252.822 328.241 206.498H313.94Z" fill="#263238"/>
<path opacity="0.3" d="M313.94 206.498C313.94 206.498 316.212 262.211 300.672 271.806H318.38C318.38 271.806 332.113 252.822 328.241 206.498H313.94Z" fill="white"/>
<path d="M250.182 264.016H319.259C322.098 264.016 324.421 266.337 324.421 269.174V276.087H245.02V269.174C245.02 266.337 247.291 264.016 250.182 264.016Z" fill="#263238"/>
<path d="M243.78 270.051H325.66C326.796 270.051 327.725 270.979 327.725 272.114V273.971C327.725 275.158 326.796 276.086 325.66 276.086H243.78C242.644 276.086 241.715 275.158 241.715 273.971V272.114C241.715 270.979 242.644 270.051 243.78 270.051Z" fill="#263238"/>
<path opacity="0.6" d="M243.78 270.051H325.66C326.796 270.051 327.725 270.979 327.725 272.114V273.971C327.725 275.158 326.796 276.086 325.66 276.086H243.78C242.644 276.086 241.715 275.158 241.715 273.971V272.114C241.715 270.979 242.644 270.051 243.78 270.051Z" fill="white"/>
<path d="M332.578 217.794H304.184C295.872 217.794 289.16 211.088 289.16 202.783V191.692C289.16 183.387 295.872 176.629 304.184 176.629H332.578C340.89 176.629 347.653 183.387 347.653 191.692V202.783C347.653 211.088 340.89 217.794 332.578 217.794Z" fill="#263238"/>
<path d="M218.071 131.131L212.392 116.172C212.392 116.172 214.819 113.953 213.167 111.632C211.514 109.362 201.034 102.966 199.124 104.101C197.214 105.235 192.98 109.465 195.304 111.838C197.575 114.16 207.694 118.132 207.694 118.132L212.702 137.683L218.071 131.131Z" fill="#E4897B"/>
<path d="M257.67 159.502C257.67 159.502 231.856 154.189 229.068 152.951C226.281 151.661 215.904 121.277 215.904 121.277L207.953 124.992C207.953 124.992 214.355 155.479 220.911 162.752C227.468 169.974 255.398 176.113 255.398 176.113L257.67 159.502Z" fill="#003C2F"/>
<path opacity="0.2" d="M255.346 176.113C255.346 176.113 255.192 176.079 254.882 176.01C253.488 175.7 249.1 174.669 243.834 173.121C235.367 170.645 224.629 166.879 220.911 162.752C214.355 155.479 207.953 124.992 207.953 124.992L215.904 121.277C215.904 121.277 226.281 151.661 229.068 152.951C231.856 154.189 257.67 159.502 257.67 159.502L255.346 176.113Z" fill="#003C2F"/>
<path d="M216.008 120.711L217.66 123.858L207.438 127.365L207.851 123.497L216.008 120.711Z" fill="#096A56"/>
<path opacity="0.2" d="M255.552 175.701C254.158 175.495 249.666 174.772 244.297 173.689C247.343 168.427 256.274 165.693 256.274 165.693L255.552 175.701Z" fill="black"/>
<path d="M294.014 138.455C294.014 138.455 295.511 152.744 290.245 156.252C284.928 159.76 258.908 155.633 255.965 149.907C253.023 144.181 264.122 128.551 264.122 128.551L294.014 138.455Z" fill="#263238"/>
<path d="M188.695 326.229L195.458 327.879L198.917 318.491L202.015 309.979L194.323 306.678L191.328 316.995L188.695 326.229Z" fill="#E4897B"/>
<path opacity="0.2" d="M191.328 316.995L198.917 318.491L202.015 309.979L194.322 306.678L191.328 316.995Z" fill="black"/>
<path d="M192 312.094L201.448 315.55C201.448 315.55 226.538 252.822 231.701 252.615C236.864 252.357 289.42 276.5 302.636 263.139C315.801 249.727 296.751 217.486 296.751 217.486C296.751 217.486 265.052 212.946 262.677 220.116C262.212 221.509 261.696 224.192 261.335 226.513C260.973 228.731 260.715 230.537 260.715 230.537C259.734 230.279 227.881 222.077 215.387 230.537C202.635 239.152 192 312.094 192 312.094Z" fill="#096A56"/>
<path d="M246.157 353.001L252.92 351.247L251.629 341.549L250.442 332.676L242.078 333.398L244.246 343.767L246.157 353.001Z" fill="#E4897B"/>
<path opacity="0.2" d="M244.298 343.973L251.681 341.755L250.442 332.779L242.078 333.45L244.298 343.973Z" fill="black"/>
<path d="M205.32 312.094L191.587 307.451L191.02 313.022L201.396 316.737L205.32 312.094Z" fill="#096A56"/>
<path d="M279.87 266.337C279.87 266.337 277.702 266.389 244.454 264.841C244.454 264.841 249.462 306.368 252.147 337.474L242.234 339.125C242.234 339.125 218.486 272.579 218.744 262.004C219.002 251.429 231.135 248.334 231.135 248.334C231.135 248.334 254.78 262.004 279.87 266.337Z" fill="#003C2F"/>
<path d="M253.59 334.43L239.961 335.977L242.594 341.342L253.642 339.949L253.59 334.43Z" fill="#096A56"/>
<path opacity="0.1" d="M260.715 230.537L279.249 234.406C279.249 234.406 269.027 228.783 261.334 226.514C260.973 228.732 260.715 230.537 260.715 230.537Z" fill="black"/>
<path d="M295.975 212.584L296.749 217.485L262.675 220.115L261.746 214.286L295.975 212.584Z" fill="#263238"/>
<path opacity="0.2" d="M295.975 212.584L296.749 217.485L262.675 220.115L261.746 214.286L295.975 212.584Z" fill="black"/>
<path d="M285.237 220.786L286.889 220.632L286.011 212.068L284.359 212.223L285.237 220.786Z" fill="#407BFF"/>
<path d="M270.111 219.961L277.546 219.445L277.184 213.822L269.75 214.287L270.111 219.961Z" fill="white"/>
<path d="M264.331 221.716L265.983 221.561L265.105 212.998L263.453 213.153L264.331 221.716Z" fill="#407BFF"/>
<path opacity="0.6" d="M285.237 220.786L286.889 220.632L286.011 212.068L284.359 212.223L285.237 220.786Z" fill="white"/>
<path opacity="0.6" d="M264.331 221.716L265.983 221.561L265.105 212.998L263.453 213.153L264.331 221.716Z" fill="white"/>
<path d="M257.05 159.039C257.05 159.039 265.723 161.773 276.668 161.206C287.613 160.638 300.674 165.952 300.674 165.952L295.976 212.585L261.748 214.287C261.748 214.287 250.287 175.34 257.05 159.039Z" fill="#096A56"/>
<path d="M262.523 132.679C262.523 132.679 264.434 110.033 283.381 118.287C307.181 128.604 288.285 156.202 276.669 150.528C265.053 144.854 262.523 132.679 262.523 132.679Z" fill="#263238"/>
<path opacity="0.2" d="M267.84 162.443L268.408 175.237L272.641 169.253C272.641 169.253 271.092 183.387 272.022 191.073C272.022 191.073 272.796 177.248 274.758 169.253L279.249 175.237L285.703 162.546C285.703 162.546 275.222 158.781 267.84 162.443Z" fill="black"/>
<path d="M273.723 164.817L283.481 162.083C277.44 157.905 280.486 148.619 280.486 148.619L270.781 152.024C271.348 153.675 271.658 155.016 271.865 156.202C272.846 162.238 270.109 162.702 270.109 162.702L273.723 164.817Z" fill="#E4897B"/>
<path opacity="0.2" d="M270.781 152.024C271.349 153.675 271.659 155.016 271.865 156.202C276.512 154.345 280.487 148.619 280.487 148.619L270.781 152.024Z" fill="black"/>
<path d="M277.134 123.032C268.564 121.123 264.743 125.096 262.162 133.814C258.961 144.698 259.632 153.107 270.938 153.107C286.22 153.158 291.434 126.179 277.134 123.032Z" fill="#E4897B"/>
<path d="M267.839 134.588C267.839 134.588 266.135 136.548 264.535 137.58C264.535 137.58 265 138.921 266.6 139.076L267.839 134.588Z" fill="#DE5753"/>
<path d="M273.259 135.051C273.053 135.721 273.311 136.392 273.776 136.495C274.24 136.65 274.757 136.134 274.963 135.463C275.118 134.741 274.86 134.071 274.395 133.967C273.931 133.864 273.414 134.329 273.259 135.051Z" fill="#263238"/>
<path d="M274.605 134.072L273.211 133.092C273.211 133.092 273.676 134.537 274.605 134.072Z" fill="#263238"/>
<path d="M264.537 132.729C264.382 133.451 264.64 134.122 265.105 134.225C265.57 134.328 266.086 133.864 266.241 133.142C266.447 132.471 266.189 131.801 265.725 131.698C265.26 131.543 264.744 132.059 264.537 132.729Z" fill="#263238"/>
<path d="M265.878 131.75L264.535 130.77C264.535 130.77 264.948 132.266 265.878 131.75Z" fill="#263238"/>
<path d="M274.656 129.119C274.656 129.119 277.134 129.325 278.115 131.234" stroke="#263238" stroke-width="1.4" stroke-linecap="round" stroke-linejoin="round"/>
<path d="M268.461 127.365C268.461 127.365 267.067 126.487 264.898 127.313" stroke="#263238" stroke-width="1.4" stroke-linecap="round" stroke-linejoin="round"/>
<path d="M283.329 139.592C283.329 139.592 280.851 131.648 282.709 126.334C282.709 126.334 267.221 115.604 262.523 132.679C262.523 132.679 264.279 116.997 279.096 119.938C293.912 122.826 289.111 144.441 280.077 149.187C280.077 149.187 284.826 144.544 283.329 139.592Z" fill="#263238"/>
<path d="M281.521 141.087C281.882 139.695 283.844 137.683 286.322 138.56C288.955 139.437 289.007 145.163 282.089 145.008C281.108 145.008 280.746 143.925 281.521 141.087Z" fill="#E4897B"/>
<path d="M265.051 142.325C265.361 143.46 265.515 145.524 265.515 145.524C265.688 145.524 265.877 145.541 266.083 145.575C268.613 145.781 269.904 145.008 270.523 144.131C270.833 143.666 270.988 143.099 271.04 142.686C271.143 142.17 271.04 141.758 271.04 141.758C269.646 142.48 267.219 142.428 265.928 142.377C265.412 142.377 265.051 142.325 265.051 142.325Z" fill="#263238"/>
<path d="M265.93 142.377L266.085 143.306C268.511 143.512 270.215 143.357 271.041 142.687C271.144 142.171 271.041 141.758 271.041 141.758C269.647 142.48 267.22 142.429 265.93 142.377Z" fill="white"/>
<path d="M266.086 145.576C268.616 145.782 269.906 145.008 270.526 144.131C269.648 144.079 268.564 144.131 267.635 144.44C266.912 144.698 266.396 145.111 266.086 145.576Z" fill="#DE5753"/>
<path d="M277.183 123.703C277.183 123.703 277.493 138.611 286.424 140.417C295.407 142.171 285.598 121.279 285.598 121.279C285.598 121.279 272.278 112.561 263.399 118.699C254.519 124.838 262.521 132.679 262.521 132.679C262.521 132.679 264.38 121.64 277.183 123.703Z" fill="#263238"/>
<path d="M277.493 122.723C277.493 122.723 274.292 132.163 280.591 137.115" stroke="#263238" stroke-linecap="round" stroke-linejoin="round"/>
<path d="M289.058 143.461C287.922 146.504 284.979 148.207 282.553 147.278C280.075 146.35 278.991 143.151 280.127 140.108C281.262 137.064 284.205 135.362 286.632 136.29C289.11 137.219 290.194 140.417 289.058 143.461Z" fill="#096A56"/>
<path opacity="0.4" d="M289.058 143.461C287.922 146.504 284.979 148.207 282.553 147.278C280.075 146.35 278.991 143.151 280.127 140.108C281.262 137.064 284.205 135.362 286.632 136.29C289.11 137.219 290.194 140.417 289.058 143.461Z" fill="black"/>
<path d="M286.22 138.506C286.22 138.506 289.937 121.896 281.625 117.562C281.625 117.562 283.329 117.82 284.413 118.13C285.497 118.439 292.105 125.146 288.749 140.054L286.22 138.506Z" fill="#096A56"/>
<path opacity="0.2" d="M286.22 138.506C286.22 138.506 289.937 121.896 281.625 117.562C281.625 117.562 283.329 117.82 284.413 118.13C285.497 118.439 292.105 125.146 288.749 140.054L286.22 138.506Z" fill="#096A56"/>
<path d="M270.627 148.001C270.421 147.966 270.214 147.932 270.008 147.897L270.163 146.866C277.649 148.104 283.224 144.132 283.276 144.08L283.895 144.905C283.637 145.112 278.216 148.981 270.627 148.001Z" fill="#096A56"/>
<path d="M288.697 143.048C287.974 145.06 286.012 146.194 284.411 145.575C282.759 144.956 282.037 142.841 282.811 140.83C283.534 138.818 285.496 137.683 287.096 138.302C288.748 138.921 289.471 141.036 288.697 143.048Z" fill="#096A56"/>
<path d="M269.698 148.308L268.872 148.205C268.252 148.154 267.839 147.586 267.891 146.967C267.994 146.348 268.562 145.884 269.181 145.987L270.007 146.09C270.627 146.193 271.04 146.761 270.988 147.38C270.885 147.947 270.317 148.412 269.698 148.308Z" fill="#096A56"/>
<path opacity="0.4" d="M269.698 148.308L268.872 148.205C268.252 148.154 267.839 147.586 267.891 146.967C267.994 146.348 268.562 145.884 269.181 145.987L270.007 146.09C270.627 146.193 271.04 146.761 270.988 147.38C270.885 147.947 270.317 148.412 269.698 148.308Z" fill="black"/>
<path d="M280.85 158.523L274.758 164.559L277.184 171.935L285.703 162.547L280.85 158.523Z" fill="#096A56"/>
<path d="M272.022 159.762L273.003 164.404L269.802 170.956L267.84 162.444L272.022 159.762Z" fill="#096A56"/>
<path d="M279.559 163.734L283.121 150.734C283.121 150.734 281.417 147.484 281.779 146.814C282.14 146.092 283.999 137.374 285.341 136.393C286.631 135.465 292.104 137.064 292.62 137.993C293.188 138.87 287.406 150.734 287.406 150.734L285.341 164.817L279.559 163.734Z" fill="#E4897B"/>
<path d="M300.675 165.952C310.484 175.959 290.814 198.657 279.56 197.728C268.305 196.748 279.869 155.531 279.869 155.531L287.046 156.718C287.046 156.718 284.516 174.566 285.342 175.959C286.116 177.352 297.371 162.547 300.675 165.952Z" fill="#003C2F"/>
<path opacity="0.2" d="M300.675 165.952C310.484 175.959 290.814 198.657 279.56 197.728C268.305 196.748 279.869 155.531 279.869 155.531L287.046 156.718C287.046 156.718 284.516 174.566 285.342 175.959C286.116 177.352 297.371 162.547 300.675 165.952Z" fill="#003C2F"/>
<path d="M279.248 154.242L278.164 157.647L288.231 158.524V155.532L279.248 154.242Z" fill="#096A56"/>
<path opacity="0.6" d="M264.018 190.455H259.939C259.526 190.455 259.113 190.094 259.113 189.682V181.995C259.113 181.531 259.526 181.17 259.939 181.17H264.018C264.482 181.17 264.844 181.531 264.844 181.995V189.682C264.844 190.094 264.482 190.455 264.018 190.455Z" fill="white"/>
<path opacity="0.2" d="M264.123 188.134H259.477V181.789H264.123V188.134Z" fill="black"/>
<path d="M261.387 178.951V182.665H262.42V178.951H261.387Z" fill="#263238"/>
<path d="M177.44 339.382C178.473 338.918 179.609 338.66 180.744 338.557C180.744 338.557 184.668 336.287 188.54 327.311L192.877 327.26C194.426 327.311 195.768 328.24 196.284 329.684C196.353 329.891 196.387 330.097 196.387 330.303C196.353 331.335 196.233 332.384 196.026 333.45C195.665 336.7 193.496 343.716 193.496 343.716L192.774 343.509L194.116 337.009C194.529 334.791 192.206 336.906 191.121 339.176C190.037 341.394 188.385 343.664 183.584 342.529C177.957 341.24 175.685 340.414 177.44 339.382Z" fill="#096A56"/>
<path d="M189.316 324.938C189.316 324.938 183.844 336.39 180.746 338.556C180.746 338.556 184.928 341.084 189.316 335.513C194.995 328.291 196.389 330.303 196.389 330.303C196.389 330.303 196.131 327.826 195.718 326.588C194.84 324.267 189.316 324.938 189.316 324.938Z" fill="#E4897B"/>
<path d="M237.586 366.569C238.464 365.898 239.445 365.331 240.529 365.021C240.529 365.021 243.833 361.823 245.433 352.228L249.718 351.145C251.164 350.784 252.713 351.403 253.539 352.692C253.642 352.864 253.728 353.053 253.797 353.26C254.003 354.292 254.141 355.34 254.21 356.407C254.623 359.656 254.158 366.982 254.158 366.982H253.384L253.177 360.327C253.074 358.057 251.319 360.688 250.802 363.113C250.286 365.537 249.202 368.116 244.246 368.168C238.464 368.22 236.089 368.013 237.586 366.569Z" fill="#096A56"/>
<path d="M245.69 349.752C245.69 349.752 243.057 362.132 240.527 365.021C240.527 365.021 245.225 366.465 248.168 359.966C251.989 351.609 253.795 353.259 253.795 353.259C253.795 353.259 252.969 350.886 252.247 349.855C250.853 347.791 245.69 349.752 245.69 349.752Z" fill="#E4897B"/>
<path d="M341.664 125.87H305.628C302.737 125.87 300.414 123.548 300.414 120.66V105.236C300.414 102.347 302.737 100.025 305.628 100.025H341.664C344.555 100.025 346.93 102.347 346.93 105.236V120.66C346.93 123.548 344.555 125.87 341.664 125.87Z" fill="#096A56"/>
<path d="M312.857 122.928L302.016 137.681L319.517 123.908L312.857 122.928Z" fill="#096A56"/>
<path d="M313.273 112.973C313.273 113.799 312.601 114.469 311.724 114.469C310.898 114.469 310.227 113.799 310.227 112.973C310.227 112.096 310.898 111.426 311.724 111.426C312.601 111.426 313.273 112.096 313.273 112.973Z" fill="white"/>
<path d="M321.222 112.973C321.222 113.799 320.499 114.469 319.673 114.469C318.847 114.469 318.176 113.799 318.176 112.973C318.176 112.096 318.847 111.426 319.673 111.426C320.499 111.426 321.222 112.096 321.222 112.973Z" fill="white"/>
<path d="M329.12 112.973C329.12 113.799 328.449 114.469 327.623 114.469C326.797 114.469 326.074 113.799 326.074 112.973C326.074 112.096 326.797 111.426 327.623 111.426C328.449 111.426 329.12 112.096 329.12 112.973Z" fill="white"/>
<path d="M337.069 112.973C337.069 113.799 336.398 114.469 335.572 114.469C334.695 114.469 334.023 113.799 334.023 112.973C334.023 112.096 334.695 111.426 335.572 111.426C336.398 111.426 337.069 112.096 337.069 112.973Z" fill="white"/>
<path d="M196.8 105.545L171.09 91.7196C170.368 91.3585 170.109 90.4815 170.471 89.7593L178.679 74.5415C179.041 73.8709 179.918 73.613 180.641 73.9741L206.351 87.7991C207.023 88.2117 207.281 89.0371 206.919 89.7593L198.711 104.977C198.349 105.648 197.472 105.906 196.8 105.545Z" fill="#096A56"/>
<path opacity="0.2" d="M178.008 75.8301L186.062 90.8415C186.681 91.9764 187.972 92.6986 189.262 92.5439L205.99 90.8931L188.953 93.4208C187.456 93.6272 185.958 92.8018 185.287 91.409L178.008 75.8301Z" fill="black"/>
<path d="M158.494 73.0451C158.752 67.2675 163.037 55.7123 168.2 52.2045C173.362 48.6451 169.955 53.5457 169.955 53.5457C169.955 53.5457 174.86 48.7998 177.441 48.903C180.022 49.0577 177.441 52.0497 177.441 52.0497C177.441 52.0497 182.759 48.7998 185.185 48.903C187.663 49.0577 185.185 51.895 185.185 51.895C185.185 51.895 189.573 48.7998 191.329 50.2958C193.084 51.7918 168.716 67.835 166.031 74.3348C163.295 80.8862 158.184 78.8227 158.494 73.0451Z" fill="#003C2F"/>
<path d="M179.404 72.168L182.656 74.283C182.914 74.4377 182.811 74.7988 182.501 74.7473L179.094 74.4893L179.404 77.1202C179.404 77.3781 179.042 77.5329 178.888 77.3265L176.926 75.1084L179.404 72.168Z" fill="#003C2F"/>
<path d="M133.715 59.271C133.715 59.271 138.258 56.1242 145.021 58.1877C145.021 58.1877 146.983 67.1636 152.352 70.1556C155.295 71.8063 162.471 71.6515 168.202 69.7945C174.965 67.6279 178.269 67.6279 179.508 70.1556C180.644 72.5285 179.353 75.3141 174.19 76.5522C169.028 77.7387 164.897 86.7146 155.501 86.8693C146.105 87.0241 141.201 77.5839 143.524 69.3302C143.524 69.3302 140.684 63.1399 133.715 59.271Z" fill="#096A56"/>
<path d="M176.926 71.8594C176.926 72.1176 176.719 72.3242 176.461 72.3242C176.203 72.3242 175.996 72.1176 175.996 71.8594C175.996 71.6011 176.203 71.3945 176.461 71.3945C176.719 71.3945 176.926 71.6011 176.926 71.8594Z" fill="#263238"/>
<path d="M153.33 79.39C147.805 80.8859 135.467 80.4217 130.51 76.6043C125.554 72.787 131.233 74.4893 131.233 74.4893C131.233 74.4893 125.193 71.3426 124.522 68.8149C123.851 66.3388 127.516 67.8348 127.516 67.8348C127.516 67.8348 122.766 63.8111 122.147 61.4381C121.527 59.0652 124.986 60.5096 124.986 60.5096C124.986 60.5096 120.65 57.3628 121.527 55.1962C122.405 53.0812 145.224 71.291 152.297 71.8584C159.37 72.4259 158.957 77.894 153.33 79.39Z" fill="#003C2F"/>
<path d="M116.986 53.9097C116.022 53.5652 115.041 53.2378 114.043 52.9277" stroke="#003C2F" stroke-width="1.5" stroke-linecap="round" stroke-linejoin="round"/>
<path d="M108.003 51.4313C104.389 50.6576 100.724 50.1417 97.0581 49.8838C87.0425 49.2132 71.2963 48.233 65.1527 58.1891C59.5254 67.3198 69.1796 82.8471 72.587 91.3071C76.7688 101.676 81.7766 114.469 76.8204 125.457C66.6499 148 23.0769 136.29 8.36328 115.552" stroke="#003C2F" stroke-width="1.5" stroke-linecap="round" stroke-linejoin="round" stroke-dasharray="12.06 12.06"/>
<path d="M6.71095 112.922C6.19445 111.994 5.7296 111.065 5.31641 110.137" stroke="#003C2F" stroke-width="1.5" stroke-linecap="round" stroke-linejoin="round"/>
<path d="M132.114 202.887H92.9297V194.84H132.114V202.887Z" fill="white"/>
<path opacity="0.1" d="M132.114 202.887H92.9297V194.84H132.114V202.887Z" fill="black"/>
<path opacity="0.1" d="M109.45 202.887H92.9297V194.84H109.45V202.887Z" fill="black"/>
<path opacity="0.1" d="M92.9297 195.975H127.829L92.9297 196.957V195.975Z" fill="black"/>
<path opacity="0.1" d="M132.113 197.367L101.859 198.142H132.113V197.367Z" fill="black"/>
<path opacity="0.1" d="M94.5273 199.637L109.447 199.018L131.337 199.637L109.447 199.947L94.5273 199.637Z" fill="black"/>
<path opacity="0.1" d="M92.9297 201.34H118.743L92.9297 201.96V201.34Z" fill="black"/>
<path opacity="0.1" d="M132.06 201.957L114.816 202.267H132.111L132.06 201.957Z" fill="black"/>
<path d="M126.693 194.838H87.457V186.791H126.693V194.838Z" fill="white"/>
<path opacity="0.1" d="M126.693 194.838H87.457V186.791H126.693V194.838Z" fill="black"/>
<path opacity="0.1" d="M103.978 194.838H87.457V186.791H103.978V194.838Z" fill="black"/>
<path opacity="0.1" d="M87.457 187.979H122.357L87.457 188.961V187.979Z" fill="black"/>
<path opacity="0.1" d="M126.691 189.371L96.4375 190.094H126.691V189.371Z" fill="black"/>
<path opacity="0.1" d="M89.0547 191.591L103.975 190.971L125.916 191.591L103.975 191.953L89.0547 191.591Z" fill="black"/>
<path opacity="0.1" d="M87.457 193.291H113.322L87.457 193.911V193.291Z" fill="black"/>
<path opacity="0.1" d="M126.587 193.91L109.344 194.22H126.69L126.587 193.91Z" fill="black"/>
<path d="M131.13 186.793H91.9453V178.746H131.13V186.793Z" fill="white"/>
<path opacity="0.1" d="M131.13 186.793H91.9453V178.746H131.13V186.793Z" fill="black"/>
<path opacity="0.1" d="M108.466 186.793H91.9453V178.746H108.466V186.793Z" fill="black"/>
<path opacity="0.1" d="M91.9453 179.932H126.845L91.9453 180.914V179.932Z" fill="black"/>
<path opacity="0.1" d="M131.132 181.324L100.879 182.047H131.132V181.324Z" fill="black"/>
<path opacity="0.1" d="M93.5469 183.543L108.467 182.975L130.357 183.543L108.467 183.904L93.5469 183.543Z" fill="black"/>
<path opacity="0.1" d="M91.9453 185.244H117.759L91.9453 185.864V185.244Z" fill="black"/>
<path opacity="0.1" d="M131.079 185.863L113.836 186.173H131.131L131.079 185.863Z" fill="black"/>
<path d="M157.254 202.681L158.286 198.863H200.156L219.413 200.772L220.135 202.681H157.254Z" fill="#263238"/>
<path opacity="0.4" d="M200.156 198.863V202.681H157.254L158.286 198.863H200.156Z" fill="black"/>
<path d="M191.743 180.448C191.897 182.459 190.452 184.11 188.387 184.11H124.266C122.253 184.11 120.446 182.459 120.24 180.448L116.419 139.385C116.385 138.973 116.419 138.577 116.522 138.199C116.884 136.754 118.174 135.723 119.775 135.723H183.895C185.96 135.723 187.716 137.373 187.922 139.385L191.743 180.448Z" fill="#263238"/>
<path opacity="0.4" d="M188.18 184.109H124.266C122.253 184.109 120.446 182.458 120.24 180.446L116.419 139.384C116.385 138.971 116.419 138.576 116.522 138.197H180.436C182.45 138.197 184.257 139.848 184.463 141.86L188.284 182.922C188.318 183.335 188.284 183.73 188.18 184.109Z" fill="black"/>
<path d="M144.092 158.936H157.36L153.849 196.903L174.81 200.049V202.68H130.617V200.049L139.703 196.903L144.092 158.936Z" fill="#263238"/>
<path opacity="0.1" d="M157.359 158.936L147.55 202.113L139.703 201.855L144.091 158.936H157.359Z" fill="white"/>
<path d="M157.305 368.167H151.006L139.648 210.057H148.012L157.305 368.167Z" fill="#263238"/>
<path opacity="0.4" d="M157.305 368.167H151.006L140.165 217.949L139.648 210.314H148.012L148.477 217.949L157.305 368.167Z" fill="white"/>
<path opacity="0.2" d="M148.477 217.536H140.165L139.648 210.314H148.012L148.477 217.536Z" fill="black"/>
<path d="M203.718 368.167H197.419L196.387 210.057H204.75L203.718 368.167Z" fill="#263238"/>
<path opacity="0.5" d="M204.802 210.314L204.595 235.849L203.769 368.167H197.419L196.542 235.849L196.387 210.314H204.802Z" fill="white"/>
<path opacity="0.2" d="M204.802 210.314L204.595 236.107H196.542L196.387 210.314H204.802Z" fill="black"/>
<path d="M270.887 368.167H264.588L253.23 210.057H261.594L270.887 368.167Z" fill="#263238"/>
<path opacity="0.5" d="M270.887 368.167H264.588L253.747 217.949L253.23 210.314H261.594L262.059 217.949L270.887 368.167Z" fill="white"/>
<path opacity="0.2" d="M262.059 217.536H253.747L253.23 210.314H261.594L262.059 217.536Z" fill="black"/>
<path d="M84.979 368.167H78.6289L87.9217 210.057H96.3369L84.979 368.167Z" fill="#263238"/>
<path opacity="0.5" d="M96.3369 210.314L95.769 217.949L84.979 368.167H78.6289L87.4571 217.949L87.9217 210.314H96.3369Z" fill="white"/>
<path opacity="0.2" d="M87.9217 210.314H96.3368L95.7689 217.536H87.457L87.9217 210.314Z" fill="black"/>
<path d="M266.03 214.029H83.5294C82.2903 214.029 81.2578 213.049 81.2578 211.811V206.137H268.25V211.811C268.25 213.049 267.269 214.029 266.03 214.029Z" fill="#353F4E"/>
<path opacity="0.2" d="M268.25 210.057H81.2578V206.137H268.25V210.057Z" fill="black"/>
<path d="M272.177 207.168H77.3371C76.1497 207.168 75.1172 206.136 75.1172 204.949C75.1172 203.711 76.1497 202.68 77.3371 202.68H272.177C273.416 202.68 274.397 203.711 274.397 204.949C274.397 206.136 273.416 207.168 272.177 207.168Z" fill="#353F4E"/>
<path d="M226.074 195.818L228.501 192.207C228.965 191.537 229.74 191.072 230.617 191.072H233.663C233.904 191.072 234.145 191.107 234.386 191.175L245.228 194.477C245.847 194.683 246.364 195.096 246.725 195.612L248.274 198.243L226.074 195.818Z" fill="#003C2F"/>
<path opacity="0.2" d="M248.274 198.243L232.476 196.54L226.074 195.818L228.501 192.207C228.965 191.537 229.74 191.072 230.617 191.072H233.663C233.904 191.072 234.162 191.107 234.438 191.175L234.644 191.279L245.228 194.477C245.847 194.683 246.364 195.044 246.725 195.612L248.274 198.243Z" fill="#096A56"/>
<path opacity="0.2" d="M248.274 198.243L232.477 196.541L234.645 191.279L245.228 194.478C245.848 194.684 246.364 195.045 246.726 195.612L248.274 198.243Z" fill="black"/>
<path d="M255.759 202.37V202.68H242.026H222.305L223.544 197.831C224.008 196.025 225.66 194.787 227.519 194.787H242.388C242.869 194.787 243.351 194.873 243.833 195.045L245.692 195.716L253.074 198.45C254.675 199.069 255.759 200.616 255.759 202.37Z" fill="#096A56"/>
<path opacity="0.2" d="M255.76 202.37V202.68H242.027L242.75 197.47C242.957 196.077 244.402 195.252 245.693 195.716L253.075 198.45C254.676 199.069 255.76 200.617 255.76 202.37Z" fill="black"/>
<path d="M244.141 199.12L248.529 186.017C248.735 185.45 249.355 185.192 249.871 185.45C250.284 185.656 250.491 186.12 250.387 186.585L246.722 200.564C246.722 200.564 244.244 201.545 244.141 199.12Z" fill="#263238"/>
<path opacity="0.2" d="M226.074 201.599H224.164L224.525 199.689H226.436L226.074 201.599Z" fill="black"/>
<path opacity="0.2" d="M228.965 201.546H227.055L227.416 199.637H229.326L228.965 201.546Z" fill="black"/>
</svg>
