<svg width="413" height="374" viewBox="0 0 413 374" fill="none" xmlns="http://www.w3.org/2000/svg">
<path d="M268.763 33.2905C294.893 70.8768 256.963 67.9553 321.417 55.9883C390.816 43.1787 409.697 94.2489 396.547 156.275C384.353 213.75 331.7 201.502 358.392 256.393C402.785 347.69 359.684 376.68 240.104 372.635C184.192 370.725 141.99 375.613 106.364 366.792C75.2886 359.095 42.8649 342.128 33.7054 319.093C16.2854 275.214 37.9199 263.865 51.5749 234.537C65.23 205.266 53.9351 204.817 41.1229 161.781C13.0823 67.3935 109.735 75.7647 128.673 48.9655C177.954 -20.7575 241.004 -6.65555 268.763 33.2905Z" fill="#F5F8FF"/>
<path d="M272.303 292.688C272.303 293.418 271.741 293.98 271.066 293.98H147.272C138.056 293.98 130.639 287.856 130.639 280.271V275.777C130.639 268.192 138.056 262.012 147.272 262.012H271.066C271.741 262.012 272.303 262.63 272.303 263.304V263.529C272.303 264.259 271.741 264.821 271.066 264.821L269.437 264.877L269.324 291.395H271.066C271.741 291.395 272.303 292.013 272.303 292.688Z" fill="#E1ECFA"/>
<path d="M186.439 264.764L269.437 264.876L269.325 291.394H185.596C181.269 291.394 177.785 287.911 177.785 283.641V273.416C177.785 268.64 181.663 264.764 186.439 264.764Z" fill="#E1ECFA"/>
<path d="M156.713 278.865V277.179C156.713 276.112 157.556 275.213 158.623 275.213H169.806C170.874 275.213 171.773 276.112 171.773 277.179V278.865C171.773 279.932 170.874 280.775 169.806 280.775H158.623C157.556 280.775 156.713 279.932 156.713 278.865Z" fill="#E1ECFA"/>
<path d="M276.404 324.879C276.404 325.609 275.842 326.171 275.111 326.171H151.317C142.157 326.171 134.684 320.047 134.684 312.463V307.968C134.684 300.383 142.157 294.203 151.317 294.203H275.111C275.842 294.203 276.404 294.821 276.404 295.495V295.72C276.404 296.45 275.842 297.012 275.111 297.012L273.482 297.068L273.426 323.587H275.111C275.842 323.587 276.404 324.205 276.404 324.879Z" fill="#E1ECFA"/>
<path d="M190.486 296.957L273.484 297.069L273.428 323.588H189.643C185.316 323.588 181.832 320.104 181.832 315.834V305.609C181.832 300.834 185.709 296.957 190.486 296.957Z" fill="#E1ECFA"/>
<path d="M160.758 311.058V309.373C160.758 308.305 161.657 307.406 162.725 307.406H173.851C174.919 307.406 175.818 308.305 175.818 309.373V311.058C175.818 312.126 174.919 312.968 173.851 312.968H162.725C161.657 312.968 160.758 312.126 160.758 311.058Z" fill="#E1ECFA"/>
<path d="M320.068 370.332C320.068 371.399 319.225 372.242 318.157 372.242H137.326C123.896 372.242 113.051 363.253 113.051 352.129V345.612C113.051 334.487 123.896 325.498 137.326 325.498H318.157C319.225 325.498 320.068 326.341 320.068 327.408V327.745C320.068 328.757 319.225 329.599 318.214 329.656H315.853L315.685 368.478H318.157C319.225 368.478 320.068 369.321 320.068 370.332Z" fill="#E1ECFA"/>
<path d="M193.744 329.486L315.852 329.655L315.684 368.477H194.362C187.506 368.477 181.887 362.915 181.887 356.005V341.341C181.887 334.768 187.225 329.486 193.744 329.486Z" fill="#E1ECFA"/>
<path d="M163.343 361.343H160.87C159.297 361.343 158.061 360.106 158.061 358.533V342.24C158.061 340.667 159.297 339.375 160.87 339.375H163.343C164.916 339.375 166.152 340.667 166.152 342.24V358.533C166.152 360.106 164.916 361.343 163.343 361.343Z" fill="#E1ECFA"/>
<path d="M150.868 361.454H148.452C146.878 361.454 145.586 360.218 145.586 358.589V342.295C145.586 340.722 146.878 339.486 148.452 339.486H150.868C152.442 339.486 153.734 340.722 153.734 342.295V358.589C153.734 360.218 152.442 361.454 150.868 361.454Z" fill="#E1ECFA"/>
<path d="M332.431 371.399L205.602 331.059C198.184 328.7 194.026 320.722 196.442 313.306L252.074 138.352C254.434 130.936 262.413 126.778 269.831 129.138L309.335 141.723L332.768 153.915L347.378 153.802L396.66 169.477C404.134 171.893 408.236 179.815 405.876 187.287L350.188 362.185C347.828 369.657 339.848 373.758 332.431 371.399Z" fill="#E1ECFA"/>
<path d="M332.261 358.589L213.131 320.666C208.748 319.261 206.331 314.542 207.68 310.16L259.041 148.746C260.446 144.364 265.166 141.948 269.549 143.353L388.68 181.22C393.119 182.625 395.535 187.344 394.13 191.726L342.769 353.14C341.365 357.522 336.644 359.938 332.261 358.589Z" fill="white"/>
<path fill-rule="evenodd" clip-rule="evenodd" d="M363.506 159.871L361.483 166.219C359.516 172.4 352.886 175.827 346.648 173.86L308.155 161.612C301.918 159.646 298.49 153.016 300.457 146.78L302.424 140.656C303.323 137.847 306.357 136.274 309.167 137.173L320.293 140.712C322.822 132.791 331.195 128.465 339.118 130.993C346.985 133.465 351.368 141.892 348.84 149.758L360.135 153.354C362.888 154.253 364.349 157.174 363.506 159.871ZM328.048 143.184C326.924 146.78 328.891 150.601 332.487 151.724C336.084 152.904 339.905 150.882 341.085 147.286C342.209 143.69 340.242 139.87 336.646 138.746C333.049 137.566 329.172 139.589 328.048 143.184Z" fill="#E1ECFA"/>
<path d="M371.373 206.221L269.269 173.747C267.752 173.241 266.909 171.612 267.415 170.095C267.864 168.578 269.494 167.792 271.011 168.241L373.115 200.715C374.632 201.22 375.475 202.85 374.969 204.367C374.52 205.827 372.89 206.67 371.373 206.221Z" fill="#E1ECFA"/>
<path d="M367.158 219.424L265.054 186.95C263.537 186.445 262.694 184.871 263.2 183.355C263.649 181.838 265.279 180.995 266.796 181.501L368.9 213.974C370.417 214.424 371.26 216.053 370.811 217.57C370.305 219.087 368.675 219.93 367.158 219.424Z" fill="#E1ECFA"/>
<path d="M362.943 232.683L260.839 200.153C259.322 199.704 258.479 198.075 258.985 196.558C259.491 195.041 261.064 194.198 262.581 194.704L364.685 227.177C366.202 227.683 367.045 229.256 366.596 230.773C366.09 232.29 364.46 233.133 362.943 232.683Z" fill="#E1ECFA"/>
<path d="M358.785 245.886L256.625 213.412C255.108 212.906 254.321 211.333 254.77 209.816C255.276 208.299 256.85 207.456 258.367 207.906L360.527 240.436C361.988 240.885 362.831 242.515 362.381 244.031C361.875 245.548 360.246 246.391 358.785 245.886Z" fill="#E1ECFA"/>
<path d="M354.569 259.09L252.409 226.616C250.948 226.167 250.105 224.537 250.555 223.021C251.06 221.504 252.69 220.661 254.151 221.167L356.311 253.64C357.828 254.146 358.615 255.719 358.165 257.236C357.66 258.753 356.086 259.596 354.569 259.09Z" fill="#E1ECFA"/>
<path d="M350.356 272.349L248.252 239.875C246.735 239.369 245.892 237.74 246.341 236.223C246.847 234.762 248.477 233.92 249.994 234.369L352.098 266.843C353.615 267.348 354.458 268.978 353.952 270.495C353.446 272.012 351.873 272.798 350.356 272.349Z" fill="#E1ECFA"/>
<path d="M346.143 285.551L244.039 253.077C242.522 252.628 241.679 250.998 242.129 249.481C242.634 247.965 244.264 247.122 245.781 247.627L347.885 280.101C349.402 280.551 350.245 282.18 349.739 283.697C349.29 285.214 347.66 286.057 346.143 285.551Z" fill="#E1ECFA"/>
<path d="M341.928 298.811L239.824 266.337C238.307 265.831 237.464 264.202 237.914 262.685C238.419 261.168 240.049 260.381 241.566 260.831L343.67 293.305C345.187 293.81 346.03 295.44 345.524 296.9C345.075 298.417 343.445 299.26 341.928 298.811Z" fill="#E1ECFA"/>
<path d="M337.769 311.788L235.666 279.314C234.148 278.808 233.305 277.179 233.811 275.718C234.261 274.201 235.89 273.359 237.407 273.808L339.511 306.282C341.029 306.788 341.871 308.417 341.422 309.934C340.916 311.451 339.286 312.237 337.769 311.788Z" fill="#E1ECFA"/>
<path d="M333.554 324.992L231.451 292.519C229.933 292.069 229.091 290.44 229.596 288.923C230.102 287.406 231.675 286.563 233.193 287.069L335.296 319.543C336.814 319.992 337.657 321.621 337.207 323.138C336.701 324.655 335.072 325.498 333.554 324.992Z" fill="#E1ECFA"/>
<path d="M329.396 338.252L227.236 305.778C225.719 305.273 224.932 303.643 225.382 302.126C225.887 300.609 227.461 299.823 228.978 300.272L331.138 332.746C332.599 333.252 333.442 334.881 332.992 336.398C332.487 337.859 330.857 338.701 329.396 338.252Z" fill="#E1ECFA"/>
<path d="M68.2644 371.793C68.2644 371.793 54.497 376.456 52.5864 366.119C51.4625 360.163 42.0782 365.164 39.3247 361.343C36.6274 357.466 39.4933 352.129 34.4359 349.882C29.4346 347.634 25.0515 343.814 27.2993 337.184C29.6032 330.499 22.0171 327.633 27.5802 323.026C33.1996 318.419 40.3924 325.386 42.1344 333.814C43.8764 342.185 52.3054 338.083 53.0921 346.286C53.8789 354.489 63.0384 351.23 63.8251 357.972C64.668 364.714 74.7829 363.534 68.2644 371.793Z" fill="#E1ECFA"/>
<path d="M59.61 361.173C59.61 361.173 59.5912 361.173 59.5538 361.173C59.4976 361.173 51.5743 360.668 47.3036 352.577C44.3815 347.071 42.7519 345.835 40.5042 344.094C39.4927 343.363 38.3126 342.521 36.964 341.172C32.4123 336.79 32.1875 329.486 32.1875 329.149C32.1875 329.037 32.2999 328.98 32.4123 328.98C32.5809 328.98 32.637 329.093 32.6932 329.205C32.6932 329.261 32.8618 336.621 37.2449 340.891C38.6498 342.183 39.7736 343.026 40.7289 343.813C42.9767 345.498 44.7749 346.79 47.6969 352.409C51.8553 360.218 59.4976 360.724 59.5538 360.724C59.6662 360.724 59.7786 360.836 59.7786 360.949C59.7786 361.061 59.7224 361.117 59.61 361.173Z" fill="#E1ECFA"/>
<path d="M362.492 372.072C362.492 372.072 377.046 375.443 378.17 364.375C378.844 357.97 387.948 362.69 390.252 358.42C392.556 354.206 389.521 348.7 394.073 346.003C398.625 343.307 402.446 338.981 399.917 332.07C397.388 325.16 404.3 321.62 398.793 317.069C393.23 312.518 386.992 320.384 385.925 329.373C384.801 338.419 376.653 334.598 376.484 343.307C376.26 352.071 365.583 349.037 365.246 356.229C364.908 363.42 355.917 363.701 362.492 372.072Z" fill="#E1ECFA"/>
<path d="M374.969 362.635C374.969 362.635 374.988 362.635 375.025 362.635C375.081 362.635 382.274 360.387 384.409 351.173C385.814 344.937 387.051 343.308 388.793 341.06C389.579 340.049 390.422 338.982 391.377 337.24C394.58 331.79 393.119 324.318 393.063 324.037C393.007 323.925 392.895 323.812 392.782 323.868C392.67 323.925 392.614 324.037 392.614 324.149C392.67 324.206 394.131 331.79 391.04 337.071C390.085 338.701 389.242 339.824 388.455 340.779C386.77 343.027 385.421 344.768 384.016 351.117C381.937 359.994 375.025 362.185 374.913 362.241C374.8 362.241 374.744 362.354 374.744 362.466C374.8 362.578 374.857 362.691 374.969 362.635Z" fill="#E1ECFA"/>
<path d="M76.5238 372.128C76.5238 372.128 58.4857 376.398 65.3413 360.218C67.87 354.206 56.2379 354.936 55.9008 350.161C55.5074 345.441 61.183 341.565 57.8114 337.351C54.3836 333.137 52.5854 327.688 58.3733 322.35C64.1612 317.013 58.8229 311.114 66.5776 309.091C74.3323 307.069 76.9734 316.676 73.8827 325.272C70.7359 333.924 80.7945 333.587 76.9172 341.677C73.0398 349.768 85.29 351.06 82.2556 357.745C79.2211 364.431 86.3015 373.814 76.5238 372.128Z" fill="#E1ECFA"/>
<path d="M69.3878 359.881C69.3316 359.824 63.0379 354.993 65.1732 345.779C66.6905 339.542 66.1847 337.576 65.4542 334.879C65.1732 333.643 64.8361 332.295 64.6113 330.385C63.937 324.148 68.9382 317.912 69.163 317.631C69.2192 317.519 69.3878 317.519 69.444 317.631C69.5564 317.687 69.5564 317.856 69.5002 317.912C69.444 317.968 64.3865 324.317 65.0609 330.328C65.2856 332.239 65.6228 333.531 65.9038 334.767C66.6343 337.408 67.14 339.486 65.6228 345.891C63.5436 354.768 69.6125 359.487 69.6687 359.487C69.7249 359.6 69.7811 359.712 69.6687 359.824C69.6125 359.937 69.5002 359.937 69.3878 359.881Z" fill="#E1ECFA"/>
<path d="M84.2228 209.48L102.542 209.255C105.633 153.241 149.632 106.384 207.174 101.384C270.224 95.8221 326.08 142.622 331.643 205.716C337.15 268.809 290.341 324.599 227.236 330.161C207.287 331.903 187.226 328.419 169.188 320.104C164.58 317.969 162.557 312.519 164.692 307.912C166.827 303.305 172.278 301.339 176.83 303.418C192.002 310.441 208.86 313.362 225.606 311.901C278.653 307.238 317.988 260.326 313.324 207.345C308.66 154.308 261.795 114.98 208.748 119.644C160.871 123.857 124.12 162.511 120.917 209.087L138.393 208.862C140.922 208.806 142.552 211.559 141.316 213.806L128.054 237.403L114.792 261C113.5 263.247 110.297 263.247 109.004 261.056L95.2368 237.796L81.4132 214.48C80.1207 212.289 81.6941 209.536 84.2228 209.48Z" fill="#096A56"/>
<path d="M278.989 337.015C278.989 337.521 278.54 337.97 277.978 337.97H184.865C177.953 337.97 172.334 333.363 172.334 327.632V324.261C172.334 318.587 177.953 313.924 184.865 313.924H277.978C278.54 313.924 278.989 314.373 278.989 314.879V315.104C278.989 315.609 278.54 316.059 277.978 316.059H276.798L276.742 336.06H277.978C278.54 336.06 278.989 336.453 278.989 337.015Z" fill="#11B391"/>
<path d="M214.311 315.947L276.799 316.06L276.743 336.061H213.693C210.434 336.061 207.793 333.42 207.793 330.162V322.464C207.793 318.869 210.715 315.947 214.311 315.947Z" fill="#BEE1DA"/>
<path d="M191.945 326.115V325.834C191.945 324.71 192.844 323.867 193.912 323.867H201.33C202.397 323.867 203.296 324.71 203.296 325.834V326.115C203.296 327.182 202.397 328.025 201.33 328.025H193.912C192.844 328.025 191.945 327.182 191.945 326.115Z" fill="#096A56"/>
<path d="M211.332 319.092H276.741" stroke="#096A56" stroke-width="2" stroke-miterlimit="10" stroke-linecap="round"/>
<path d="M215.996 322.127H276.741" stroke="#096A56" stroke-width="2" stroke-miterlimit="10" stroke-linecap="round"/>
<path d="M211.332 327.576H276.741" stroke="#096A56" stroke-width="2" stroke-miterlimit="10" stroke-linecap="round"/>
<path d="M210.266 333.25H276.743" stroke="#096A56" stroke-width="2" stroke-miterlimit="10" stroke-linecap="round"/>
<path d="M313.493 371.231C313.493 372.017 312.875 372.635 312.088 372.635H175.988C165.929 372.635 157.725 365.837 157.725 357.522V352.578C157.725 344.263 165.929 337.465 175.988 337.465H312.088C312.875 337.465 313.493 338.139 313.493 338.926V339.15C313.493 339.937 312.875 340.555 312.088 340.555L310.346 340.611L310.234 369.77H312.088C312.875 369.77 313.493 370.444 313.493 371.231Z" fill="#096A56"/>
<path d="M218.47 340.441L310.346 340.61L310.234 369.769H218.919C213.75 369.769 209.535 365.611 209.535 360.442V349.374C209.535 344.43 213.525 340.441 218.47 340.441Z" fill="#BEE1DA"/>
<path d="M194.869 364.432H194.475C192.902 364.432 191.609 363.196 191.609 361.623V350.723C191.609 349.15 192.902 347.914 194.475 347.914H194.869C196.442 347.914 197.734 349.15 197.734 350.723V361.623C197.734 363.196 196.442 364.432 194.869 364.432Z" fill="#11B391"/>
<path d="M185.484 364.545H185.09C183.517 364.545 182.225 363.252 182.225 361.679V350.836C182.225 349.263 183.517 347.971 185.09 347.971H185.484C187.057 347.971 188.35 349.263 188.35 350.836V361.679C188.35 363.252 187.057 364.545 185.484 364.545Z" fill="#11B391"/>
<path d="M219.818 344.992H310.234" stroke="#096A56" stroke-width="2" stroke-miterlimit="10" stroke-linecap="round"/>
<path d="M232.18 354.824H310.289" stroke="#096A56" stroke-width="2" stroke-miterlimit="10" stroke-linecap="round"/>
<path d="M212.512 358.533H310.232" stroke="#096A56" stroke-width="2" stroke-miterlimit="10" stroke-linecap="round"/>
<path d="M216.559 366.791H310.233" stroke="#096A56" stroke-width="2" stroke-miterlimit="10" stroke-linecap="round"/>
<path d="M129.234 345.049L126.256 352.409L134.629 354.544L137.214 348.476L129.234 345.049Z" fill="#E1B39D"/>
<path d="M134.628 354.545C126.649 350.893 124.008 349.713 111.701 350.387C110.015 350.5 109.678 352.859 111.195 353.534L129.796 361.568C132.38 362.916 134.628 354.545 134.628 354.545Z" fill="#353F4E"/>
<path d="M149.968 349.264L148.676 357.129L157.161 357.86L158.397 351.342L149.968 349.264Z" fill="#E1B39D"/>
<path d="M157.164 357.859C148.622 356.061 145.756 355.499 133.956 358.814C132.326 359.375 132.495 361.679 134.18 362.016L154.017 365.724C156.883 366.455 157.164 357.859 157.164 357.859Z" fill="#353F4E"/>
<path d="M218.695 272.798C218.695 272.798 236.34 271.73 236.34 263.247C236.34 254.707 228.417 256.055 230.777 245.493C232.968 235.773 229.597 232.346 224.764 228.638C217.234 222.907 222.797 218.525 218.077 211.277C214.425 205.659 200.601 199.985 193.745 209.817C184.08 223.582 183.799 224.312 183.687 229.256C183.462 239.2 193.127 235.717 183.518 251.111C173.909 266.505 190.486 273.978 203.86 277.236C217.234 280.495 218.695 272.798 218.695 272.798Z" fill="#353F4E"/>
<path d="M204.027 214.424C203.072 213.918 202.117 213.3 201.274 213.974C198.914 215.94 194.868 220.21 195.373 226.447C195.935 232.739 196.666 235.773 199.869 235.998C200.937 236.054 201.723 236.897 201.667 237.964L201.555 242.29C201.555 242.29 201.049 242.684 200.88 242.964L196.048 251.448C195.654 252.122 195.711 253.021 196.216 253.639L201.442 259.988C202.285 260.999 203.915 260.831 204.533 259.651L213.355 242.571C213.58 242.122 213.411 241.672 213.299 241.167C212.737 239.425 209.984 235.829 214.086 225.941C214.423 225.154 214.535 222.233 212.344 222.795C211.726 223.02 211.669 224.199 210.658 223.3C209.141 221.952 209.309 217.401 204.027 214.424Z" fill="#F3D6C1"/>
<path d="M181.214 288.53L156.77 293.98C153.679 294.654 151.094 296.733 149.746 299.598L127.718 345.668C127.268 346.567 127.774 347.578 128.673 347.803L136.765 349.994C137.383 350.162 138.057 349.882 138.451 349.32L167.671 303.868C167.896 303.531 168.289 303.306 168.683 303.194L196.892 297.575C198.353 297.294 198.578 295.272 197.173 294.71L182.113 288.642C181.832 288.53 181.551 288.474 181.214 288.53Z" fill="#353F4E"/>
<path d="M189.192 257.123L184.753 274.596C184.585 275.214 184.247 275.776 183.685 276.169L177.055 281.225C175.931 282.068 175.594 283.641 176.268 284.877L176.83 285.945C177.617 287.349 179.302 287.911 180.707 287.181L189.867 282.574C190.485 282.293 190.991 281.787 191.272 281.113L199.532 261.505L189.192 257.123Z" fill="#ECCBB5"/>
<path d="M195.599 292.855C195.374 292.743 195.112 292.705 194.813 292.743L173.009 297.855C167.952 298.754 163.737 302.237 161.883 307.013C157.725 317.969 150.251 344.094 148.621 349.768C148.453 350.442 148.79 351.06 149.408 351.341C151.262 352.016 155.14 353.532 157.5 354.319C158.118 354.544 158.792 354.263 159.073 353.645C161.49 348.195 172.672 323.362 174.751 318.699C174.976 318.25 175.819 316.171 176.943 316.171C183.405 316.171 224.427 320.047 223.808 304.316C223.022 302.855 199.083 294.316 195.599 292.855Z" fill="#353F4E"/>
<path d="M201.555 242.291C201.555 242.291 198.857 246.898 202.51 248.022C207.286 249.426 211.894 245.325 212.906 241.841C212.962 241.504 213.074 240.83 213.411 240.774C215.21 240.662 220.717 240.718 223.189 245.212C225.605 249.482 225.549 256.618 225.437 259.202C225.437 259.764 224.987 260.213 224.425 260.269L215.884 260.887C214.929 260.944 214.535 262.067 215.153 262.741C216.502 264.202 218.356 266.787 219.48 270.495C220.773 274.933 221.391 277.18 222.683 285.608C223.358 290.496 223.976 300.103 224.144 303.867C224.201 304.598 223.47 305.16 222.796 304.935C218.862 303.867 208.129 300.721 202.791 298.474C196.16 295.665 185.09 291.563 185.09 291.563C185.09 291.563 195.261 286.956 194.137 277.855C193.069 268.753 191.552 265.494 192.901 259.483L188.742 258.247C188.18 258.134 187.843 257.573 187.956 257.011C188.799 253.134 190.597 242.516 201.555 242.291Z" fill="#11B391"/>
<path d="M178.74 287.35C178.74 287.35 182.786 284.035 186.495 285.328C187.001 285.496 187.506 285.552 188.012 285.44C191.328 284.71 203.297 282.069 207.961 281.058C209.085 280.833 209.928 279.878 210.152 278.754L213.355 261.057L223.807 260.326C223.807 260.326 221.616 282.687 214.873 288.586C214.423 288.979 213.861 289.204 213.243 289.26C208.916 289.485 190.091 290.665 187.731 290.777C187.581 290.777 187.413 290.815 187.225 290.89C186.776 291.002 185.877 291.227 185.09 291.564C183.966 292.069 182.618 291.732 181.831 290.833L178.74 287.35Z" fill="#F3D6C1"/>
<path d="M150.645 300.441C150.645 300.441 154.69 301.508 157.95 299.149C161.209 296.845 159.579 293.418 159.579 293.418" stroke="#264154" stroke-miterlimit="10" stroke-linecap="round"/>
<path d="M157.668 319.429L161.714 306.901C163.063 302.687 166.49 299.541 170.761 298.473L189.53 293.979" stroke="#264154" stroke-miterlimit="10" stroke-linecap="round"/>
<path d="M212.4 303.193C212.4 303.193 208.973 307.239 211.445 312.52" stroke="#264154" stroke-miterlimit="10" stroke-linecap="round"/>
<path d="M168.682 300.664C168.682 300.664 171.773 306.619 162.838 307.855" stroke="#264154" stroke-miterlimit="10" stroke-linecap="round"/>
<path d="M130.301 344.881L137.325 347.072" stroke="#264154" stroke-miterlimit="10" stroke-linecap="round"/>
<path d="M151.598 349.094L157.667 351.172" stroke="#264154" stroke-miterlimit="10" stroke-linecap="round"/>
<path d="M218.864 243.414C218.864 243.414 211.39 244.257 213.357 261.055" stroke="#096A56" stroke-miterlimit="10" stroke-linecap="round"/>
<path d="M197.285 248.021C197.285 248.021 193.014 253.246 192.846 259.146" stroke="#096A56" stroke-miterlimit="10" stroke-linecap="round"/>
<path d="M157.668 293.529L145.642 275.943C145.193 275.213 145.699 274.258 146.542 274.258H171.829C172.222 274.258 172.559 274.483 172.728 274.763L182.786 290.888C183.011 291.169 183.348 291.394 183.685 291.394H195.542C196.104 291.394 196.554 291.843 196.554 292.461V292.967C196.554 293.529 196.104 293.978 195.542 293.978H158.567C158.23 293.978 157.893 293.809 157.668 293.529Z" fill="#096A56"/>
<path d="M167.221 282.91C168.064 284.596 167.558 286.562 166.153 287.237C164.692 287.911 162.894 287.068 162.051 285.382C161.264 283.697 161.714 281.731 163.175 281.056C164.58 280.382 166.378 281.169 167.221 282.91Z" fill="#11B391"/>
<path d="M80.964 155.994C80.2335 198.468 17.0157 198.468 16.2852 155.994C17.0157 113.463 80.2897 113.463 80.964 155.994Z" fill="#096A56"/>
<path d="M84.4476 155.995C83.6609 203.076 13.5875 203.076 12.8008 155.995C13.6437 108.913 83.6609 108.913 84.4476 155.995Z" stroke="#11B391" stroke-miterlimit="10"/>
<path d="M51.5753 166.668C51.0134 161.275 45.7874 164.926 45.7874 164.926L45.675 159.252L39.6623 159.308C39.6623 159.308 40.7862 160.432 41.1233 161.78C41.5167 163.297 40.8985 165.095 37.9765 165.151C35.6725 165.151 34.6049 163.241 34.9982 161.612C35.3354 160.376 36.2345 159.364 36.2345 159.364L30.1094 159.42C30.278 175.039 30.278 175.039 45.8998 174.815L45.7874 168.691C46.6865 169.927 51.9687 170.994 51.5753 166.668Z" fill="white"/>
<path d="M59.1042 153.521C53.5972 153.521 57.1936 159.308 57.1936 159.308H51.5742V164.983C51.5742 164.983 56.8564 161.387 57.3622 166.837C57.7555 171.163 52.4171 170.039 51.5742 168.747V174.871C67.196 174.871 67.196 174.871 67.196 159.308H60.9024C60.9024 159.308 64.7797 153.521 59.1042 153.521Z" fill="#11B391"/>
<path d="M35.0534 155.039C34.6039 156.668 35.6716 158.579 37.9755 158.579C40.9538 158.522 41.5157 156.725 41.1785 155.208C40.8414 153.859 39.7175 152.736 39.7175 152.736L45.7302 152.679L45.674 146.78C45.674 146.78 42.0214 150.095 40.1671 146.893C38.2003 143.465 42.2462 140.207 45.6178 143.465L45.5055 137.061C29.9398 137.285 29.9398 137.285 30.1084 152.848L36.2897 152.792C36.2897 152.792 35.3344 153.803 35.0534 155.039Z" fill="#11B391"/>
<path d="M51.5173 137.51L51.5735 143.915C48.2019 140.656 44.0997 143.858 46.0665 147.286C47.8647 150.488 51.5735 147.286 51.5735 147.286V153.129H57.1928C57.1928 153.129 53.5403 147.342 59.0472 147.342C64.779 147.342 60.9016 153.072 60.9016 153.072H67.1391C67.1391 137.51 67.6448 137.51 51.5173 137.51Z" fill="white"/>
<path d="M113.105 59.5842C113.836 102.115 177.054 102.115 177.784 59.5842C177.054 17.11 113.836 17.11 113.105 59.5842Z" fill="#096A56"/>
<path d="M109.621 59.5848C110.408 106.666 180.481 106.666 181.268 59.5848C180.481 12.5035 110.408 12.5597 109.621 59.5848Z" stroke="#11B391" stroke-miterlimit="10"/>
<path d="M166.545 59.5831V51.268C166.545 49.5263 164.634 48.4589 163.117 49.3016L155.924 53.4591L148.732 57.6167C147.214 58.5156 147.214 60.7067 148.732 61.6056L155.924 65.7632L163.117 69.9207C164.634 70.7634 166.545 69.696 166.545 67.8981V59.5831Z" fill="white"/>
<path d="M142.664 59.5831V51.268C142.664 49.5263 140.754 48.4589 139.236 49.3016L132.044 53.4591L124.851 57.6167C123.334 58.5156 123.334 60.7067 124.851 61.6056L132.044 65.7632L139.236 69.9207C140.754 70.7634 142.664 69.696 142.664 67.8981V59.5831Z" fill="white"/>
<path d="M335.747 64.4154C335.016 106.946 271.742 106.946 271.012 64.4154C271.742 21.885 335.016 21.885 335.747 64.4154Z" fill="#096A56"/>
<path d="M339.229 64.4164C338.386 111.498 268.369 111.498 267.582 64.4164C268.369 17.3352 338.386 17.3352 339.229 64.4164Z" stroke="#11B391" stroke-miterlimit="10"/>
<path d="M297.813 41.1564C310.907 36.3809 320.797 49.0782 319.392 59.1911C318.774 69.1917 307.085 75.3718 308.153 79.136C305.737 79.136 300.848 79.136 298.488 79.136C298.488 79.136 299.162 77.282 296.633 75.0347C287.08 67.5062 280.955 48.7411 297.813 41.1564Z" fill="#BEE1DA"/>
<path d="M308.155 79.1348C308.099 83.6856 309.279 89.1915 302.592 88.6859C297.366 88.5173 298.546 82.6181 298.433 79.1348H308.155Z" fill="#11B391"/>
<path d="M305.232 79.1365C305.232 79.1365 305.064 63.911 306.412 59.6411C307.761 55.4274 310.402 52.1687 312.425 55.8206C316.246 67.3381 295.736 70.2596 294.162 60.0343C292.027 50.2023 303.153 49.3596 301.299 79.1365" stroke="#11B391" stroke-width="2" stroke-miterlimit="10" stroke-linecap="round"/>
<path d="M1 372.635H412" stroke="#315782" stroke-width="2" stroke-miterlimit="10" stroke-linecap="round"/>
</svg>
