<svg width="504" height="516" viewBox="0 0 504 516" fill="none" xmlns="http://www.w3.org/2000/svg">
<path d="M107.003 472.882C117.751 470.603 147.133 463.623 140.607 443.734C133.462 421.937 107.594 422.557 94.7868 426.003C81.9798 429.453 59.5382 444.989 66.3761 462.296C73.7704 480.984 96.8026 475.039 107.003 472.882Z" fill="#EBEBEB" stroke="black" stroke-width="3" stroke-miterlimit="10" stroke-linecap="round" stroke-linejoin="round"/>
<path d="M126.356 470.3C134.588 470.3 141.262 463.626 141.262 455.394C141.262 447.162 134.588 440.488 126.356 440.488C118.124 440.488 111.45 447.162 111.45 455.394C111.45 463.626 118.124 470.3 126.356 470.3Z" fill="#EBEBEB" stroke="black" stroke-width="3" stroke-miterlimit="10" stroke-linecap="round" stroke-linejoin="round"/>
<path d="M113.524 447.805C113.524 447.805 111.528 437.004 113.524 436.262C115.521 435.525 121.05 441.46 121.05 441.46C121.05 441.46 118.444 442.373 116.843 443.915C115.242 445.458 113.524 447.805 113.524 447.805Z" fill="white" stroke="black" stroke-width="3" stroke-miterlimit="10" stroke-linecap="round" stroke-linejoin="round"/>
<path d="M136.918 444.878C136.918 444.878 148.978 443.164 149.305 445.956C149.632 448.748 141.091 453.146 141.091 453.146C141.091 453.146 140.408 449.568 139.188 447.806C137.967 446.044 136.918 444.878 136.918 444.878Z" fill="white" stroke="black" stroke-width="3" stroke-miterlimit="10" stroke-linecap="round" stroke-linejoin="round"/>
<path d="M73.0094 439.328C73.0094 439.328 59.3726 452.033 62.8624 467.221C66.5864 483.425 96.6516 494.258 109.566 478.062C119.913 465.089 102.504 457.865 97.2519 466.074C89.882 477.588 58.2306 478.467 73.0094 439.328Z" fill="black" stroke="black" stroke-width="3" stroke-miterlimit="10" stroke-linecap="round" stroke-linejoin="round"/>
<path d="M116.843 455.722C116.843 455.722 107.682 454.243 102.099 456.298" stroke="black" stroke-width="3" stroke-miterlimit="10" stroke-linecap="round" stroke-linejoin="round"/>
<path d="M135.101 461.227C135.101 461.227 142.896 465.522 144.297 467.22" stroke="black" stroke-width="3" stroke-miterlimit="10" stroke-linecap="round" stroke-linejoin="round"/>
<path d="M116.843 458.352C116.843 458.352 108.755 458.186 103.25 460.816" stroke="black" stroke-width="3" stroke-miterlimit="10" stroke-linecap="round" stroke-linejoin="round"/>
<path d="M133.501 464.225C133.501 464.225 141.013 470.257 142.37 474.816" stroke="black" stroke-width="3" stroke-miterlimit="10" stroke-linecap="round" stroke-linejoin="round"/>
<path d="M135.101 301.032L385.614 298.572" stroke="black" stroke-width="3" stroke-miterlimit="10" stroke-linecap="round" stroke-linejoin="round"/>
<path d="M312.702 436.2L369.65 435.521L365.043 452.697L312.702 452.824V436.2Z" fill="#EBEBEB" stroke="black" stroke-width="3" stroke-miterlimit="10" stroke-linecap="round" stroke-linejoin="round"/>
<path d="M177.412 225.41C177.412 225.41 159.983 249.799 163.926 269.508C167.865 289.211 190.512 302.272 225.507 301.037C222.549 330.595 227.894 437.019 227.894 437.019L312.7 436.199L361.966 435.516V292.408L293.265 239.398C293.261 239.403 260.501 226.255 177.412 225.41Z" fill="#37474F" stroke="black" stroke-width="3" stroke-miterlimit="10" stroke-linecap="round" stroke-linejoin="round"/>
<path d="M265.408 251.277L309.251 291.182L312.702 436.198" stroke="black" stroke-width="3" stroke-miterlimit="10" stroke-linecap="round" stroke-linejoin="round"/>
<path d="M221.071 437.078L324.196 436.199L320.257 452.793L226.333 453.145L221.071 437.078Z" fill="#EBEBEB" stroke="black" stroke-width="3" stroke-miterlimit="10" stroke-linecap="round" stroke-linejoin="round"/>
<path d="M357.038 452.822V464.224L387.035 485.479L312.702 486.128V452.822H357.038Z" fill="#096A56" stroke="black" stroke-width="3" stroke-miterlimit="10" stroke-linecap="round" stroke-linejoin="round"/>
<path d="M228.46 453.144L312.701 452.822V465.332L342.513 485.772L229.217 487.124L228.46 453.144Z" fill="#096A56" stroke="black" stroke-width="3" stroke-miterlimit="10" stroke-linecap="round" stroke-linejoin="round"/>
<path d="M243.786 208.2L245.948 183.787L264.67 169.76C264.67 169.76 240.286 135.756 229.446 134.033C223.287 138.465 218.362 131.324 218.362 131.324C218.362 131.324 185.202 132.378 176.339 163.908C195.554 170.067 209.498 173.811 209.498 173.811L213.437 158.666L204.818 200.294L243.786 208.2Z" fill="#096A56"/>
<path d="M245.948 183.787L243.786 208.2L204.818 200.294L213.437 158.666L209.498 173.811C209.498 173.811 195.554 170.067 176.339 163.908C185.202 132.378 218.362 131.324 218.362 131.324C218.362 131.324 223.287 138.465 229.446 134.033C240.286 135.756 264.67 169.76 264.67 169.76L245.948 183.787ZM245.948 183.787L244.225 158.168" stroke="black" stroke-width="3" stroke-miterlimit="10" stroke-linecap="round" stroke-linejoin="round"/>
<path d="M176.334 163.904C176.334 163.904 164.577 217.285 166.88 221.228C169.179 225.167 233.243 238.145 249.994 238.745C266.745 239.346 261.781 214.488 256.7 211.618C251.614 208.748 204.818 200.29 204.818 200.29L209.499 173.807L176.334 163.904Z" fill="#EB9481" stroke="black" stroke-width="3" stroke-miterlimit="10" stroke-linecap="round" stroke-linejoin="round"/>
<path d="M246.69 183.416L261.537 172.137L273.046 191.669L261.537 211.866L243.805 208.03L246.69 183.416Z" fill="#EB9481" stroke="black" stroke-width="3" stroke-miterlimit="10" stroke-linecap="round" stroke-linejoin="round"/>
<path d="M247.304 134.15C258.076 130.514 253.81 110.083 248.041 101.884C237.821 87.3488 212.695 89.8136 206.165 109.522C204.74 113.817 195.984 115.701 199.39 122.578C201.772 127.38 211.338 124.882 211.338 124.882C211.338 124.882 240.857 136.327 247.304 134.15Z" fill="black" stroke="black" stroke-width="3" stroke-miterlimit="10" stroke-linecap="round" stroke-linejoin="round"/>
<path d="M218.362 131.32L220.949 123.931C220.949 123.931 218.24 120.236 218.362 118.142C218.484 116.048 214.297 117.527 215.405 113.217C216.512 108.908 221.93 113.71 224.644 114.818C227.357 115.926 232.375 113.286 234.991 113.095C236.772 112.964 238.578 114.686 239.091 115.829C240.125 118.147 238.686 121.471 235.977 123.072C233.268 124.672 229.202 124.921 229.202 124.921L228.797 134.463C228.797 134.463 228.226 136.474 222.926 135.01C217.62 133.536 218.362 131.32 218.362 131.32Z" fill="#EB9481" stroke="black" stroke-width="3" stroke-miterlimit="10" stroke-linecap="round" stroke-linejoin="round"/>
<path d="M11.3264 239.867H502" stroke="black" stroke-width="3" stroke-miterlimit="10" stroke-linecap="round" stroke-linejoin="round"/>
<path d="M66.3813 503.76L135.102 239.867" stroke="black" stroke-width="3" stroke-miterlimit="10"/>
<path d="M73.7703 239.867L163.922 514.845" stroke="black" stroke-width="3" stroke-miterlimit="10"/>
<path d="M380.441 239.867L472.072 514.845" stroke="black" stroke-width="3" stroke-miterlimit="10"/>
<path d="M374.531 500.061L443.251 239.867" stroke="black" stroke-width="3" stroke-miterlimit="10"/>
<path d="M38.9563 207.185C38.9563 207.185 29.761 184.114 16.7881 178.203" stroke="black" stroke-width="3" stroke-miterlimit="10" stroke-linecap="round" stroke-linejoin="round"/>
<path d="M16.7882 178.203C16.7882 178.203 6.895 162.478 2.95135 167.036C-2.43209 173.264 16.7882 178.203 16.7882 178.203Z" fill="#096A56" stroke="black" stroke-width="3" stroke-miterlimit="10" stroke-linecap="round" stroke-linejoin="round"/>
<path d="M29.5908 190.093C26.0669 182.469 15.8223 196.965 15.8223 196.965C15.8223 196.965 31.5089 194.241 29.5908 190.093Z" fill="#096A56" stroke="black" stroke-width="3" stroke-miterlimit="10" stroke-linecap="round" stroke-linejoin="round"/>
<path d="M46.0581 149.422C47.9079 172.698 53.0767 207.62 53.0767 207.62L46.0581 149.422Z" fill="black"/>
<path d="M46.0581 149.422C47.9079 172.698 53.0767 207.62 53.0767 207.62" stroke="black" stroke-width="3" stroke-miterlimit="10" stroke-linecap="round" stroke-linejoin="round"/>
<path d="M44.9204 127.332C47.8684 127.039 56.59 153.015 45.7843 151.765C36.2035 150.657 44.9204 127.332 44.9204 127.332Z" fill="#096A56" stroke="black" stroke-width="3" stroke-miterlimit="10" stroke-linecap="round" stroke-linejoin="round"/>
<path d="M47.3221 162.785C47.3221 162.785 42.2413 154.229 33.866 153.57C25.4906 152.911 24.1777 153.57 24.1777 153.57" stroke="black" stroke-width="3" stroke-miterlimit="10" stroke-linecap="round" stroke-linejoin="round"/>
<path d="M23.8505 152.669C22.3472 142.824 7.67578 154.64 7.67578 154.64C7.67578 154.64 24.8754 159.399 23.8505 152.669Z" fill="#096A56" stroke="black" stroke-width="3" stroke-miterlimit="10" stroke-linecap="round" stroke-linejoin="round"/>
<path d="M48.6108 174.1C48.6108 174.1 52.6617 165.94 62.8527 160.302C70.5691 156.032 74.9227 154.768 74.9227 154.768" stroke="black" stroke-width="3" stroke-miterlimit="10" stroke-linecap="round" stroke-linejoin="round"/>
<path d="M75.4158 154.767C72.2091 142.985 99.3899 150.35 99.3899 150.35C99.3899 150.35 77.6951 163.142 75.4158 154.767Z" fill="#096A56" stroke="black" stroke-width="3" stroke-miterlimit="10" stroke-linecap="round" stroke-linejoin="round"/>
<path d="M68.2265 207.626C68.2265 207.626 67.7336 192.568 73.1512 188.303" stroke="black" stroke-width="3" stroke-miterlimit="10" stroke-linecap="round" stroke-linejoin="round"/>
<path d="M92.0588 174.484C92.0588 174.484 65.9665 179.741 72.7214 188.297C77.28 194.071 92.0588 174.484 92.0588 174.484Z" fill="#096A56" stroke="black" stroke-width="3" stroke-miterlimit="10" stroke-linecap="round" stroke-linejoin="round"/>
<path d="M61.7639 181.386C67.8599 178.526 69.1533 196.287 69.1533 196.287C69.1533 196.287 55.7947 184.188 61.7639 181.386Z" fill="#096A56" stroke="black" stroke-width="3" stroke-miterlimit="10" stroke-linecap="round" stroke-linejoin="round"/>
<path d="M76.4889 207.186H32.3185V239.862H76.4889V207.186Z" fill="#37474F" stroke="black" stroke-width="3" stroke-miterlimit="10" stroke-linecap="round" stroke-linejoin="round"/>
<path d="M243.805 239.896L289.055 148.139H410.902L370.841 239.896H243.805Z" fill="white" stroke="black" stroke-width="3" stroke-miterlimit="10" stroke-linecap="round" stroke-linejoin="round"/>
<path d="M338.564 189.6C338.564 189.6 333.884 188.326 330.56 190.669C329.12 191.684 324.576 195.227 326.953 198.18C329.33 201.138 333.762 198.551 335.49 195.964C337.212 193.377 338.564 189.6 338.564 189.6Z" fill="white" stroke="black" stroke-width="3" stroke-miterlimit="10" stroke-linecap="round" stroke-linejoin="round"/>
<path d="M465.751 230.59L481.843 106.278L408.891 66.5391" stroke="black" stroke-width="3" stroke-miterlimit="10" stroke-linecap="round" stroke-linejoin="round"/>
<path d="M408.891 66.5391L373.623 81.479L409.589 103.813L408.891 66.5391Z" fill="#096A56" stroke="black" stroke-width="3" stroke-miterlimit="10" stroke-linecap="round" stroke-linejoin="round"/>
<path d="M391.135 103.402C396.286 103.402 400.462 99.2262 400.462 94.0751C400.462 88.924 396.286 84.748 391.135 84.748C385.984 84.748 381.808 88.924 381.808 94.0751C381.808 99.2262 385.984 103.402 391.135 103.402Z" fill="white" stroke="black" stroke-width="3" stroke-miterlimit="10" stroke-linecap="round" stroke-linejoin="round"/>
<path d="M489.12 229.311H441.753V239.379H489.12V229.311Z" fill="#37474F" stroke="black" stroke-width="3" stroke-miterlimit="10" stroke-linecap="round" stroke-linejoin="round"/>
<path d="M331.902 85.8508L326.831 82.4001C326.831 82.4001 314.454 97.057 318.27 100.073C322.448 103.377 331.902 85.8508 331.902 85.8508Z" fill="white" stroke="black" stroke-width="3" stroke-miterlimit="10" stroke-linecap="round" stroke-linejoin="round"/>
<path d="M335.587 85.9296C341.927 85.9296 347.066 80.7902 347.066 74.4502C347.066 68.1101 341.927 62.9707 335.587 62.9707C329.247 62.9707 324.107 68.1101 324.107 74.4502C324.107 80.7902 329.247 85.9296 335.587 85.9296Z" fill="white" stroke="black" stroke-width="3" stroke-miterlimit="10" stroke-linecap="round" stroke-linejoin="round"/>
<path d="M335.587 81.8106C339.345 81.8106 342.391 78.7645 342.391 75.0069C342.391 71.2492 339.345 68.2031 335.587 68.2031C331.829 68.2031 328.783 71.2492 328.783 75.0069C328.783 78.7645 331.829 81.8106 335.587 81.8106Z" fill="#455A64" stroke="black" stroke-width="3" stroke-miterlimit="10" stroke-linecap="round" stroke-linejoin="round"/>
<path d="M319.784 92.1426C319.784 92.1426 319.691 94.2462 321.263 95.9105C322.156 96.8574 323.991 97.3698 323.991 97.3698C323.991 97.3698 320.462 102.007 318.246 99.9761C316.026 97.9409 319.784 92.1426 319.784 92.1426Z" fill="#DADADA" stroke="black" stroke-width="3" stroke-miterlimit="10" stroke-linecap="round" stroke-linejoin="round"/>
<path d="M218.279 43.6278C226.487 43.6278 233.141 36.974 233.141 28.766C233.141 20.5581 226.487 13.9043 218.279 13.9043C210.071 13.9043 203.417 20.5581 203.417 28.766C203.417 36.974 210.071 43.6278 218.279 43.6278Z" fill="#455A64" stroke="black" stroke-width="3" stroke-miterlimit="10" stroke-linecap="round" stroke-linejoin="round"/>
<path d="M229.778 19.3555C235.826 20.2828 240.145 22.8745 240.799 26.5594C241.853 32.4993 232.868 37.9754 220.905 40.0985C208.943 42.2216 198.522 40.1815 197.468 34.2417C196.882 30.9277 199.376 27.4233 203.779 24.612" stroke="black" stroke-width="3" stroke-miterlimit="10" stroke-linecap="round" stroke-linejoin="round"/>
<path d="M239.954 8.23759C241.676 8.23759 243.073 6.84131 243.073 5.11885C243.073 3.39639 241.676 2 239.954 2C238.232 2 236.835 3.39639 236.835 5.11885C236.835 6.84131 238.232 8.23759 239.954 8.23759Z" fill="white" stroke="black" stroke-width="3" stroke-miterlimit="10" stroke-linecap="round" stroke-linejoin="round"/>
<path d="M191.391 48.763C193.113 48.763 194.51 47.3667 194.51 45.6442C194.51 43.9218 193.113 42.5254 191.391 42.5254C189.668 42.5254 188.272 43.9218 188.272 45.6442C188.272 47.3667 189.668 48.763 191.391 48.763Z" fill="white" stroke="black" stroke-width="3" stroke-miterlimit="10" stroke-linecap="round" stroke-linejoin="round"/>
<path d="M102.996 97.7354C109.886 97.7354 115.471 92.1499 115.471 85.2603C115.471 78.3707 109.886 72.7852 102.996 72.7852C96.1065 72.7852 90.521 78.3707 90.521 85.2603C90.521 92.1499 96.1065 97.7354 102.996 97.7354Z" fill="#455A64" stroke="black" stroke-width="3" stroke-miterlimit="10" stroke-linecap="round" stroke-linejoin="round"/>
<path d="M106.447 89.6087L99.7166 88.0469" stroke="black" stroke-width="3" stroke-miterlimit="10" stroke-linecap="round" stroke-linejoin="round"/>
<path d="M109.571 86.08L105.544 81.3164" stroke="black" stroke-width="3" stroke-miterlimit="10" stroke-linecap="round" stroke-linejoin="round"/>
<path d="M97.1691 86.0806C97.1691 86.0806 95.9392 84.1088 96.7592 82.8789C97.5791 81.6489 99.7169 82.8789 99.7169 82.8789C99.7169 82.8789 99.7169 79.5942 100.869 78.6912C101.781 77.9738 103.988 79.4282 103.988 79.4282" stroke="black" stroke-width="3" stroke-miterlimit="10" stroke-linecap="round" stroke-linejoin="round"/>
<path d="M115.892 87.0625C115.892 87.0625 118.767 88.0484 118.601 89.6102C118.435 91.1721 111.538 99.3814 109.981 99.5474C108.42 99.7133 107.092 97.0533 107.092 97.0533C107.092 97.0533 111.368 95.3597 112.851 92.9194C114.33 90.4741 115.892 87.0625 115.892 87.0625Z" fill="white" stroke="black" stroke-width="3" stroke-miterlimit="10" stroke-linecap="round" stroke-linejoin="round"/>
<path d="M118.151 91.4492C118.151 91.4492 120.821 91.5809 120.572 93.1428C120.323 94.7046 114.642 101.284 112.85 100.41C111.508 99.7513 111.386 98.7214 112.162 97.9503C113.436 96.6862 118.151 91.4492 118.151 91.4492Z" fill="white" stroke="black" stroke-width="3" stroke-miterlimit="10" stroke-linecap="round" stroke-linejoin="round"/>
<path d="M120.279 94.4803L124.305 98.1116C124.305 98.1116 121.421 102.094 120.586 102.011C119.747 101.928 115.949 99.3074 115.949 99.3074L120.279 94.4803Z" fill="white" stroke="black" stroke-width="3" stroke-miterlimit="10" stroke-linecap="round" stroke-linejoin="round"/>
<path d="M133.994 72.7856C133.994 72.7856 145.815 57.2991 167.002 44.248L133.994 72.7856Z" fill="white"/>
<path d="M133.994 72.7856C133.994 72.7856 145.815 57.2991 167.002 44.248" stroke="black" stroke-width="3" stroke-miterlimit="10" stroke-linecap="round" stroke-linejoin="round"/>
<path d="M141.92 74.0095C141.92 74.0095 149.559 62.5154 162.693 52.9883L141.92 74.0095Z" fill="white"/>
<path d="M141.92 74.0095C141.92 74.0095 149.559 62.5154 162.693 52.9883" stroke="black" stroke-width="3" stroke-miterlimit="10" stroke-linecap="round" stroke-linejoin="round"/>
<path d="M267.213 32.377C267.213 32.377 288.395 34.0169 309.582 53.7253" stroke="black" stroke-width="3" stroke-miterlimit="10" stroke-linecap="round" stroke-linejoin="round"/>
<path d="M275.383 41.5332C275.383 41.5332 290.411 44.9839 305.434 57.42" stroke="black" stroke-width="3" stroke-miterlimit="10" stroke-linecap="round" stroke-linejoin="round"/>
</svg>
