<svg width="410" height="265" viewBox="0 0 410 265" fill="none" xmlns="http://www.w3.org/2000/svg">
<path d="M115.472 263.348H115.599C116.806 263.327 117.716 262.353 117.61 261.231L109.65 181.84L102.727 182.454L114.138 262.269C114.223 262.904 114.794 263.348 115.472 263.348Z" fill="#9DEFDE"/>
<path d="M38.8947 263.348H38.7465C37.5609 263.327 36.6506 262.353 36.7564 261.231L44.6957 181.84L51.64 182.454L40.2285 262.269C40.1439 262.904 39.5722 263.348 38.8947 263.348Z" fill="#9DEFDE"/>
<path d="M171.556 263.348H171.704C172.89 263.327 173.821 262.353 173.694 261.231L165.755 181.84L158.811 182.454L170.222 262.269C170.328 262.904 170.899 263.348 171.556 263.348Z" fill="#8CB4F4"/>
<path d="M41.2671 170.284L27.1457 100.607C25.3461 91.1885 33.1584 82.553 43.3207 82.7859L70.5261 83.3997C79.9262 83.6113 88.0984 89.8974 90.7025 98.9139L111.345 170.284H41.2671Z" fill="#9DEFDE"/>
<path d="M49.7979 170.284L35.6977 100.607C33.8769 91.1885 41.7104 82.553 51.8515 82.7859L79.078 83.3997C88.457 83.6113 96.6292 89.8974 99.2333 98.9139L119.875 170.284H49.7979Z" fill="#9DEFDE"/>
<path d="M45.2035 183.006H152.882C155.062 183.006 156.82 181.228 156.82 179.069V174.222C156.82 172.063 155.062 170.285 152.882 170.285H41.2656V179.069C41.2656 181.228 43.044 183.006 45.2035 183.006Z" fill="#9DEFDE"/>
<path d="M95.7402 183.006H164.378C166.135 183.006 167.554 181.566 167.554 179.831V173.46C167.554 171.724 166.135 170.285 164.378 170.285H95.7402C94.0041 170.285 92.5645 171.724 92.5645 173.46V179.831C92.5645 181.566 94.0041 183.006 95.7402 183.006Z" fill="#9DEFDE"/>
<path d="M135.076 155.703C129.254 165.841 121.928 169.757 121.928 169.757H91.4414C91.4414 169.757 139.522 147.978 135.076 155.703Z" fill="#233862"/>
<path d="M172.677 256.429C172.359 259.625 176.805 260.451 181.971 260.747C187.116 261.065 185.549 262.102 192.599 263.456C199.67 264.832 202.528 262.927 203.058 261.975C203.524 261.128 200.242 259.773 196.749 258.228C196.311 258.031 195.874 257.833 195.436 257.636C191.498 255.858 189.339 252.302 186.29 249C183.411 245.847 180.743 235.878 180.743 235.878L171.152 233.719C171.152 233.719 173.756 242.693 174.667 246.545C175.175 248.789 174.349 251.286 173.608 253.191C173.206 254.228 172.804 255.286 172.677 256.429Z" fill="#FFB27D"/>
<path d="M181.97 260.744C187.115 261.061 185.548 262.098 192.599 263.453C199.67 264.829 202.528 262.924 203.057 261.971C203.523 261.125 200.241 259.77 196.748 258.225L196.685 258.288C196.685 258.288 191.709 259.918 185.972 258.288C181.314 256.976 176.805 254.14 173.608 253.188C173.205 254.225 172.803 255.283 172.676 256.426C172.359 259.622 176.805 260.447 181.97 260.744Z" fill="#273338"/>
<path d="M158.155 145.33C152.989 141.711 118.84 135.234 101.437 133.371L82.1708 116.672C82.1708 116.672 65.784 140.927 65.657 159.511C65.5935 168.167 69.5737 169.014 69.5737 169.014C69.5737 169.014 131.31 169.48 134.02 169.755C138.445 170.22 144.288 181.248 145.749 191.301C147.21 201.334 172.954 242.204 172.954 242.204C172.954 242.204 178.311 243.919 180.809 243.77C183.476 243.622 184.704 242.733 184.704 242.733C184.704 242.733 169.8 153.5 158.155 145.33Z" fill="#273338"/>
<path d="M156.716 256.429C156.377 259.625 160.844 260.451 165.989 260.747C171.155 261.065 169.588 262.102 176.638 263.456C183.709 264.832 186.568 262.927 187.076 261.975C187.541 261.128 184.281 259.773 180.788 258.228C180.35 258.031 179.913 257.833 179.475 257.636C175.537 255.858 173.357 252.302 170.329 249C167.45 245.847 164.782 235.878 164.782 235.878L155.191 233.719C155.191 233.719 157.795 242.693 158.685 246.545C159.214 248.789 158.388 251.286 157.626 253.191C157.245 254.228 156.822 255.286 156.716 256.429Z" fill="#FFB27D"/>
<path d="M165.987 260.744C171.152 261.061 169.586 262.098 176.636 263.453C183.707 264.829 186.565 262.924 187.073 261.971C187.539 261.125 184.279 259.77 180.785 258.225L180.722 258.288C180.722 258.288 175.725 259.918 170.009 258.288C165.351 256.976 160.842 254.14 157.624 253.188C157.243 254.225 156.819 255.283 156.713 256.426C156.375 259.622 160.842 260.447 165.987 260.744Z" fill="#394B54"/>
<path d="M142.042 145.33C137.554 142.176 124.067 139.742 109.184 137.922C105.077 137.435 101.689 134.43 100.694 130.408L66.0575 116.672C66.0575 116.672 49.6707 140.927 49.5437 159.511C49.4802 168.167 53.4604 169.014 53.4604 169.014C53.4604 169.014 115.197 169.48 117.906 169.755C122.331 170.22 128.175 181.248 129.635 191.301C131.096 201.334 156.841 242.204 156.841 242.204C156.841 242.204 162.218 243.919 164.695 243.77C167.363 243.622 168.591 242.733 168.591 242.733C168.591 242.733 153.686 153.5 142.042 145.33Z" fill="#394B54"/>
<path d="M95.6977 15.8181C90.9553 13.3206 83.7146 12.9819 82.529 12.8337C68.45 10.9288 59.9814 31.3747 59.4944 37.5762C58.5629 49.0055 52.529 50.7411 44.0181 57.895C26.975 72.224 31.9715 88.9024 41.287 95.0827C46.8974 98.8078 56.7421 95.0827 56.7421 95.0827C56.8903 95.1885 83.7146 80.0976 96.9468 72.8166C116.784 69.9805 107.829 22.1889 95.6977 15.8181Z" fill="#233862"/>
<path d="M92.7754 65.7694C92.8389 65.8118 86.5086 68.6691 81.9567 67.1663C77.6801 65.7694 73.8904 59.3139 73.9539 59.2928C75.817 59.0176 77.7013 57.1974 78.2305 46.3184L79.0562 46.5089L92.9236 50.0223C92.9236 50.0223 92.3731 54.4036 92.1402 58.552C91.9497 62.0443 91.992 65.3673 92.7754 65.7694Z" fill="#FFB27D"/>
<path d="M92.9242 50.0239C92.9242 50.0239 92.9242 50.934 92.3949 55.0189C84.5615 53.0294 81.1105 50.4261 78.6758 47.4629L92.9242 50.0239Z" fill="#ED975D"/>
<path d="M95.8686 50.5711C95.8686 50.5711 77.5553 53.5554 75.8615 42.1049C74.189 30.6756 70.6957 23.3523 82.3188 20.9606C93.942 18.5689 96.8636 22.6115 98.3668 26.2943C99.8488 29.9771 100.611 49.4917 95.8686 50.5711Z" fill="#FFB27D"/>
<path d="M95.8868 20.4973C95.8868 20.4973 87.5664 33.6199 80.1352 36.7312C72.704 39.8425 69.0625 38.2763 69.0625 38.2763C69.0625 38.2763 72.4288 33.1542 73.318 26.2543C73.572 24.2436 74.9058 22.4868 76.7901 21.746C82.1253 19.6083 92.4358 16.243 95.8868 20.4973Z" fill="#233862"/>
<path d="M88.584 21.7676C88.584 21.7676 93.4534 24.2651 95.4647 26.6145C97.4125 28.858 99.6567 34.996 99.4873 37.7687C99.4873 37.7687 101.901 24.5614 96.8832 20.0109C91.5692 15.2063 88.584 21.7676 88.584 21.7676Z" fill="#233862"/>
<path d="M107.427 93.7299C106.877 130.96 107.279 123.192 103.214 126.727C102.219 127.573 99.4669 128.081 95.8254 128.314C84.414 129.076 64.3223 127.192 63.5601 125.076C60.9348 117.774 62.7979 115.509 60.5961 104.334C60.3632 103.148 60.0668 101.857 59.7492 100.46C57.9073 92.7774 56.1289 90.1529 62.6286 77.8346C68.5354 66.6593 75.4585 57.5793 76.0089 57.8968C91.57 67.1249 92.0993 59.3995 92.0993 59.3995C92.0993 59.3995 107.703 75.5487 107.427 93.7299Z" fill="#11B391"/>
<path d="M92.0977 59.3984C92.0977 59.3984 108.019 62.0864 109.903 68.9864C111.787 75.8652 122.86 116.376 122.86 116.376C122.86 116.376 114.709 117.836 110.961 114.09C107.193 110.323 97.8775 79.2093 97.8775 79.2093L92.0977 59.3984Z" fill="#11B391"/>
<path d="M95.825 128.315C84.4136 129.077 64.3219 127.193 63.5597 125.077C60.9344 117.775 62.7975 115.51 60.5957 104.335L66.1003 88.8203C66.1003 88.8203 65.1899 106.091 70.2922 110.642C75.3734 115.171 91.1462 119.404 93.6232 123.214C94.8088 125.034 95.6133 126.855 95.825 128.315Z" fill="#108B71"/>
<path d="M82.7422 121.055C82.7422 121.055 94.0054 118.536 95.8262 119.552C97.6469 120.547 102.093 124.187 102.643 125.457C103.215 126.727 98.5996 124.484 97.0964 124.081C96.1437 123.827 93.582 124.716 92.3117 125.14C86.9976 126.918 83.7372 126.007 83.7372 126.007L82.7422 121.055Z" fill="#FFB27D"/>
<path d="M76.0072 57.8965C76.0072 57.8965 60.0651 58.8278 54.8146 66.1298C47.4469 76.4163 32.8174 120.25 41.2013 126.092C50.6438 132.674 84.1794 127.806 84.1794 127.806C84.1794 127.806 85.2803 122.599 83.7348 120.081C82.1893 117.541 56.9529 113.477 55.7884 112.313C54.624 111.149 70.3544 89.6023 70.3544 86.11C70.3544 82.6177 76.0072 57.8965 76.0072 57.8965Z" fill="#11B391"/>
<path d="M96.375 122.682C96.375 122.682 98.7462 125.73 99.5084 126.09C100.292 126.45 100.779 126.365 100.779 126.365L99.1908 123.507L96.375 122.682Z" fill="#FFB27D"/>
<path d="M95.8242 119.553L102.705 122.877C102.705 122.877 102.409 123.364 101.562 123.321C100.715 123.279 98.5765 122.496 98.5765 122.496L95.8242 119.553Z" fill="#FFB27D"/>
<path d="M121.124 127.447H89.2402C89.2402 126.05 90.3835 124.906 91.7808 124.906H121.124V127.447Z" fill="#003127"/>
<path d="M121.039 92.7344H170.326L158.513 127.446H108.887L121.039 92.7344Z" fill="#003127"/>
<path d="M171.068 92.7344L159.233 127.446H109.607L121.76 92.7344H171.068Z" fill="#096A56"/>
<path d="M144.478 109.772C144.181 111.085 142.847 112.164 141.514 112.164C140.201 112.164 139.375 111.085 139.672 109.772C139.989 108.439 141.302 107.359 142.636 107.359C143.969 107.359 144.795 108.439 144.478 109.772Z" fill="white"/>
<path d="M78.21 135.257H294.265C295.175 135.257 295.916 134.517 295.916 133.606V129.098C295.916 128.188 295.175 127.447 294.265 127.447H78.21C77.2996 127.447 76.5586 128.188 76.5586 129.098V133.606C76.5586 134.517 77.2996 135.257 78.21 135.257Z" fill="#003127"/>
<path d="M299.559 263.92H299.643C300.765 263.771 301.549 262.798 301.4 261.697L282.156 131.424L275.105 131.614L297.759 262.607C297.907 263.454 298.691 264.025 299.559 263.92Z" fill="#003127"/>
<path d="M70.9687 263.92H70.884C69.7831 263.771 68.9998 262.798 69.1268 261.697L88.3928 131.424L95.443 131.614L72.7895 262.607C72.6413 263.454 71.8367 264.025 70.9687 263.92Z" fill="#003127"/>
<path d="M115.557 263.92H115.451C114.35 263.771 113.567 262.798 113.715 261.697L132.96 131.424L140.01 131.614L117.357 262.607C117.209 263.454 116.425 264.025 115.557 263.92Z" fill="#003127"/>
<path d="M409.45 265H0.564219C0.260408 265 0 264.688 0 264.284V263.716C0 263.312 0.260408 263 0.564219 263H409.45C409.754 263 410 263.312 410 263.716V264.284C410 264.688 409.754 265 409.45 265Z" fill="#2E3552"/>
<path d="M229.143 263.811H267.336C269.178 261.567 268.5 253.292 268.225 250.604C268.162 250.053 268.119 249.736 268.119 249.736C268.119 249.736 255.078 239.301 253.299 247.302C253.243 247.542 253.172 247.789 253.088 248.043C250.843 255.514 240.702 258.9 234.859 259.853C231.069 260.467 229.651 262.435 229.143 263.811Z" fill="#394B54"/>
<path d="M333.39 139.721C332.014 139.721 267.949 151.743 257.342 164.844C252.049 171.405 251.266 247.051 251.266 247.051C251.266 247.051 257.808 255.178 271.95 250.458C271.95 250.458 282.324 198.709 281.562 183.004C281.35 178.665 325.324 182.369 333.39 180.295C341.435 178.199 361.103 160.696 356.763 152.166C352.444 143.636 333.39 139.721 333.39 139.721Z" fill="#273338"/>
<path d="M257.619 121.18C257.619 121.18 244.704 121.37 241.634 122.661C238.585 123.974 232.382 126.979 234.055 127.445C235.706 127.911 243.624 127.254 245.339 127.508C247.033 127.784 249.15 127.445 250.187 127.445C251.246 127.445 256.137 127.445 256.137 127.445L257.619 121.18Z" fill="#FFB27D"/>
<path d="M242.5 90.174C242.5 90.174 238.097 87.0415 233.82 86.4277C231.385 86.0679 229.014 85.6446 227.574 85.1366C223.637 83.7397 215.74 76.6493 216.332 75.8238C218.238 73.1358 227.469 78.787 229.078 78.1944C230.687 77.5806 225.987 74.2364 227.617 73.0512C228.464 72.4374 230.475 75.5275 232.105 75.8238C234.307 76.2472 236.043 79.3796 236.699 79.5278C238.012 79.8453 243.686 84.0784 243.686 84.0784L242.5 90.174Z" fill="#FFB27D"/>
<path d="M326.998 53.4297C326.998 53.4297 317.174 56.4775 307.478 83.1672C297.781 109.836 294.097 111.275 290.583 112.333C287.047 113.37 256.137 119.529 256.137 119.529V127.445H303.773C303.773 127.445 321.641 110.449 326.998 99.0201C332.354 87.5696 326.998 53.4297 326.998 53.4297Z" fill="#004C3D"/>
<path d="M212.246 263.811H250.461C252.303 261.567 251.625 253.292 251.329 250.604C251.286 250.053 251.244 249.736 251.244 249.736C251.244 249.736 238.202 239.301 236.403 247.302C236.346 247.542 236.283 247.789 236.212 248.043C233.947 255.514 223.827 258.9 217.984 259.853C214.173 260.467 212.775 262.435 212.246 263.811Z" fill="#273338"/>
<path d="M314.505 139.721C313.129 139.721 249.064 151.743 238.457 164.844C233.164 171.405 232.381 247.051 232.381 247.051C232.381 247.051 238.944 255.178 253.087 250.458C253.087 250.458 263.439 198.709 262.677 183.004C262.466 178.665 306.46 182.369 314.505 180.295C322.55 178.199 342.219 160.696 337.9 152.166C333.559 143.636 314.505 139.721 314.505 139.721Z" fill="#394B54"/>
<path d="M318.507 61.8746C323.123 61.4936 327.95 60.266 332.142 58.9115C337.35 57.2182 341.563 54.7419 338.853 49.9796C336.355 45.5772 332.311 35.7564 332.586 27.6289L322.869 35.4601L316.263 40.7727C316.263 40.7727 316.284 43.9051 317.004 49.387C317.145 50.3888 317.307 51.4683 317.491 52.6253C317.618 53.5566 317.195 54.4879 316.39 54.9958C316.348 55.0241 316.298 55.0523 316.242 55.0805C312.96 57.1547 314.654 62.1921 318.507 61.8746Z" fill="#FFB27D"/>
<path d="M316.262 39.4801C316.262 39.4801 315.924 40.6231 316.516 44.8138C322.381 43.8614 327.886 39.1626 327.886 39.1626C324.9 38.3372 323.799 35.0989 321.576 35.4164L316.262 39.4801Z" fill="#ED975D"/>
<path d="M310.821 40.4359C310.821 40.4359 333.454 44.2033 335.571 30.0648C337.709 15.9474 342.049 6.90978 327.695 3.92545C313.341 0.919952 309.72 5.89383 307.857 10.4444C305.994 14.9738 304.999 39.1024 310.821 40.4359Z" fill="#FFB27D"/>
<path d="M304.534 4.17788C303.56 7.58552 306.164 11.7339 310.525 13.0885C317.004 15.1204 315.564 23.0575 318.486 22.9516C321.407 22.8458 322.572 18.3799 325.176 21.9569C327.399 24.9835 323.334 28.5816 323.609 30.2537C324.096 33.111 328.585 38.9739 332.628 38.6776C336.651 38.3813 344.209 19.1842 342.706 13.2578C341.203 7.31036 335.148 1.04538 329.431 0.1776C323.694 -0.669019 315.755 1.78617 313.913 1.78617C312.071 1.78617 305.042 2.33648 304.534 4.17788Z" fill="#2B478B"/>
<path d="M357.06 73.0293C353.799 59.8643 344.759 46.0645 338.64 46.0645C328.224 46.0856 313.256 48.8371 307.222 63.7588C302.755 74.7225 296.827 137.901 303.538 142.388C318.887 152.654 354.434 173.608 360.765 152.23C366.545 132.652 362.755 95.8668 357.06 73.0293Z" fill="#096A56"/>
<path d="M331.781 59.9263C328.796 52.201 319.226 49.5341 312.684 54.6138C309.149 57.3653 304.809 61.2809 299.579 66.8475C280.144 87.5473 276.206 87.4203 272.543 86.9758C268.902 86.5525 238.055 80.0124 238.055 80.0124C238.055 80.0124 236.488 81.1765 235.557 83.0602C234.308 85.5789 234.943 87.2933 234.943 87.2933C233.715 86.5102 245.867 94.8705 251.901 98.2147C259.883 102.617 271.908 106.744 276.714 108.311C278.069 108.755 279.53 108.734 280.864 108.247C287.977 105.686 311.859 96.3521 331.294 80.1605C336.418 75.8851 334.533 67.1014 331.781 59.9263Z" fill="#096A56"/>
<path d="M339.698 46.1934L337.327 40.8809C337.327 40.8809 316.219 42.6164 312.684 54.6172C312.684 54.6172 329.049 46.4685 339.698 46.1934Z" fill="white"/>
<path d="M390.935 263.348H391.083C392.29 263.327 393.2 262.353 393.094 261.231L385.134 181.84L378.189 182.454L389.622 262.269C389.707 262.904 390.278 263.348 390.935 263.348Z" fill="#9DEFDE"/>
<path d="M350.011 263.348H350.159C351.366 263.327 352.276 262.353 352.17 261.231L344.21 181.84L337.266 182.454L348.698 262.269C348.783 262.904 349.355 263.348 350.011 263.348Z" fill="#9DEFDE"/>
<path d="M273.178 263.348H273.03C271.844 263.327 270.934 262.353 271.04 261.231L279 181.84L285.923 182.454L274.512 262.269C274.427 262.904 273.855 263.348 273.178 263.348Z" fill="#9DEFDE"/>
<path d="M388.691 170.602L396.249 104.291C397.223 94.745 394.026 85.3899 380.244 84.6491L355.981 83.1887C341.606 82.5749 335.106 94.5545 333.285 103.762L318.889 176.655L388.691 170.602Z" fill="#9DEFDE"/>
<path d="M384.645 183.006H276.946C274.786 183.006 273.008 181.228 273.008 179.069V174.222C273.008 172.063 274.786 170.285 276.946 170.285H388.583V179.069C388.583 181.228 386.805 183.006 384.645 183.006Z" fill="#9DEFDE"/>
<path d="M385.515 183.006H321.937C320.244 183.006 318.889 181.63 318.889 179.937V173.354C318.889 171.661 320.244 170.285 321.937 170.285H388.585V179.937C388.585 181.63 387.209 183.006 385.515 183.006Z" fill="#9DEFDE"/>
</svg>
