<svg width="411" height="392" viewBox="0 0 411 392" fill="none" xmlns="http://www.w3.org/2000/svg">
<path d="M71.3792 391.516H24.7188V215.781H71.3792V391.516Z" fill="#F5F5F5"/>
<path d="M324.33 390.547H277.625V274.242H324.33V390.547Z" fill="#F5F5F5"/>
<path d="M395.623 390.548H348.918V182.785H395.623V390.548Z" fill="#F5F5F5"/>
<path d="M245.244 390.548H198.539V190.318H245.244V390.548Z" fill="#F5F5F5"/>
<path d="M151.571 390.548H104.91V133.664H151.571V390.548Z" fill="#F5F5F5"/>
<path d="M348.918 18.8555C348.918 18.8555 348.698 19.0904 348.257 19.5603C347.787 20.0009 347.112 20.6617 346.23 21.5428C344.424 23.305 341.78 25.9042 338.343 29.2524C331.47 35.9928 321.468 45.7289 308.999 57.888C284.06 82.1623 249.208 116.084 209.642 154.588L209.465 154.765L209.289 154.544C201.49 145.205 193.339 135.425 185.012 125.468C162.629 98.6388 141.435 73.2632 122.621 50.7071L122.974 50.6631C100.811 83.9244 82.1294 112.031 68.9552 131.856C62.346 141.724 57.1469 149.566 53.5779 154.897C51.7714 157.54 50.4055 159.611 49.4803 160.976C49.0103 161.681 48.6578 162.21 48.4228 162.562C48.1878 162.915 48.0703 163.091 48.0703 163.091C48.0703 163.091 48.1731 162.9 48.3787 162.518C48.6137 162.166 48.9662 161.652 49.4362 160.976C50.3615 159.567 51.6833 157.496 53.4457 154.809C57.0147 149.478 62.1698 141.636 68.7349 131.724C81.865 111.899 100.547 83.7482 122.621 50.4428L122.754 50.2225L122.93 50.4428C141.788 72.9548 162.981 98.3744 185.364 125.16C193.647 135.116 201.843 144.896 209.642 154.28L209.289 154.236C248.9 115.776 283.796 81.942 308.779 57.6678C321.292 45.5527 331.338 35.8606 338.211 29.1643C341.692 25.8161 344.336 23.2169 346.142 21.4988C347.053 20.6177 347.743 19.9568 348.213 19.5163C348.683 19.0757 348.918 18.8555 348.918 18.8555Z" fill="#EBEBEB"/>
<path d="M131.433 50.5753C131.433 55.3332 127.556 59.21 122.797 59.21C117.995 59.21 114.117 55.3332 114.117 50.5753C114.117 45.7733 117.995 41.8965 122.797 41.8965C127.556 41.8965 131.433 45.7733 131.433 50.5753Z" fill="#EBEBEB"/>
<path d="M56.7066 163.091C56.7066 167.849 52.8292 171.726 48.0706 171.726C43.268 171.726 39.3906 167.849 39.3906 163.091C39.3906 158.289 43.268 154.412 48.0706 154.412C52.8292 154.412 56.7066 158.289 56.7066 163.091Z" fill="#EBEBEB"/>
<path d="M218.145 154.412C218.145 159.214 214.268 163.091 209.465 163.091C204.707 163.091 200.785 159.214 200.785 154.412C200.785 149.654 204.707 145.777 209.465 145.777C214.268 145.777 218.145 149.654 218.145 154.412Z" fill="#EBEBEB"/>
<path d="M362.003 15.5519C362.003 20.3098 358.126 24.1866 353.367 24.1866C348.565 24.1866 344.688 20.3098 344.688 15.5519C344.688 10.7499 348.565 6.87305 353.367 6.87305C358.126 6.87305 362.003 10.7499 362.003 15.5519Z" fill="#EBEBEB"/>
<path fill-rule="evenodd" clip-rule="evenodd" d="M36.306 32.7322C38.4209 31.4546 40.668 30.4854 43.0033 29.8246L44.3692 23.2164L55.5606 22.9961L57.1909 29.6043C59.5261 30.177 61.8173 31.0581 63.9763 32.2476L69.6601 28.547L77.7232 36.3447L74.1984 42.1159C75.4761 44.2305 76.4455 46.5214 77.1064 48.8122L83.7596 50.222L83.9358 61.4119L77.3708 63.0419C76.798 65.3768 75.9168 67.6677 74.683 69.8264L78.3842 75.5095L70.6294 83.5715L64.8134 80.0471C62.6985 81.3247 60.4514 82.2939 58.1162 82.9547L56.7503 89.607L45.5588 89.7832L43.9286 83.219C41.5933 82.6463 39.3022 81.7212 37.1432 80.5317L31.4593 84.2323L23.3962 76.4787L26.921 70.6634C25.6433 68.5488 24.6739 66.302 24.013 63.9671L17.3598 62.6014L17.1836 51.3674L23.7487 49.7814C24.3215 47.4025 25.2027 45.1116 26.4364 42.9529L22.6912 37.3139L30.49 29.2519L36.306 32.7322ZM42.2983 47.6668C37.6719 52.4247 37.8041 60.0462 42.5627 64.672C47.3653 69.2537 54.9878 69.1215 59.5702 64.3636C64.1966 59.5616 64.0644 51.9842 59.3058 47.3584C54.5032 42.7327 46.8806 42.8648 42.2983 47.6668Z" fill="#EBEBEB"/>
<path fill-rule="evenodd" clip-rule="evenodd" d="M221.273 12.5116C223.873 10.9256 226.693 9.69205 229.601 8.89906L231.319 0.660813L245.242 0.396484L247.225 8.59068C250.133 9.29556 252.997 10.3969 255.685 11.8948L262.735 7.26904L272.736 16.9611L268.374 24.142C269.961 26.7853 271.194 29.6048 271.987 32.5125L280.271 34.1865L280.491 48.1519L272.296 50.1344C271.591 53.042 270.489 55.9056 268.991 58.5929L273.618 65.6417L263.924 75.6421L256.742 71.2807C254.099 72.8667 251.279 74.1002 248.415 74.8932L246.696 83.1314L232.773 83.3958L230.746 75.2016C227.838 74.4967 224.974 73.3953 222.287 71.8975L215.281 76.5232L205.235 66.8312L209.597 59.6502C208.011 57.0069 206.821 54.1874 205.984 51.3239L197.745 49.6057L197.48 35.6403L205.676 33.6579C206.381 30.7503 207.482 27.8867 208.98 25.1994L204.398 18.1506L214.047 8.15013L221.273 12.5116ZM228.72 31.0586C222.992 37.006 223.124 46.4778 229.072 52.205C235.02 57.9321 244.493 57.7559 250.221 51.8085C255.949 45.8611 255.773 36.4333 249.825 30.7062C243.921 24.935 234.448 25.1112 228.72 31.0586Z" fill="#F5F5F5"/>
<path fill-rule="evenodd" clip-rule="evenodd" d="M89.8846 5.06631C90.9862 4.40548 92.1758 3.92088 93.3654 3.56844L94.1145 0.0881083L99.9746 0L100.812 3.43628C102.045 3.74466 103.235 4.18521 104.381 4.84603L107.333 2.86356L111.563 6.96066L109.712 10.0004C110.373 11.1018 110.902 12.2913 111.254 13.4808L114.735 14.2297L114.823 20.089L111.386 20.926C111.078 22.1596 110.593 23.3491 109.976 24.4945L111.915 27.4462L107.861 31.6754L104.821 29.8251C103.72 30.4859 102.53 31.0146 101.296 31.367L100.591 34.8474L94.7313 34.9355L93.8942 31.4992C92.6605 31.1908 91.4268 30.7062 90.3252 30.0895L87.3291 32.0279L83.1433 27.9748L84.9498 24.935C84.2889 23.8337 83.8042 22.6442 83.4517 21.4106L79.9709 20.7058L79.8828 14.8465L83.3196 13.9654C83.628 12.7759 84.0686 11.5424 84.7295 10.441L82.7468 7.44527L86.8444 3.26006L89.8846 5.06631ZM93.013 12.864C90.5896 15.3751 90.6777 19.3401 93.1451 21.7631C95.6566 24.1861 99.6662 24.098 102.045 21.5869C104.469 19.1198 104.425 15.1108 101.913 12.6878C99.4018 10.3088 95.4363 10.3529 93.013 12.864Z" fill="#F5F5F5"/>
<path fill-rule="evenodd" clip-rule="evenodd" d="M363.105 66.6549C364.603 65.7297 366.233 65.0689 367.863 64.5843L368.833 59.9145L376.764 59.7383L377.909 64.4081C379.584 64.8046 381.214 65.4654 382.712 66.3024L386.721 63.7032L392.449 69.2101L389.982 73.3072C390.863 74.805 391.568 76.391 392.009 78.021L396.723 79.0343L396.855 86.9642L392.185 88.0655C391.788 89.7396 391.172 91.3696 390.29 92.9116L392.934 96.9206L387.426 102.604L383.329 100.137C381.831 101.018 380.244 101.723 378.57 102.207L377.601 106.877L369.67 107.009L368.524 102.383C366.85 101.943 365.264 101.326 363.722 100.489L359.712 103.088L353.984 97.5814L356.496 93.4843C355.57 91.9864 354.909 90.4004 354.425 88.7704L349.71 87.7572L349.578 79.8273L354.249 78.6819C354.645 77.0518 355.306 75.4218 356.143 73.8799L353.5 69.8709L359.007 64.1878L363.105 66.6549ZM367.335 77.184C364.074 80.5762 364.162 85.995 367.555 89.255C370.948 92.5151 376.323 92.427 379.584 89.0347C382.844 85.6425 382.756 80.2678 379.363 77.0078C376.015 73.7477 370.595 73.8358 367.335 77.184Z" fill="#F5F5F5"/>
<path d="M411 391.736C411 391.868 319.001 392 205.5 392C91.9991 392 0 391.868 0 391.736C0 391.604 91.9991 391.516 205.5 391.516C319.001 391.516 411 391.604 411 391.736Z" fill="#263238"/>
<path d="M269.037 391.737H341.385C342.751 391.737 343.852 390.592 343.764 389.182L340.151 338.034C340.063 336.757 339.006 335.787 337.772 335.787L271.372 335.699C270.094 335.699 269.037 336.712 268.993 337.99L266.658 389.27C266.614 390.636 267.671 391.737 269.037 391.737Z" fill="#353F4E"/>
<path d="M278.992 391.737C279.125 391.737 279.213 379.225 279.213 363.762C279.213 348.343 279.125 335.787 278.992 335.787C278.904 335.787 278.816 348.343 278.816 363.762C278.816 379.225 278.904 391.737 278.992 391.737Z" fill="#455A64"/>
<path d="M279.875 337.152C279.875 337.152 279.904 337.211 279.963 337.328C280.051 337.475 280.169 337.666 280.316 337.901C280.668 338.43 281.138 339.164 281.726 340.104C282.959 341.998 284.766 344.773 287.145 347.989C289.568 351.249 292.653 354.994 296.75 358.474C298.821 360.193 301.112 361.823 303.712 363.232C306.267 364.554 309.176 365.655 312.304 365.92C315.432 366.184 318.472 365.479 321.204 364.378C323.892 363.276 326.315 361.779 328.43 360.06C332.616 356.668 335.348 352.527 337.066 348.871C338.74 345.17 339.357 341.866 339.622 339.663C339.666 339.09 339.71 338.562 339.754 338.165C339.754 337.725 339.754 337.343 339.754 337.02C339.754 336.755 339.754 336.535 339.754 336.359C339.754 336.212 339.754 336.139 339.754 336.139C339.724 336.139 339.71 336.212 339.71 336.359C339.71 336.535 339.695 336.755 339.666 337.02C339.666 337.343 339.651 337.71 339.622 338.121C339.578 338.562 339.489 339.046 339.445 339.619C339.137 341.866 338.52 345.082 336.802 348.738C335.083 352.351 332.307 356.448 328.166 359.796C326.095 361.47 323.716 362.924 321.028 364.025C318.384 365.083 315.388 365.744 312.348 365.523C309.308 365.259 306.444 364.202 303.888 362.88C301.333 361.514 299.041 359.884 297.015 358.166C292.917 354.774 289.833 351.029 287.365 347.813C284.942 344.597 283.136 341.91 281.858 340.015C281.241 339.105 280.756 338.385 280.404 337.857C280.257 337.651 280.125 337.475 280.007 337.328C279.919 337.181 279.875 337.123 279.875 337.152Z" fill="#455A64"/>
<path d="M309.793 365.964C309.793 367.771 311.291 369.268 313.142 369.268C314.948 369.268 316.446 367.771 316.446 365.964C316.446 364.114 314.948 362.66 313.142 362.66C311.291 362.66 309.793 364.114 309.793 365.964Z" fill="#455A64"/>
<path d="M290.363 325.389C291.773 324.111 293.711 323.626 295.606 323.45C300.144 322.966 305.167 323.935 309.133 326.182C313.098 328.428 316.006 332.173 317.945 336.314L315.345 339.045C314.288 334.772 311.908 331.028 308.207 328.56C304.506 326.137 300.585 325.036 296.223 325.697C295.209 325.873 293.799 326.27 292.962 326.842C291.244 328.032 290.98 329.397 291.288 331.204C291.729 333.803 292.39 334.948 293.535 336.358C291.596 336.402 291.156 336.402 289.217 336.446C288.732 334.552 288.248 332.658 288.292 330.675C288.336 328.737 288.953 326.71 290.363 325.389Z" fill="#263238"/>
<path d="M217.75 375.7H190.344V364.906H217.75V375.7Z" fill="#FAFAFA"/>
<path d="M275.29 365.303H189.195V363.057H275.29V365.303Z" fill="#282F3B"/>
<path d="M275.292 377.462H189.594V375.215H275.292V377.462Z" fill="#282F3B"/>
<path d="M217.75 363.586L217.882 377.067H275.294V363.586H217.75Z" fill="#424F62"/>
<path d="M231.716 370.282C231.716 372.132 230.307 373.63 228.588 373.63C226.87 373.63 225.504 372.132 225.504 370.282C225.504 368.431 226.87 366.934 228.588 366.934C230.307 366.934 231.716 368.431 231.716 370.282Z" fill="#263238"/>
<path fill-rule="evenodd" clip-rule="evenodd" d="M228.588 374.115C226.65 374.115 225.02 372.397 225.02 370.282C225.02 368.167 226.65 366.449 228.588 366.449C230.571 366.449 232.201 368.167 232.201 370.282C232.201 372.397 230.571 374.115 228.588 374.115ZM228.588 367.418C227.179 367.418 225.989 368.696 225.989 370.282C225.989 371.868 227.179 373.19 228.588 373.19C230.042 373.19 231.232 371.868 231.232 370.282C231.232 368.696 230.042 367.418 228.588 367.418Z" fill="#E0E0E0"/>
<path d="M215.678 373.057C215.678 373.189 210.039 373.321 203.121 373.321C196.159 373.321 190.52 373.189 190.52 373.057C190.52 372.925 196.159 372.793 203.121 372.793C210.039 372.793 215.678 372.925 215.678 373.057Z" fill="#263238"/>
<path d="M215.678 371.163C215.678 371.295 210.039 371.427 203.121 371.427C196.159 371.427 190.52 371.295 190.52 371.163C190.52 371.031 196.159 370.898 203.121 370.898C210.039 370.898 215.678 371.031 215.678 371.163Z" fill="#263238"/>
<path d="M215.678 369.267C215.678 369.443 210.039 369.531 203.121 369.531C196.159 369.531 190.52 369.443 190.52 369.267C190.52 369.135 196.159 369.047 203.121 369.047C210.039 369.047 215.678 369.135 215.678 369.267Z" fill="#263238"/>
<path d="M215.678 367.416C215.678 367.549 210.039 367.637 203.121 367.637C196.159 367.637 190.52 367.549 190.52 367.416C190.52 367.284 196.159 367.152 203.121 367.152C210.039 367.152 215.678 367.284 215.678 367.416Z" fill="#263238"/>
<path d="M268.947 373.63H243.039V366.449H268.947V373.63Z" fill="white"/>
<path d="M247.092 372.924C246.96 372.924 246.828 371.646 246.828 370.06C246.828 368.474 246.96 367.152 247.092 367.152C247.224 367.152 247.356 368.474 247.356 370.06C247.356 371.646 247.224 372.924 247.092 372.924Z" fill="#E0E0E0"/>
<path d="M250.53 372.924C250.354 372.924 250.266 371.646 250.266 370.06C250.266 368.474 250.354 367.152 250.53 367.152C250.662 367.152 250.75 368.474 250.75 370.06C250.75 371.646 250.662 372.924 250.53 372.924Z" fill="#E0E0E0"/>
<path d="M253.923 372.924C253.791 372.924 253.703 371.646 253.703 370.06C253.703 368.474 253.791 367.152 253.923 367.152C254.055 367.152 254.187 368.474 254.187 370.06C254.187 371.646 254.055 372.924 253.923 372.924Z" fill="#E0E0E0"/>
<path d="M257.358 372.924C257.226 372.924 257.094 371.646 257.094 370.06C257.094 368.474 257.226 367.152 257.358 367.152C257.49 367.152 257.622 368.474 257.622 370.06C257.622 371.646 257.49 372.924 257.358 372.924Z" fill="#E0E0E0"/>
<path d="M260.795 372.924C260.619 372.924 260.531 371.646 260.531 370.06C260.531 368.474 260.619 367.152 260.795 367.152C260.927 367.152 261.016 368.474 261.016 370.06C261.016 371.646 260.927 372.924 260.795 372.924Z" fill="#E0E0E0"/>
<path d="M264.189 372.924C264.057 372.924 263.969 371.646 263.969 370.06C263.969 368.474 264.057 367.152 264.189 367.152C264.321 367.152 264.453 368.474 264.453 370.06C264.453 371.646 264.321 372.924 264.189 372.924Z" fill="#E0E0E0"/>
<path d="M221.407 389.754H193.957V378.916H221.407V389.754Z" fill="#FAFAFA"/>
<path d="M278.948 379.357H192.809V377.066H278.948V379.357Z" fill="#003C2F"/>
<path d="M278.948 391.516H193.25V389.27H278.948V391.516Z" fill="#003C2F"/>
<path d="M221.406 377.639L221.538 391.075H278.95V377.639H221.406Z" fill="#096A56"/>
<path d="M235.373 384.335C235.373 386.185 233.963 387.683 232.244 387.683C230.526 387.683 229.16 386.185 229.16 384.335C229.16 382.484 230.526 380.986 232.244 380.986C233.963 380.986 235.373 382.484 235.373 384.335Z" fill="#263238"/>
<path fill-rule="evenodd" clip-rule="evenodd" d="M232.245 388.167C230.262 388.167 228.676 386.449 228.676 384.335C228.676 382.22 230.262 380.502 232.245 380.502C234.227 380.502 235.814 382.22 235.814 384.335C235.814 386.449 234.227 388.167 232.245 388.167ZM232.245 381.471C230.791 381.471 229.645 382.749 229.645 384.335C229.645 385.921 230.791 387.198 232.245 387.198C233.699 387.198 234.888 385.921 234.888 384.335C234.888 382.749 233.699 381.471 232.245 381.471Z" fill="#E0E0E0"/>
<path d="M219.335 387.11C219.335 387.242 213.695 387.33 206.733 387.33C199.816 387.33 194.176 387.242 194.176 387.11C194.176 386.934 199.816 386.846 206.733 386.846C213.695 386.846 219.335 386.934 219.335 387.11Z" fill="#263238"/>
<path d="M219.335 385.217C219.335 385.349 213.695 385.437 206.733 385.437C199.816 385.437 194.176 385.349 194.176 385.217C194.176 385.085 199.816 384.953 206.733 384.953C213.695 384.953 219.335 385.085 219.335 385.217Z" fill="#263238"/>
<path d="M219.335 383.321C219.335 383.453 213.695 383.585 206.733 383.585C199.816 383.585 194.176 383.453 194.176 383.321C194.176 383.189 199.816 383.057 206.733 383.057C213.695 383.057 219.335 383.189 219.335 383.321Z" fill="#263238"/>
<path d="M219.335 381.427C219.335 381.603 213.695 381.691 206.733 381.691C199.816 381.691 194.176 381.603 194.176 381.427C194.176 381.295 199.816 381.207 206.733 381.207C213.695 381.207 219.335 381.295 219.335 381.427Z" fill="#263238"/>
<path d="M272.603 387.683H246.695V380.502H272.603V387.683Z" fill="white"/>
<path d="M250.749 386.978C250.616 386.978 250.484 385.657 250.484 384.071C250.484 382.485 250.616 381.207 250.749 381.207C250.881 381.207 250.969 382.485 250.969 384.071C250.969 385.657 250.881 386.978 250.749 386.978Z" fill="#E0E0E0"/>
<path d="M254.142 386.978C254.01 386.978 253.922 385.657 253.922 384.071C253.922 382.485 254.01 381.207 254.142 381.207C254.274 381.207 254.406 382.485 254.406 384.071C254.406 385.657 254.274 386.978 254.142 386.978Z" fill="#E0E0E0"/>
<path d="M257.581 386.978C257.448 386.978 257.316 385.657 257.316 384.071C257.316 382.485 257.448 381.207 257.581 381.207C257.713 381.207 257.845 382.485 257.845 384.071C257.845 385.657 257.713 386.978 257.581 386.978Z" fill="#E0E0E0"/>
<path d="M261.014 386.978C260.838 386.978 260.75 385.657 260.75 384.071C260.75 382.485 260.838 381.207 261.014 381.207C261.146 381.207 261.234 382.485 261.234 384.071C261.234 385.657 261.146 386.978 261.014 386.978Z" fill="#E0E0E0"/>
<path d="M264.408 386.978C264.276 386.978 264.188 385.657 264.188 384.071C264.188 382.485 264.276 381.207 264.408 381.207C264.54 381.207 264.672 382.485 264.672 384.071C264.672 385.657 264.54 386.978 264.408 386.978Z" fill="#E0E0E0"/>
<path d="M267.846 386.978C267.714 386.978 267.582 385.657 267.582 384.071C267.582 382.485 267.714 381.207 267.846 381.207C267.978 381.207 268.11 382.485 268.11 384.071C268.11 385.657 267.978 386.978 267.846 386.978Z" fill="#E0E0E0"/>
<path d="M165.405 119.917L158.311 118.507C153.509 121.195 147.869 122.472 141.965 121.9C127.953 120.446 117.159 108.375 117.247 94.2772C117.379 78.021 131.434 65.3773 147.737 67.0514C161.528 68.5052 172.279 80.3119 172.367 94.1891C172.455 101.106 169.988 107.362 165.89 112.208H165.934L165.405 119.917Z" fill="white"/>
<path d="M165.402 119.918C165.402 119.918 165.402 119.741 165.402 119.433C165.431 119.051 165.46 118.552 165.49 117.935C165.578 116.614 165.666 114.675 165.798 112.208L165.974 112.296C165.93 112.34 165.842 112.296 165.842 112.252C165.798 112.252 165.798 112.164 165.842 112.164C168.001 109.521 170.469 105.6 171.614 100.269C172.187 97.6259 172.363 94.6743 172.055 91.5904C171.702 88.5066 170.777 85.2465 169.191 82.1186C167.605 79.0348 165.314 76.0831 162.406 73.6161C159.498 71.193 155.973 69.1665 152.007 68.1533C148.042 67.0519 143.724 66.8757 139.494 67.7127C135.264 68.5057 131.122 70.4441 127.642 73.2636C125.835 74.6734 124.337 76.3915 122.971 78.1097C122.31 79.0348 121.693 79.96 121.121 80.8851L120.371 82.3389L119.975 83.0878L119.666 83.8368C117.992 87.8898 117.331 92.2072 117.596 96.3043C117.816 100.445 119.094 104.322 120.944 107.67C122.839 111.063 125.306 113.882 128.082 116.041C130.858 118.2 133.898 119.741 136.894 120.667C137.629 120.872 138.363 121.063 139.097 121.239C139.846 121.416 140.595 121.504 141.3 121.592C142.754 121.812 144.164 121.856 145.53 121.856C150.95 121.724 155.312 120.05 158.22 118.42C158.249 118.42 158.279 118.42 158.308 118.42C160.555 118.904 162.317 119.257 163.551 119.521C164.139 119.639 164.594 119.741 164.917 119.83C165.225 119.874 165.402 119.918 165.402 119.918C165.402 119.947 165.24 119.932 164.917 119.874C164.594 119.815 164.153 119.727 163.595 119.609C162.361 119.389 160.555 119.037 158.264 118.596H158.352C155.4 120.27 151.038 122.032 145.53 122.164C144.164 122.209 142.754 122.164 141.256 121.944C140.551 121.812 139.802 121.768 139.053 121.592C138.29 121.416 137.526 121.225 136.762 121.019C133.722 120.094 130.638 118.552 127.818 116.393C124.998 114.191 122.486 111.327 120.592 107.891C118.697 104.498 117.331 100.534 117.111 96.3484C116.847 92.1631 117.508 87.7577 119.226 83.6606L119.534 82.8676L119.931 82.1186C120.195 81.6487 120.46 81.1641 120.724 80.6648C121.253 79.6956 121.914 78.7705 122.575 77.8013C123.984 76.0391 125.483 74.3209 127.333 72.9112C130.902 70.0036 135.088 68.0211 139.406 67.2281C143.724 66.3911 148.13 66.5673 152.139 67.6687C156.149 68.726 159.762 70.7965 162.714 73.2636C165.666 75.7747 167.957 78.7705 169.587 81.9424C171.174 85.1144 172.099 88.4185 172.407 91.5464C172.716 94.7183 172.495 97.67 171.923 100.357C170.733 105.688 168.178 109.653 165.974 112.296L165.842 112.12C165.886 112.076 165.974 112.076 166.019 112.164C166.019 112.164 166.019 112.179 166.019 112.208C165.842 114.719 165.666 116.658 165.578 117.979C165.519 118.625 165.475 119.11 165.446 119.433C165.416 119.786 165.402 119.947 165.402 119.918Z" fill="#263238"/>
<path d="M132.625 96.2605L136.062 92.5599L143.156 98.4632L156.242 84.9824L159.678 88.4187L142.891 105.38L132.625 96.2605Z" fill="#096A56"/>
<path d="M356.804 73.6152H334.377L268.902 113C269.167 113.397 276.877 118.948 286.967 126.173L192.192 300.718L112.839 265.694L42.6055 391.911H80.9825L129.405 303.493L202.194 337.239L233.037 340.896L316.62 147.231C327.107 154.676 335.17 160.403 335.17 160.403H357.597C357.597 160.403 351.076 105.467 351.076 105.07C351.076 104.63 356.804 73.6152 356.804 73.6152Z" fill="#003C2F"/>
<path opacity="0.3" d="M356.804 73.6152H334.377L268.902 113C269.167 113.397 276.877 118.948 286.967 126.173L192.192 300.718L112.839 265.694L42.6055 391.911H80.9825L129.405 303.493L202.194 337.239L233.037 340.896L316.62 147.231C327.107 154.676 335.17 160.403 335.17 160.403H357.597C357.597 160.403 351.076 105.467 351.076 105.07C351.076 104.63 356.804 73.6152 356.804 73.6152Z" fill="#003C2F"/>
<path d="M65.2969 391.911L135.838 264.593L214.884 300.718L316.84 113L347.198 128.948L233.037 340.896L152.097 303.493L103.674 391.911H65.2969Z" fill="#096A56"/>
<path d="M291.375 113C292.08 114.102 357.599 160.403 357.599 160.403L356.805 73.6152L291.375 113Z" fill="#096A56"/>
<path d="M291.373 113.001C291.373 113.133 286.35 113.222 280.138 113.222C273.925 113.222 268.902 113.133 268.902 113.001C268.902 112.869 273.925 112.781 280.138 112.781C286.35 112.781 291.373 112.869 291.373 113.001Z" fill="#263238"/>
<path d="M308.868 126.569C308.868 126.657 303.845 126.789 297.677 126.789C291.464 126.789 286.441 126.657 286.441 126.569C286.441 126.437 291.464 126.305 297.677 126.305C303.845 126.305 308.868 126.437 308.868 126.569Z" fill="#263238"/>
<path d="M140.379 205.119C140.379 205.119 139.014 205.736 138.837 203.93C138.617 202.079 142.406 198.29 143.596 197.101C144.83 195.912 146.548 196.176 148.09 196.528C149.632 196.837 155.933 197.497 158.004 198.819C160.075 200.141 163.291 206.881 163.952 207.19C164.613 207.498 184.22 208.555 184.22 208.555L183.383 224.635C183.383 224.635 164.128 220.935 160.339 218.556C156.506 216.177 156.99 215.252 155.933 213.005C154.831 210.802 153.686 208.423 153.686 208.423L151.879 208.115L148.971 209.701C148.971 209.701 148.619 213.798 145.799 213.71L144.389 212.961C144.389 212.961 143.464 214.018 142.362 212.344C141.305 210.714 141.525 210.362 141.525 210.362C141.525 210.362 140.379 211.771 139.19 210.053C137.956 208.335 140.379 205.119 140.379 205.119Z" fill="#AE7461"/>
<path d="M161.524 211.949C161.524 211.978 161.451 212.007 161.304 212.037C161.157 212.066 160.951 212.081 160.687 212.081C160.114 212.081 159.277 211.949 158.352 211.42C157.471 210.935 156.545 210.01 155.929 208.733C155.312 207.455 155.003 205.869 154.915 204.239L155.224 204.415C153.946 204.988 152.404 205.384 150.817 205.428C149.716 205.472 148.614 205.384 147.601 205.12C147.116 204.944 146.544 204.9 146.103 204.415C145.883 204.195 145.839 203.754 146.059 203.49C146.279 203.226 146.544 203.138 146.764 203.005C148.526 202.301 150.157 201.772 151.522 201.331C152.888 200.891 154.034 200.626 154.827 200.45C155.576 200.274 156.017 200.186 156.061 200.23C156.061 200.274 155.62 200.406 154.871 200.626C154.078 200.847 152.976 201.199 151.611 201.64C150.245 202.08 148.658 202.697 146.896 203.402C146.72 203.49 146.5 203.622 146.411 203.71C146.323 203.857 146.338 204.004 146.455 204.151C146.676 204.415 147.204 204.547 147.689 204.68C148.658 204.9 149.716 205.032 150.817 204.988C152.316 204.944 153.814 204.591 155.047 204.019L155.356 203.887V204.195C155.4 205.825 155.708 207.323 156.281 208.556C156.81 209.79 157.691 210.671 158.528 211.2C159.365 211.728 160.158 211.904 160.687 211.949C161.216 211.993 161.524 211.949 161.524 211.949Z" fill="#6F4439"/>
<path d="M151.612 200.933C151.656 200.977 150.951 201.374 149.761 201.285C149.144 201.285 148.484 201.197 147.734 201.241C146.985 201.285 146.325 201.594 145.752 202.255C144.562 203.576 143.108 204.457 142.051 204.898C140.949 205.382 140.244 205.471 140.244 205.427C140.2 205.338 140.905 205.118 141.918 204.634C142.932 204.105 144.254 203.224 145.399 201.946C145.708 201.594 146.06 201.285 146.501 201.109C146.897 200.889 147.338 200.845 147.734 200.801C148.528 200.801 149.189 200.933 149.761 200.977C150.907 201.109 151.568 200.889 151.612 200.933Z" fill="#6F4439"/>
<path d="M147.56 205.208C147.648 205.252 146.855 207.058 145.048 208.6C143.242 210.186 141.347 210.671 141.347 210.583C141.259 210.45 143.021 209.746 144.74 208.248C146.502 206.794 147.427 205.164 147.56 205.208Z" fill="#6F4439"/>
<path d="M148.266 207.675C148.398 207.719 148.134 209.261 146.989 210.847C145.843 212.389 144.389 213.138 144.345 213.005C144.301 212.917 145.535 212.036 146.592 210.582C147.694 209.085 148.134 207.631 148.266 207.675Z" fill="#6F4439"/>
<path d="M207.525 173.797L189.945 205.472L162.715 204.988L160.645 221.376L188.799 228.249L200.343 215.561L207.525 173.797Z" fill="#E0E0E0"/>
<path d="M192.147 210.847C192.015 210.847 191.839 209.569 191.222 208.072C190.649 206.618 189.856 205.56 189.944 205.472C190.032 205.384 191.046 206.353 191.663 207.939C192.324 209.481 192.279 210.847 192.147 210.847Z" fill="#263238"/>
<path d="M214.18 117.715C211.977 118.023 209.686 116.437 209.157 114.234C208.628 112.075 209.994 109.608 212.109 108.859C210.699 107.494 210.303 105.159 211.184 103.397C212.065 101.59 214.136 100.489 216.119 100.797C216.163 98.815 217.264 96.9206 218.983 95.9514C220.701 94.9822 222.904 94.9822 224.622 95.9514C226.737 94.0571 230.218 93.9249 232.465 95.643C234.36 95.2906 236.475 96.2598 237.4 97.9339C238.325 99.652 237.973 101.943 236.651 103.309" fill="#263238"/>
<path d="M233.565 100.137L232.552 100.181C222.418 100.357 214.178 108.287 213.561 118.375C212.989 127.759 212.46 138.156 212.636 143.178C212.944 153.575 223.387 154.985 223.387 154.985L222.77 167.541L224.004 177.056L248.017 166.263L249.383 120.842C250.088 110.005 244.404 100.577 233.565 100.137Z" fill="#AE7461"/>
<path d="M223.302 154.984C223.302 154.984 229.955 155.249 236.873 150.711C236.873 150.711 233.656 158.773 223.258 158.068L223.302 154.984Z" fill="#6F4439"/>
<path d="M216.91 128.993C216.91 129.786 217.571 130.447 218.408 130.447C219.201 130.491 219.862 129.874 219.906 129.081C219.906 128.332 219.245 127.671 218.452 127.627C217.615 127.583 216.954 128.2 216.91 128.993Z" fill="#263238"/>
<path d="M215.897 123.442C216.073 123.618 217.174 122.781 218.761 122.737C220.391 122.693 221.58 123.486 221.757 123.31C221.845 123.222 221.624 122.869 221.096 122.517C220.611 122.121 219.73 121.812 218.716 121.812C217.747 121.857 216.91 122.209 216.425 122.605C215.941 123.002 215.808 123.354 215.897 123.442Z" fill="#263238"/>
<path d="M230.484 128.683C230.484 129.432 231.145 130.093 231.938 130.137C232.776 130.181 233.436 129.564 233.436 128.771C233.481 127.978 232.82 127.317 231.982 127.273C231.189 127.273 230.484 127.89 230.484 128.683Z" fill="#263238"/>
<path d="M231.627 123.442C231.803 123.618 232.905 122.781 234.535 122.737C236.121 122.693 237.311 123.486 237.487 123.266C237.575 123.178 237.355 122.869 236.826 122.473C236.342 122.121 235.46 121.768 234.491 121.812C233.478 121.812 232.64 122.209 232.156 122.605C231.671 123.001 231.539 123.354 231.627 123.442Z" fill="#263238"/>
<path d="M226.032 135.424C226.032 135.292 225.062 135.16 223.432 134.984C223.036 134.94 222.639 134.896 222.551 134.587C222.463 134.323 222.639 133.883 222.815 133.398C223.168 132.399 223.55 131.357 223.961 130.27C225.547 125.776 226.693 122.12 226.516 122.076C226.34 121.988 224.886 125.556 223.3 130.006C222.918 131.122 222.551 132.179 222.198 133.178C222.066 133.662 221.802 134.191 222.022 134.764C222.154 135.072 222.463 135.292 222.727 135.38C222.991 135.424 223.212 135.424 223.388 135.468C225.018 135.513 226.032 135.513 226.032 135.424Z" fill="#263238"/>
<path d="M230.131 117.318C230.352 117.714 231.673 117.23 233.392 117.141C235.066 117.009 236.476 117.318 236.652 116.877C236.696 116.701 236.388 116.304 235.771 115.996C235.154 115.688 234.229 115.467 233.26 115.511C232.246 115.6 231.365 115.952 230.792 116.304C230.264 116.701 229.999 117.097 230.131 117.318Z" fill="#263238"/>
<path d="M215.679 116.834C216.031 117.187 217.353 116.79 218.939 116.746C220.525 116.658 221.847 116.922 222.156 116.526C222.288 116.35 222.068 115.997 221.495 115.645C220.878 115.336 219.909 115.072 218.851 115.116C217.75 115.16 216.824 115.513 216.252 115.909C215.723 116.306 215.547 116.658 215.679 116.834Z" fill="#263238"/>
<path d="M214.444 113.574C214.444 113.574 217.088 107.01 220.172 105.424C223.961 103.53 225.679 107.671 229.292 106.57C232.905 105.512 236.518 103.662 240.264 106.393C244.361 109.389 242.511 111.592 242.863 116.173C244.229 134.897 247.754 140.139 248.547 131.284C248.635 130.315 251.323 129.478 251.631 125.425C252.028 120.094 252.116 113.662 250.882 109.918C249.825 106.79 247.974 104.631 244.67 102.296C239.515 98.5515 232.465 98.6396 227.706 99.2124C222.948 99.7851 213.871 105.424 214.444 113.574Z" fill="#263238"/>
<path d="M247.887 131.019C247.931 129.389 249.297 128.112 250.883 128.244C252.822 128.376 255.025 129.433 254.981 133.442C254.893 140.579 247.755 139.037 247.755 138.817C247.711 138.685 247.843 133.971 247.887 131.019Z" fill="#AE7461"/>
<path d="M249.34 136.13C249.34 136.13 249.428 136.218 249.648 136.35C249.868 136.438 250.221 136.482 250.573 136.35C251.322 136.086 251.983 134.896 252.027 133.619C252.071 133.002 251.939 132.385 251.719 131.857C251.499 131.328 251.146 130.975 250.794 130.887C250.397 130.799 250.133 131.02 250.045 131.24C249.956 131.416 250 131.548 249.956 131.592C249.956 131.592 249.824 131.46 249.868 131.152C249.912 131.02 250 130.843 250.133 130.711C250.309 130.579 250.573 130.491 250.838 130.535C251.41 130.579 251.895 131.108 252.115 131.68C252.38 132.209 252.556 132.914 252.512 133.663C252.468 135.073 251.719 136.438 250.661 136.703C250.177 136.835 249.78 136.659 249.56 136.482C249.34 136.306 249.296 136.174 249.34 136.13Z" fill="#6F4439"/>
<path d="M247.49 117.231C246.565 117.892 245.596 118.552 244.494 118.685C243.393 118.817 242.115 118.2 241.895 117.099C241.807 116.614 241.895 116.041 241.586 115.645C241.19 115.204 240.441 115.336 239.868 115.425C237.797 115.689 235.33 113.442 234.757 111.46C234.272 112.253 233.127 112.517 232.289 111.988C231.496 111.504 231.188 111.239 230.571 110.534C229.91 109.83 229.029 109.169 228.104 109.345C227.575 109.433 227.09 109.742 226.562 109.697C225.592 109.653 225.152 108.552 224.975 107.627C224.799 106.702 224.667 105.644 223.874 105.16C223.125 104.675 222.2 104.984 221.318 105.116C220.481 105.248 219.38 105.072 219.115 104.235C218.983 103.794 219.159 103.354 219.424 102.957C220.481 101.195 222.905 100.358 224.843 101.107C225.46 98.7278 227.619 96.8775 230.086 96.5691C232.51 96.2607 235.065 97.5383 236.299 99.653C237.753 98.2873 239.956 97.6705 241.939 98.067C243.922 98.4635 245.684 99.9173 246.477 101.768C248.195 101.283 250.178 101.944 251.28 103.31C252.425 104.719 252.602 106.79 251.764 108.376C253.086 109.081 254.188 110.314 254.232 111.812C254.32 113.266 252.91 114.764 251.456 114.411C252.073 115.557 251.632 117.099 250.531 117.759C249.429 118.42 247.843 118.068 247.094 117.011" fill="#263238"/>
<path d="M224.358 103.221C224.329 103.221 224.329 103.265 224.358 103.353C224.358 103.441 224.358 103.529 224.402 103.705C224.446 104.058 224.622 104.542 224.931 105.071C225.283 105.6 225.768 106.26 226.561 106.745C227.31 107.23 228.323 107.582 229.469 107.494L229.337 107.362C229.161 107.979 229.205 108.683 229.557 109.3C229.822 109.961 230.306 110.49 230.791 111.018C231.055 111.283 231.276 111.591 231.584 111.855C231.936 112.076 232.333 112.208 232.73 112.252C233.523 112.34 234.448 112.076 235.021 111.371L234.756 111.283C234.977 112.692 235.77 114.102 237.092 114.939C237.752 115.424 238.634 115.688 239.427 115.688C240.264 115.644 241.013 115.38 241.718 115.115L241.542 115.027C241.938 115.908 242.555 116.657 243.26 117.186C243.965 117.759 244.934 118.067 245.772 117.847C247.446 117.45 248.503 116.041 248.724 114.719L248.547 114.763C249.385 115.204 250.31 115.248 251.015 115.071C251.72 114.939 252.293 114.631 252.689 114.278C253.086 113.97 253.35 113.662 253.482 113.397C253.6 113.162 253.658 113.045 253.658 113.045C253.614 113.001 253.438 113.573 252.645 114.19C252.249 114.499 251.676 114.807 250.971 114.939C250.31 115.071 249.429 115.027 248.68 114.587L248.547 114.499L248.503 114.675C248.283 115.908 247.27 117.23 245.683 117.582C244.934 117.759 244.097 117.494 243.436 116.966C242.775 116.437 242.203 115.732 241.806 114.895L241.762 114.807L241.63 114.851C240.925 115.115 240.176 115.336 239.427 115.38C238.678 115.38 237.929 115.159 237.268 114.675C236.034 113.882 235.241 112.604 235.065 111.239L234.977 110.93L234.756 111.195C234.316 111.767 233.479 112.032 232.774 111.943C232.421 111.899 232.069 111.811 231.76 111.591C231.496 111.415 231.231 111.106 231.011 110.842C230.527 110.313 230.042 109.785 229.777 109.212C229.469 108.595 229.425 107.979 229.601 107.406L229.645 107.23L229.469 107.274C228.368 107.362 227.398 107.009 226.649 106.569C225.9 106.128 225.371 105.511 225.063 104.983C224.402 103.925 224.402 103.177 224.358 103.221Z" fill="#455A64"/>
<path d="M226.519 140.888C226.519 140.623 228.281 140.932 229.824 139.654C231.366 138.42 231.542 136.482 231.762 136.526C231.894 136.526 232.027 137.011 231.894 137.804C231.762 138.597 231.322 139.654 230.396 140.447C229.427 141.24 228.325 141.416 227.62 141.328C226.871 141.284 226.475 140.976 226.519 140.888Z" fill="#263238"/>
<path d="M175.758 241.642L189.329 226.707L200.652 192.432C202.943 186.485 204.97 178.952 207.746 173.313C209.112 170.537 211.447 168.378 214.267 167.101L219.114 164.986L221.978 160.36C220.303 170.757 234.888 172.035 250.353 159.127C250.353 159.127 255.464 162.607 262.69 168.599C265.862 171.198 268.726 174.062 269.916 178.379C272.075 186.221 262.734 209.438 252.644 231.245C249.604 237.765 235.152 267.061 235.152 267.061L229.953 270.85C229.953 270.85 183.997 256.929 179.9 249.307C175.758 241.642 175.758 241.642 175.758 241.642Z" fill="#E0E0E0"/>
<path d="M183.293 232.741C183.264 232.741 183.382 232.595 183.646 232.301C183.94 231.978 184.336 231.567 184.836 231.067C185.893 229.966 187.391 228.468 189.198 226.574L189.154 226.662C189.991 224.063 191.004 220.935 192.15 217.454C193.339 213.974 194.485 210.097 195.719 206.044C198.01 198.026 200.213 190.801 202.24 185.691C203.209 183.136 204.134 181.109 204.795 179.744C205.118 179.097 205.383 178.569 205.588 178.158C205.765 177.805 205.853 177.629 205.853 177.629C205.882 177.629 205.809 177.82 205.632 178.202C205.456 178.613 205.221 179.156 204.927 179.832C204.355 181.197 203.473 183.268 202.548 185.823C200.609 190.889 198.45 198.158 196.159 206.176C194.926 210.229 193.736 214.106 192.546 217.587C191.401 221.023 190.343 224.151 189.462 226.75V226.794L189.418 226.838C187.567 228.644 186.025 230.142 184.968 231.2C184.439 231.669 184.028 232.051 183.734 232.345C183.44 232.609 183.293 232.741 183.293 232.741Z" fill="#263238"/>
<path d="M225.459 175.691L209.553 240.804L193.074 249.042V233.094L221.626 174.281L225.459 175.691Z" fill="#096A56"/>
<g opacity="0.3">
<path d="M195.059 234.945C199.553 236.663 203.606 239.351 207.616 242.038C211.581 244.726 215.547 247.501 219.997 249.439C224.403 251.378 229.338 252.391 234.052 251.422C238.767 250.453 243.173 247.237 244.715 242.655L195.059 234.945Z" fill="black"/>
</g>
<path d="M219.117 164.766L223.171 158.555L224.757 167.057L228.811 162.475L248.902 153.092L252.383 160.537L230.176 173.665L224.052 173.225L219.558 167.894L219.117 164.766Z" fill="#E0E0E0"/>
<path d="M219.114 164.766C219.158 164.766 219.246 165.25 219.422 166.043C219.628 167.013 219.848 168.114 220.083 169.348L219.687 169.259C220.039 168.643 220.407 167.982 220.788 167.277C221.405 166.22 221.934 165.206 222.463 164.281L222.683 163.885L222.815 164.281C223.168 165.339 223.388 166.176 223.52 166.748C223.696 167.365 223.785 167.718 223.74 167.718C223.696 167.718 223.52 167.409 223.3 166.836C223.08 166.264 222.859 165.427 222.463 164.457H222.815C222.331 165.383 221.758 166.396 221.185 167.497C220.803 168.202 220.436 168.863 220.083 169.48L219.775 170.008L219.643 169.436C219.114 166.748 218.982 164.766 219.114 164.766Z" fill="#263238"/>
<path d="M225.855 167.892L223.299 167.584C222.594 168.377 220.92 169.963 220.215 170.756V170.844C220.538 172.547 220.846 174.251 221.14 175.954C222.55 175.866 224.004 175.998 225.414 176.263C226.251 174.765 226.912 173.664 227.749 172.166L225.855 167.892Z" fill="#096A56"/>
<path d="M230.218 263.977C230.174 264.021 229.425 263.228 228.147 261.994C226.914 260.717 225.107 259.087 223.036 257.368C220.921 255.694 218.895 254.329 217.396 253.359C215.898 252.39 214.973 251.862 215.017 251.773C215.017 251.773 215.282 251.862 215.722 252.082C216.163 252.302 216.824 252.655 217.573 253.095C219.115 253.976 221.186 255.342 223.301 257.016C225.416 258.734 227.178 260.452 228.412 261.774C228.984 262.391 229.469 262.963 229.778 263.36C230.086 263.712 230.262 263.977 230.218 263.977Z" fill="#263238"/>
<path d="M226.078 168.421L228.898 167.012L229.867 171.99L227.488 172.21L226.078 168.421Z" fill="#096A56"/>
<path opacity="0.3" d="M228.5 165.03V176.264L249.429 162.475L229.954 173.797L228.5 165.03Z" fill="black"/>
<path d="M252.38 160.535C252.38 160.579 251.939 160.888 251.146 161.46C250.353 162.033 249.163 162.826 247.665 163.707C244.669 165.557 240.395 167.804 235.769 170.447C233.83 171.593 231.98 172.738 230.305 173.84L230.041 174.06L229.953 173.708C229.336 170.271 228.807 167.32 228.367 165.073L228.587 165.117C227.706 165.969 226.971 166.659 226.384 167.187C225.899 167.672 225.591 167.892 225.591 167.892C225.547 167.848 225.811 167.584 226.296 167.099C226.824 166.541 227.529 165.822 228.411 164.941L228.587 164.764L228.631 164.985C229.116 167.231 229.688 170.227 230.393 173.619L230.041 173.487C231.715 172.342 233.566 171.196 235.548 170.051C240.175 167.408 244.493 165.205 247.489 163.443C249.031 162.562 250.221 161.813 251.058 161.328C251.895 160.799 252.336 160.535 252.38 160.535Z" fill="#263238"/>
<path d="M223.343 168.553L222.154 165.689L220.215 169.214L221.052 170.535L223.343 168.553Z" fill="#096A56"/>
<path d="M226.561 168.113C226.649 168.201 225.239 169.831 223.741 171.99C222.243 174.149 221.185 175.999 221.053 175.955C220.965 175.911 221.846 173.928 223.344 171.726C224.886 169.523 226.472 168.025 226.561 168.113Z" fill="#263238"/>
<path d="M225.106 176.351C225.106 176.483 224.137 176.351 222.947 176.131C221.801 175.955 220.832 175.779 220.832 175.647C220.832 175.515 221.845 175.515 223.035 175.691C224.225 175.911 225.15 176.263 225.106 176.351Z" fill="#263238"/>
<path d="M119.67 216.883L106.451 179.48C106.187 178.643 106.672 177.806 107.509 177.63L138.087 169.656C138.836 169.48 139.629 169.92 139.849 170.669L153.773 212.786L196.908 241.157L194.837 243.272L183.822 240.584L119.67 216.883Z" fill="#353F4E"/>
<path d="M194.839 243.27C194.839 243.27 194.765 243.226 194.618 243.138C194.471 243.021 194.266 242.889 194.002 242.742C193.414 242.36 192.621 241.831 191.622 241.156C189.507 239.79 186.511 237.763 182.854 235.34C175.452 230.362 165.274 223.534 154.038 215.956C153.245 215.428 152.496 214.899 151.747 214.414L151.703 214.37L151.659 214.282C147.605 202.035 143.948 191.065 141.349 183.091C140.027 179.127 139.014 175.955 138.264 173.708C137.912 172.621 137.648 171.769 137.471 171.153C137.383 170.888 137.31 170.668 137.251 170.492C137.222 170.345 137.207 170.271 137.207 170.271C137.207 170.271 137.236 170.345 137.295 170.492C137.354 170.668 137.442 170.888 137.56 171.153C137.765 171.74 138.059 172.577 138.441 173.664C139.19 175.866 140.291 179.082 141.613 183.003C144.301 190.933 148.002 201.903 152.1 214.15L152.011 214.018C152.761 214.503 153.51 215.031 154.303 215.56C165.494 223.181 175.628 230.054 183.03 235.076C186.687 237.543 189.639 239.614 191.71 241.024C192.709 241.728 193.487 242.272 194.046 242.654C194.281 242.83 194.486 242.977 194.662 243.094C194.78 243.182 194.839 243.241 194.839 243.27Z" fill="#263238"/>
<path d="M124.957 216.089C124.957 215.957 130.949 215.56 138.396 215.208C145.798 214.855 151.834 214.679 151.834 214.811C151.834 214.944 145.842 215.34 138.396 215.692C130.993 216.045 124.957 216.221 124.957 216.089Z" fill="#263238"/>
<path d="M129.848 194.722C130.376 196.44 130.068 198.026 129.143 198.29C128.261 198.599 127.072 197.453 126.543 195.735C126.014 194.061 126.323 192.431 127.248 192.167C128.129 191.903 129.275 193.048 129.848 194.722Z" fill="#E0E0E0"/>
<path d="M167.521 208.072C167.521 208.072 166.375 208.644 166.199 206.794C166.023 205.208 169.9 202.785 171.354 201.904C172.808 201.023 175.892 201.64 177.435 201.816C179.549 202.124 184.44 204.283 186.026 206.177C187.613 208.072 188.714 212.962 189.287 213.402C189.86 213.887 209.379 221.552 209.379 221.552L204.929 237.016C204.929 237.016 186.996 229.13 183.823 225.958C180.651 222.742 181.356 221.949 180.783 219.526C180.254 217.103 179.638 214.548 179.638 214.548L177.963 213.843L174.791 214.768C174.791 214.768 174.394 215.957 173.557 216.927C172.588 218.028 170.825 217.984 169.856 216.883C169.856 216.883 168.226 217.411 167.433 215.605C167.124 214.856 167.345 213.711 167.345 213.711C167.345 213.711 165.891 214.019 165.891 212.213C165.891 210.274 167.521 208.072 167.521 208.072Z" fill="#AE7461"/>
<path d="M177.698 210.097C177.698 210.185 177.037 210.185 176.023 210.406C175.01 210.582 173.644 211.111 172.498 212.168C171.309 213.181 170.648 214.459 170.295 215.428C169.943 216.397 169.899 217.058 169.811 217.058C169.767 217.058 169.723 216.353 169.987 215.34C170.251 214.283 170.956 212.917 172.19 211.816C173.424 210.714 174.922 210.185 175.979 210.053C177.037 209.921 177.698 210.053 177.698 210.097Z" fill="#6F4439"/>
<path d="M176.198 206.794C176.198 206.882 175.493 206.75 174.436 207.014C173.379 207.235 171.969 207.94 170.735 209.129C169.545 210.319 168.708 211.64 168.135 212.565C167.563 213.535 167.166 214.151 167.122 214.107C167.078 214.063 167.342 213.446 167.871 212.433C168.4 211.42 169.149 210.01 170.426 208.777C171.704 207.543 173.202 206.838 174.348 206.706C175.538 206.53 176.243 206.75 176.198 206.794Z" fill="#6F4439"/>
<path d="M175.933 203.181C175.933 203.225 175.316 203.181 174.391 203.313C173.422 203.49 172.188 203.974 170.998 204.855C169.853 205.692 168.927 206.706 168.266 207.41C167.606 208.115 167.165 208.556 167.121 208.512C167.077 208.468 167.429 207.983 168.002 207.19C168.619 206.441 169.5 205.384 170.734 204.459C171.968 203.578 173.333 203.093 174.347 203.005C175.36 202.917 175.933 203.137 175.933 203.181Z" fill="#6F4439"/>
<path d="M259.301 168.025C264.809 169.083 268.377 173.929 269.523 179.964C271.109 188.511 251.458 228.953 247.801 237.808C243.968 247.104 235.42 249.13 230.485 248.998C225.506 248.91 190.742 232.61 190.742 232.61L195.809 214.944L226.74 224.107L238.989 189.656" fill="#E0E0E0"/>
<path d="M238.988 189.656C238.988 189.656 238.914 189.862 238.767 190.273C238.65 190.684 238.459 191.286 238.195 192.079C237.622 193.665 236.829 195.956 235.771 198.952C233.656 204.899 230.66 213.534 226.871 224.195L226.827 224.327L226.695 224.283C217.794 221.64 207.308 218.556 195.764 215.164L196.028 214.988C194.398 220.627 192.724 226.53 190.961 232.654L190.829 232.39C198.936 236.178 207.616 240.099 216.693 243.932C220.35 245.43 224.007 246.972 227.708 248.161L229.074 248.558C229.559 248.646 229.999 248.69 230.44 248.778C231.409 248.822 232.334 248.778 233.304 248.646C235.154 248.381 237.005 247.853 238.679 247.104C242.072 245.562 244.848 242.963 246.566 239.835C247.447 238.249 248.064 236.575 248.813 234.989C249.518 233.373 250.238 231.773 250.972 230.187C256.656 217.587 261.723 206.221 265.336 196.441C267.143 191.551 268.685 187.057 269.301 182.96C269.434 181.947 269.522 180.933 269.39 180.008C269.213 179.083 268.993 178.158 268.729 177.321C268.156 175.647 267.451 174.193 266.614 173.004C264.939 170.581 262.913 169.347 261.547 168.774C260.842 168.466 260.269 168.29 259.872 168.202C259.491 168.084 259.3 168.025 259.3 168.025C259.329 168.025 259.535 168.069 259.917 168.158C260.313 168.202 260.842 168.378 261.591 168.686C263.001 169.259 265.028 170.492 266.746 172.871C267.583 174.105 268.332 175.559 268.905 177.277C269.213 178.114 269.434 178.995 269.61 179.964C269.786 180.933 269.698 181.947 269.566 183.004C268.949 187.145 267.407 191.639 265.644 196.529C262.076 206.353 257.009 217.763 251.325 230.363C250.62 231.949 249.915 233.535 249.21 235.121C248.461 236.751 247.844 238.425 246.963 240.055C245.2 243.271 242.336 245.958 238.855 247.5C237.137 248.293 235.286 248.822 233.348 249.086C232.378 249.204 231.409 249.263 230.44 249.263C229.955 249.174 229.426 249.086 228.986 248.998L227.576 248.602C223.831 247.412 220.218 245.87 216.517 244.328C207.44 240.54 198.76 236.575 190.653 232.786L190.477 232.698L190.521 232.522C192.283 226.442 194.001 220.539 195.632 214.9L195.676 214.679L195.896 214.768C207.396 218.204 217.926 221.332 226.783 223.975L226.562 224.063C230.396 213.446 233.48 204.855 235.595 198.864C236.696 195.912 237.49 193.621 238.062 192.035C238.356 191.272 238.576 190.684 238.723 190.273C238.899 189.862 238.988 189.656 238.988 189.656Z" fill="#263238"/>
<path d="M231.672 237.06C231.54 237.104 231.056 233.976 229.69 230.407C228.324 226.839 226.605 224.196 226.738 224.107C226.782 224.107 227.266 224.724 227.927 225.781C228.588 226.883 229.425 228.425 230.086 230.231C230.791 232.081 231.232 233.755 231.452 235.033C231.672 236.267 231.717 237.06 231.672 237.06Z" fill="#263238"/>
<path d="M257.184 168.113C257.228 168.157 256.039 168.554 254.276 169.435C253.439 169.875 252.426 170.448 251.368 171.197C250.311 171.946 249.165 172.827 248.108 173.84C247.05 174.897 246.125 175.999 245.376 177.012C244.627 178.069 244.01 179.083 243.526 179.92C242.644 181.682 242.204 182.827 242.16 182.783C242.116 182.783 242.204 182.475 242.38 181.946C242.512 181.418 242.821 180.669 243.261 179.788C243.702 178.906 244.275 177.849 245.024 176.792C245.773 175.735 246.698 174.589 247.799 173.532C248.901 172.474 250.047 171.593 251.104 170.844C252.206 170.14 253.263 169.523 254.144 169.126C255.07 168.73 255.819 168.465 256.347 168.289C256.876 168.157 257.184 168.069 257.184 168.113Z" fill="#263238"/>
<path d="M64.3709 294.991L47.6719 274.153C47.6719 274.153 112.265 220.935 118.39 217.102C123.016 214.239 132.401 210.406 141.301 213.402C150.202 216.397 165.27 226.794 170.822 230.186C176.374 233.579 224.753 263.492 229.952 270.849C229.952 270.849 219.421 289.881 212.548 293.053C207.172 295.564 191.575 291.819 182.498 286.312C173.422 280.761 131.74 245.077 131.74 245.077L64.3709 294.991Z" fill="#263238"/>
<path d="M70.5859 319.485L93.1451 335.697L136.589 264.945L180.43 284.902L150.953 235.649C150.953 235.649 127.16 235.913 123.415 235.516C118.612 234.988 109.888 242.521 105.086 251.773C100.944 259.791 70.5859 319.485 70.5859 319.485Z" fill="#263238"/>
<path d="M166.242 279.088C166.11 279.176 156.24 269.044 144.123 256.532C132.006 243.977 122.225 233.712 122.313 233.624C122.401 233.536 132.315 243.668 144.432 256.18C156.548 268.735 166.33 279 166.242 279.088Z" fill="#455A64"/>
<path opacity="0.3" d="M83.2734 280.982C83.2734 280.982 102.704 244.681 111.825 242.258C111.825 242.258 98.6066 260.232 94.1565 272.92L83.2734 280.982Z" fill="black"/>
<path d="M126.454 237.942C126.454 237.986 125.572 237.59 123.898 237.458C122.268 237.281 119.756 237.59 117.069 238.911C114.381 240.189 111.737 242.7 109.402 245.872C107.067 249.088 104.732 252.789 102.484 256.798C98.0784 264.86 94.6857 272.437 91.998 277.812C90.6321 280.499 89.5306 282.658 88.6934 284.156C88.3116 284.861 88.0031 285.419 87.7682 285.83C87.5332 286.241 87.4157 286.447 87.4157 286.447C87.3863 286.417 87.4744 286.197 87.68 285.786C87.915 285.375 88.2088 284.802 88.5612 284.068C89.3103 282.57 90.4118 280.411 91.6896 277.68C94.3332 272.261 97.6818 264.64 102.088 256.577C104.335 252.568 106.67 248.868 109.05 245.608C111.429 242.436 114.161 239.881 116.936 238.603C119.712 237.281 122.268 237.061 123.942 237.281C125.616 237.458 126.454 237.942 126.454 237.942Z" fill="#455A64"/>
<path d="M81.6472 306.314L69.3101 329.091C69.3101 329.091 41.7721 325.831 39.3047 329.972L84.0705 352.88L102.664 316.976L81.6472 306.314Z" fill="#263238"/>
<path d="M84.1572 334.245C85.9637 335.875 83.5403 338.783 81.6457 337.197C79.6189 335.346 82.4829 332.395 84.2894 334.377" fill="#E0E0E0"/>
<path d="M84.0705 352.879L85.7889 349.178L42.2127 328.605C42.2127 328.605 39.7894 328.472 39.3047 329.97L84.0705 352.879Z" fill="#455A64"/>
<path d="M68.6929 328.518C68.6048 328.738 69.6182 329.399 70.3672 330.633C71.1162 331.866 71.1603 333.1 71.4247 333.1C72.6584 332.351 69.9706 327.769 68.6929 328.518Z" fill="white"/>
<path d="M63.007 328.032C62.8307 328.252 63.5798 329.089 63.8882 330.411C64.1966 331.688 63.8441 332.79 64.0644 332.878C65.5184 332.569 64.4169 327.679 63.007 328.032Z" fill="white"/>
<path d="M57.4531 332.307C58.6868 332.439 58.8631 327.593 57.6294 327.681C57.6734 327.813 57.5412 332.174 57.4531 332.307Z" fill="white"/>
<path d="M71.7734 323.451C71.9497 323.407 76.2236 325.918 76.2676 326.051C76.9726 325.037 72.3462 322.306 71.7734 323.451Z" fill="white"/>
<path d="M64.8576 265.738L43.6643 280.673C43.6643 280.673 20.4002 265.518 16.3906 268.161L46.352 308.516L78.1199 283.536L64.8576 265.738Z" fill="#263238"/>
<path d="M54.6805 291.864C55.6058 294.155 52.125 295.653 51.1116 293.362C50.1423 290.851 54.0196 289.485 54.7686 292.041" fill="#E0E0E0"/>
<path d="M46.352 308.517L49.5685 306.006L19.6071 268.251C19.6071 268.251 17.4921 267.018 16.3906 268.163L46.352 308.517Z" fill="#455A64"/>
<path d="M43.4002 279.881C43.1799 280.013 43.8408 281.071 43.9289 282.525C44.0611 283.934 43.5764 285.08 43.7967 285.212C45.2507 285.08 44.8542 279.749 43.4002 279.881Z" fill="white"/>
<path d="M38.5079 276.93C38.2876 277.018 38.5519 278.119 38.2435 279.397C37.9351 280.718 37.142 281.555 37.3182 281.732C38.7282 282.128 39.9178 277.238 38.5079 276.93Z" fill="white"/>
<path d="M31.6328 278.295C32.6462 278.956 34.9814 274.683 33.8359 274.242C33.8359 274.374 31.765 278.207 31.6328 278.295Z" fill="white"/>
<path opacity="0.3" d="M162.893 275.652C162.893 275.652 138.219 256.84 132.314 249.615C126.498 242.434 123.414 235.518 123.414 235.518L162.893 275.652Z" fill="black"/>
</svg>
