<svg width="633" height="591" viewBox="0 0 633 591" fill="none" xmlns="http://www.w3.org/2000/svg">
<path d="M540.307 279.071C663.898 350.411 663.898 466.087 540.307 537.495C416.716 608.835 216.284 608.835 92.6931 537.495C-30.8977 466.087 -30.8977 350.411 92.6931 279.071C216.284 207.664 416.716 207.664 540.307 279.071Z" fill="white"/>
<path d="M328.188 439.151C370.773 463.804 370.773 503.706 328.188 528.292C285.536 552.878 216.486 552.878 173.834 528.292C131.182 503.706 131.182 463.804 173.834 439.151C216.486 414.564 285.536 414.564 328.188 439.151Z" fill="#F7F7F7"/>
<path d="M561.398 404.89L548.568 397.501C548.568 397.501 545.412 370.094 547.494 348.866C550.449 319.04 569.727 283.169 592.698 291.566C615.67 300.03 582.153 330.393 574.697 355.651C567.241 380.976 561.398 404.89 561.398 404.89Z" fill="#0B6353"/>
<path d="M554.614 401.799C554.614 401.799 554.637 401.799 554.681 401.799C555.085 401.799 555.42 401.396 555.42 400.993C553.137 334.691 586.184 301.372 586.452 301.036C586.788 300.7 586.788 300.23 586.52 299.961C586.184 299.625 585.714 299.625 585.378 299.961C585.042 300.23 551.592 334.086 553.875 401.06C553.875 401.463 554.211 401.799 554.614 401.799Z" fill="white"/>
<path d="M569.39 409.526L560.322 404.219C560.322 404.219 558.777 385.41 567.979 362.57C575.973 342.686 595.922 326.161 605.93 329.654C615.938 333.148 615.737 340.201 610.833 347.657C605.93 355.114 576.241 372.915 569.39 409.526Z" fill="#159880"/>
<path d="M564.622 407.509C565.025 407.509 565.361 407.174 565.361 406.703C565.226 364.786 604.52 336.505 604.923 336.236C605.326 335.968 605.393 335.497 605.125 335.162C604.856 334.759 604.386 334.691 604.05 334.96C603.647 335.229 563.681 364.047 563.816 406.703C563.816 407.174 564.152 407.509 564.622 407.509Z" fill="white"/>
<path d="M87.6552 388.433L99.477 380.44C99.477 380.44 104.716 349.472 99.88 322.266C93.0287 284.043 66.6985 271.347 57.2949 275.31C47.8912 279.341 45.8761 290.76 63.4072 312.525C73.7513 325.423 87.3194 352.83 87.6552 388.433Z" fill="#0B6353"/>
<path d="M91.7527 373.116C91.708 373.116 91.6632 373.116 91.6184 373.116C91.1482 373.049 90.8124 372.646 90.8796 372.175C95.1112 336.169 79.931 297.073 63.4075 281.556C63.0716 281.22 63.0716 280.682 63.3403 280.347C63.6761 280.011 64.2135 279.944 64.5493 280.279C81.4087 296.133 96.8576 335.833 92.5588 372.377C92.4916 372.78 92.1558 373.116 91.7527 373.116Z" fill="white"/>
<path d="M56.6908 409.326C54.8101 410.468 49.3694 406.37 47.8245 405.362C45.2721 403.75 43.1227 401.332 41.7121 398.578C40.0329 395.42 39.5627 391.994 39.9657 388.434C40.2344 386.62 40.7046 384.807 41.1748 382.993C41.6226 381.246 42.0928 379.477 42.5853 377.686C43.0555 375.939 43.5257 374.193 43.257 372.379C42.7197 368.819 39.4956 366.333 36.5401 364.251C33.2489 361.9 29.8904 358.743 29.8232 354.443C29.7561 351.085 31.4353 347.994 33.4504 345.307C35.4654 342.62 37.8835 340.269 39.6971 337.448C40.9733 335.433 41.9808 333.082 41.7121 330.663C41.5778 329.185 40.9061 327.842 40.1673 326.498C38.6224 323.744 36.5401 321.192 35.4654 318.169C34.3236 315.146 34.3907 311.384 36.7416 309.167C38.6224 307.353 41.5106 307.085 44.1302 307.219C46.5483 307.286 48.9664 308.361 51.1158 309.503C58.0342 313.198 62.1315 321.259 69.5201 324.08C72.3412 325.155 75.4309 325.289 78.3864 326.028C81.3418 326.767 84.3644 328.178 85.7749 330.865C88.5289 336.172 83.6927 342.889 85.6406 348.532C87.4542 353.503 92.3575 355.317 95.1786 359.817C96.4548 361.765 96.7235 364.049 96.5891 366.333C96.3205 370.297 95.8503 373.118 94.0367 377.552C92.559 381.179 88.193 388.098 88.193 388.098C88.193 388.098 57.0266 409.124 56.6908 409.326Z" fill="#159880"/>
<path d="M74.8931 398.173C74.8483 398.173 74.8259 398.173 74.8259 398.173C74.3557 398.173 74.0199 397.77 74.0199 397.3C74.7587 363.309 58.0337 326.094 46.1448 315.413C45.8089 315.077 45.8089 314.54 46.0776 314.204C46.4134 313.801 46.9508 313.801 47.2866 314.137C59.377 325.019 76.5051 362.839 75.6991 397.3C75.6991 397.77 75.3633 398.173 74.8931 398.173Z" fill="white"/>
<path d="M68.579 356.725C68.5342 356.725 68.4671 356.725 68.3775 356.725C57.3618 353.5 43.7265 353.231 43.5922 353.164C43.122 353.164 42.7861 352.761 42.7861 352.291C42.7861 351.82 43.122 351.484 43.6593 351.484C43.7937 351.484 57.6305 351.82 68.8477 355.045C69.3179 355.18 69.5194 355.65 69.385 356.12C69.3179 356.456 68.982 356.725 68.579 356.725Z" fill="white"/>
<path d="M385.214 365.055L380.109 362.099C378.497 361.159 377.221 358.942 377.221 357.061V145.459C377.221 143.578 378.497 141.294 380.109 140.421L521.634 58.6682C523.246 57.7278 525.866 57.7278 527.478 58.6682L532.582 61.624C534.194 62.5644 535.471 64.7812 535.471 66.6621V278.264C535.471 280.145 534.194 282.429 532.582 283.303L391.057 365.055C389.445 365.996 386.826 365.996 385.214 365.055Z" fill="#455A64"/>
<path d="M535.471 66.1919C535.269 64.714 533.993 64.1094 532.582 64.9827L391.057 146.735C390.251 147.205 389.512 147.944 388.975 148.885L378.094 142.57C378.564 141.63 379.303 140.891 380.109 140.421L521.634 58.6682C523.246 57.7278 525.865 57.7278 527.477 58.6682L532.582 61.624C534.06 62.4972 535.269 64.4453 535.471 66.1919Z" fill="#56667E"/>
<path d="M390.52 365.259C388.908 365.998 386.691 365.863 385.214 365.057L380.109 362.101C378.497 361.161 377.221 358.944 377.221 357.063V145.461C377.221 144.52 377.557 143.513 378.094 142.572L388.975 148.887C388.438 149.76 388.102 150.835 388.102 151.775V363.378C388.102 365.057 389.177 365.796 390.52 365.259Z" fill="#263238"/>
<path d="M388.102 151.774V363.377C388.102 365.258 389.445 365.997 391.057 365.056L532.582 283.304C534.194 282.43 535.47 280.146 535.47 278.266V66.6632C535.47 64.7823 534.194 64.0434 532.582 64.9838L391.057 146.736C389.445 147.61 388.102 149.893 388.102 151.774Z" fill="#353F4E"/>
<path d="M355.055 232.383C353.242 231.308 344.778 226.471 344.308 226.27C342.965 225.396 342.495 223.448 343.771 222.105L377.221 186.166L388.102 192.48L354.652 228.352C353.443 229.628 353.846 231.509 355.055 232.383Z" fill="#56667E"/>
<path d="M388.102 192.482L354.652 228.354C352.973 230.168 354.384 233.056 356.869 232.855L388.102 230.302V192.482Z" fill="#353F4E"/>
<path d="M461.787 127.859C478.31 118.32 491.677 126.045 491.677 145.123C491.677 164.134 478.31 187.309 461.787 196.848C445.33 206.387 431.964 198.662 431.964 179.584C431.964 160.573 445.33 137.398 461.787 127.859Z" fill="#159880"/>
<path d="M461.585 142.839C466.959 139.749 471.258 142.235 471.258 148.415C471.258 154.595 466.959 162.119 461.585 165.209C456.212 168.299 451.913 165.813 451.913 159.633C451.913 153.453 456.212 145.929 461.585 142.839Z" fill="white"/>
<path d="M480.661 175.82C480.661 165.676 473.541 161.511 464.742 166.617L459.301 169.774C450.502 174.879 443.382 187.172 443.382 197.383V200.137C444.949 200.675 446.651 200.943 448.487 200.943C452.517 200.943 457.017 199.6 461.786 196.846C468.973 192.681 475.556 185.963 480.661 178.171V175.82Z" fill="white"/>
<path d="M442.912 291.162L480.728 269.263C482.34 268.389 483.616 269.128 483.616 270.942V283.168C483.616 284.982 482.34 287.266 480.728 288.206L442.912 310.038C441.299 310.979 439.956 310.24 439.956 308.359V296.2C439.956 294.319 441.299 292.035 442.912 291.162Z" fill="#159880"/>
<path d="M424.374 263.889L499.267 220.695C501.148 219.553 502.76 220.493 502.76 222.71V227.211C502.76 229.428 501.148 232.182 499.267 233.257L424.374 276.518C422.426 277.592 420.881 276.719 420.881 274.502V269.934C420.881 267.718 422.426 265.031 424.374 263.889Z" fill="#FAFAFA"/>
<path fill-rule="evenodd" clip-rule="evenodd" d="M433.105 232.654C434.135 232.027 434.941 231.938 435.524 232.385C436.061 232.788 436.33 233.706 436.33 235.14C436.33 236.573 436.061 237.827 435.524 238.901C434.941 239.976 434.135 240.805 433.105 241.387L431.09 242.529V246.895C431.09 247.03 431.068 247.164 431.023 247.298C430.934 247.433 430.844 247.545 430.755 247.634L429.747 248.172C429.657 248.261 429.568 248.261 429.478 248.172C429.434 248.127 429.411 248.015 429.411 247.836V235.274C429.411 235.14 429.434 235.005 429.478 234.871C429.568 234.737 429.657 234.647 429.747 234.602L433.105 232.654ZM431.09 240.111L433.038 238.969C433.531 238.7 433.911 238.342 434.18 237.894C434.449 237.446 434.583 236.841 434.583 236.08C434.583 235.363 434.449 234.96 434.18 234.871C433.911 234.737 433.531 234.804 433.038 235.072L431.09 236.214V240.111Z" fill="#FAFAFA"/>
<path fill-rule="evenodd" clip-rule="evenodd" d="M441.971 227.479C442.106 227.434 442.218 227.434 442.307 227.479C442.352 227.568 442.397 227.703 442.442 227.882L445.531 238.428C445.576 238.428 445.599 238.451 445.599 238.496C445.554 238.675 445.509 238.832 445.464 238.966C445.419 239.1 445.33 239.19 445.196 239.235L444.322 239.772C444.143 239.862 444.031 239.884 443.987 239.839C443.897 239.75 443.852 239.66 443.852 239.57L443.248 237.757L439.285 240.041L438.747 242.526C438.703 242.616 438.658 242.75 438.613 242.929C438.523 243.064 438.411 243.176 438.277 243.265L437.337 243.803C437.247 243.847 437.158 243.847 437.068 243.803C437.023 243.713 437.001 243.601 437.001 243.467C437.001 243.422 437.001 243.377 437.001 243.332L440.091 229.225C440.136 229.002 440.203 228.8 440.292 228.621C440.337 228.487 440.427 228.375 440.561 228.285L441.971 227.479ZM442.71 235.674L441.3 230.905L439.889 237.219L442.71 235.674Z" fill="#FAFAFA"/>
<path d="M450.233 222.507C450.815 222.194 451.33 222.037 451.778 222.037C452.181 221.992 452.539 222.059 452.852 222.238C453.121 222.462 453.323 222.731 453.457 223.045C453.636 223.403 453.726 223.761 453.726 224.119C453.726 224.254 453.703 224.388 453.658 224.522C453.569 224.657 453.479 224.769 453.39 224.858L452.517 225.328C452.382 225.418 452.27 225.44 452.181 225.396C452.091 225.351 452.024 225.284 451.979 225.194C451.845 224.925 451.666 224.746 451.442 224.657C451.173 224.567 450.77 224.657 450.233 224.925C450.054 225.06 449.852 225.217 449.628 225.396C449.449 225.62 449.27 225.843 449.091 226.067C448.957 226.247 448.845 226.47 448.755 226.739C448.666 226.963 448.621 227.209 448.621 227.478C448.621 227.792 448.666 228.015 448.755 228.15C448.845 228.284 448.979 228.351 449.158 228.351C449.337 228.396 449.583 228.396 449.897 228.351C450.21 228.262 450.613 228.172 451.106 228.083C451.599 227.948 452.024 227.881 452.382 227.881C452.74 227.926 453.054 228.038 453.323 228.217C453.546 228.396 453.703 228.665 453.793 229.023C453.927 229.337 453.994 229.762 453.994 230.299C453.994 230.882 453.905 231.486 453.726 232.113C453.546 232.695 453.3 233.255 452.987 233.793C452.673 234.33 452.293 234.823 451.845 235.27C451.397 235.763 450.882 236.166 450.3 236.48C449.852 236.748 449.404 236.927 448.957 237.017C448.554 237.107 448.173 237.084 447.815 236.95C447.501 236.771 447.233 236.524 447.009 236.211C446.83 235.853 446.718 235.382 446.673 234.8C446.673 234.666 446.718 234.531 446.807 234.397C446.852 234.263 446.919 234.173 447.009 234.128L447.949 233.591C448.083 233.501 448.173 233.479 448.218 233.524C448.307 233.569 448.374 233.636 448.419 233.725C448.509 233.905 448.576 234.039 448.621 234.128C448.71 234.263 448.822 234.352 448.957 234.397C449.136 234.442 449.315 234.442 449.494 234.397C449.718 234.352 449.987 234.24 450.3 234.061C450.569 233.927 450.815 233.748 451.039 233.524C451.308 233.345 451.531 233.143 451.711 232.919C451.845 232.651 451.979 232.404 452.114 232.18C452.203 231.912 452.248 231.621 452.248 231.307C452.248 231.038 452.203 230.837 452.114 230.702C451.979 230.613 451.8 230.568 451.576 230.568C451.307 230.568 450.994 230.613 450.636 230.702C450.322 230.792 449.919 230.882 449.427 230.971C449.024 231.061 448.666 231.083 448.352 231.038C448.039 230.994 447.77 230.882 447.546 230.702C447.367 230.523 447.21 230.255 447.076 229.896C446.986 229.538 446.942 229.046 446.942 228.419C446.942 227.836 447.031 227.254 447.21 226.672C447.389 226.09 447.613 225.552 447.882 225.06C448.195 224.522 448.554 224.03 448.957 223.582C449.36 223.134 449.785 222.776 450.233 222.507Z" fill="#FAFAFA"/>
<path d="M459.1 217.471C459.637 217.113 460.13 216.934 460.578 216.934C461.025 216.934 461.384 217.023 461.652 217.202C461.921 217.381 462.145 217.628 462.324 217.941C462.458 218.299 462.526 218.658 462.526 219.016C462.526 219.15 462.503 219.285 462.458 219.419C462.369 219.598 462.279 219.71 462.19 219.755L461.316 220.225C461.182 220.315 461.07 220.337 460.981 220.292C460.936 220.248 460.869 220.18 460.779 220.091C460.69 219.822 460.51 219.643 460.242 219.553C459.973 219.464 459.592 219.576 459.1 219.889C458.876 220.024 458.652 220.18 458.428 220.36C458.249 220.539 458.092 220.74 457.958 220.964C457.779 221.188 457.667 221.412 457.622 221.636C457.533 221.905 457.488 222.151 457.488 222.375C457.488 222.688 457.51 222.912 457.555 223.047C457.645 223.181 457.779 223.27 457.958 223.315C458.182 223.315 458.451 223.293 458.764 223.248C459.078 223.159 459.458 223.069 459.906 222.979C460.399 222.845 460.824 222.8 461.182 222.845C461.585 222.845 461.899 222.935 462.123 223.114C462.346 223.293 462.526 223.562 462.66 223.92C462.749 224.278 462.794 224.726 462.794 225.263C462.794 225.846 462.705 226.428 462.526 227.01C462.391 227.592 462.167 228.152 461.854 228.689C461.54 229.227 461.137 229.742 460.645 230.234C460.197 230.682 459.704 231.063 459.167 231.376C458.675 231.69 458.227 231.869 457.824 231.914C457.376 232.003 456.995 231.981 456.682 231.847C456.324 231.712 456.055 231.466 455.876 231.108C455.652 230.749 455.54 230.301 455.54 229.764C455.495 229.585 455.518 229.428 455.607 229.294C455.697 229.16 455.786 229.07 455.876 229.025L456.749 228.488C456.883 228.398 456.995 228.376 457.085 228.421C457.13 228.465 457.174 228.555 457.219 228.689C457.309 228.824 457.398 228.936 457.488 229.025C457.577 229.16 457.689 229.249 457.824 229.294C457.958 229.339 458.137 229.339 458.361 229.294C458.585 229.249 458.854 229.137 459.167 228.958C459.391 228.824 459.637 228.667 459.906 228.488C460.13 228.264 460.331 228.04 460.51 227.816C460.69 227.592 460.824 227.346 460.913 227.077C461.048 226.808 461.115 226.517 461.115 226.204C461.115 225.935 461.048 225.734 460.913 225.599C460.779 225.51 460.6 225.465 460.376 225.465C460.152 225.465 459.861 225.51 459.503 225.599C459.145 225.689 458.742 225.778 458.294 225.868C457.846 225.957 457.465 225.98 457.152 225.935C456.839 225.935 456.57 225.823 456.346 225.599C456.167 225.42 456.033 225.151 455.943 224.793C455.809 224.435 455.741 223.965 455.741 223.382C455.741 222.8 455.831 222.218 456.01 221.636C456.189 221.009 456.413 220.449 456.682 219.956C456.995 219.419 457.354 218.926 457.757 218.479C458.16 218.076 458.607 217.74 459.1 217.471Z" fill="#FAFAFA"/>
<path d="M468.906 219.151L467.764 225.532C467.719 225.756 467.675 225.958 467.63 226.137C467.585 226.271 467.496 226.383 467.361 226.473L466.354 227.077C466.219 227.167 466.107 227.167 466.018 227.077C465.973 226.988 465.928 226.853 465.884 226.674L464.271 215.322C464.271 215.277 464.271 215.232 464.271 215.187C464.271 215.053 464.294 214.896 464.339 214.717C464.428 214.583 464.518 214.493 464.607 214.448L465.548 213.911C465.637 213.866 465.704 213.866 465.749 213.911C465.839 213.911 465.906 214.001 465.951 214.18L466.958 221.838L467.899 216.128C467.943 216.038 467.988 215.904 468.033 215.725C468.078 215.546 468.19 215.411 468.369 215.322L469.376 214.717C469.555 214.628 469.667 214.628 469.712 214.717C469.757 214.807 469.802 214.896 469.846 214.986L470.787 219.688L471.862 210.821C471.862 210.597 471.906 210.418 471.996 210.284C472.041 210.194 472.108 210.104 472.197 210.015L473.138 209.477C473.227 209.433 473.317 209.455 473.406 209.545C473.451 209.589 473.474 209.679 473.474 209.813C473.474 209.858 473.474 209.925 473.474 210.015L471.862 223.181C471.862 223.405 471.817 223.607 471.727 223.786C471.638 223.92 471.548 224.032 471.459 224.122L470.384 224.726C470.25 224.771 470.16 224.771 470.115 224.726C470.07 224.637 470.026 224.502 469.981 224.323L468.906 219.151Z" fill="#FAFAFA"/>
<path fill-rule="evenodd" clip-rule="evenodd" d="M475.153 213.442C475.198 212.681 475.288 211.942 475.422 211.225C475.601 210.509 475.847 209.814 476.161 209.143C476.43 208.516 476.788 207.911 477.236 207.329C477.728 206.792 478.288 206.344 478.915 205.986C479.497 205.627 480.012 205.47 480.46 205.515C480.952 205.515 481.333 205.672 481.602 205.986C481.915 206.254 482.161 206.68 482.34 207.262C482.475 207.799 482.564 208.426 482.609 209.143C482.609 209.367 482.609 209.635 482.609 209.949C482.609 210.218 482.609 210.531 482.609 210.889C482.609 211.203 482.609 211.494 482.609 211.763C482.609 212.076 482.609 212.367 482.609 212.636C482.564 213.352 482.475 214.091 482.34 214.853C482.161 215.569 481.937 216.241 481.669 216.868C481.355 217.54 480.975 218.144 480.527 218.682C480.034 219.219 479.497 219.667 478.915 220.025C478.288 220.383 477.728 220.563 477.236 220.563C476.788 220.518 476.43 220.361 476.161 220.092C475.847 219.779 475.601 219.353 475.422 218.816C475.288 218.234 475.198 217.607 475.153 216.935C475.153 216.666 475.153 216.398 475.153 216.129C475.153 215.815 475.153 215.502 475.153 215.189C475.153 214.875 475.153 214.562 475.153 214.248C475.153 213.935 475.153 213.666 475.153 213.442ZM480.863 210.218C480.863 209.322 480.684 208.717 480.325 208.404C479.967 208.09 479.497 208.113 478.915 208.471C478.288 208.784 477.795 209.299 477.437 210.016C477.079 210.733 476.9 211.583 476.9 212.569C476.855 213.061 476.833 213.599 476.833 214.181C476.833 214.808 476.855 215.345 476.9 215.793C476.9 216.734 477.079 217.361 477.437 217.674C477.795 217.943 478.288 217.92 478.915 217.607C479.497 217.249 479.967 216.711 480.325 215.995C480.684 215.278 480.863 214.45 480.863 213.509C480.907 213.017 480.93 212.457 480.93 211.83C480.93 211.248 480.907 210.71 480.863 210.218Z" fill="#FAFAFA"/>
<path fill-rule="evenodd" clip-rule="evenodd" d="M488.52 200.678C489.55 200.051 490.333 199.961 490.871 200.409C491.453 200.857 491.744 201.73 491.744 203.029C491.744 203.969 491.587 204.865 491.274 205.716C491.005 206.567 490.602 207.305 490.065 207.932L491.811 211.694C491.811 211.784 491.811 211.851 491.811 211.896C491.811 212.03 491.789 212.142 491.744 212.232C491.699 212.366 491.632 212.456 491.542 212.5L490.468 213.105C490.288 213.195 490.177 213.217 490.132 213.172C490.042 213.083 489.975 212.993 489.93 212.903L488.251 209.343L486.572 210.284V214.852C486.572 214.986 486.549 215.12 486.505 215.255C486.415 215.389 486.326 215.501 486.236 215.59L485.228 216.128C485.139 216.217 485.072 216.217 485.027 216.128C484.937 216.083 484.893 215.971 484.893 215.792V203.23C484.893 203.096 484.937 202.961 485.027 202.827C485.072 202.693 485.139 202.603 485.228 202.558L488.52 200.678ZM486.639 207.865L488.453 206.79C488.945 206.522 489.326 206.186 489.594 205.783C489.908 205.335 490.065 204.753 490.065 204.036C490.065 203.32 489.908 202.917 489.594 202.827C489.326 202.738 488.945 202.827 488.453 203.096L486.639 204.171V207.865Z" fill="#FAFAFA"/>
<path fill-rule="evenodd" clip-rule="evenodd" d="M497.453 195.505C498.08 195.147 498.617 194.945 499.065 194.9C499.513 194.9 499.893 195.035 500.207 195.303C500.52 195.617 500.766 196.065 500.946 196.647C501.08 197.184 501.169 197.856 501.214 198.662C501.259 199.603 501.259 200.566 501.214 201.551C501.169 202.402 501.08 203.185 500.946 203.902C500.766 204.663 500.52 205.38 500.207 206.051C499.938 206.678 499.58 207.238 499.132 207.731C498.639 208.268 498.102 208.716 497.52 209.074L494.363 210.888C494.229 210.933 494.139 210.933 494.094 210.888C494.005 210.799 493.96 210.687 493.96 210.552V197.99C493.96 197.856 494.005 197.722 494.094 197.587C494.139 197.453 494.229 197.341 494.363 197.252L497.453 195.505ZM499.468 199.737C499.468 199.289 499.423 198.931 499.333 198.662C499.244 198.349 499.11 198.102 498.93 197.923C498.751 197.744 498.55 197.655 498.326 197.655C498.057 197.655 497.744 197.767 497.386 197.99L495.639 198.998V207.731L497.453 206.723C497.766 206.499 498.057 206.253 498.326 205.984C498.595 205.671 498.796 205.335 498.93 204.977C499.11 204.618 499.244 204.238 499.333 203.835C499.423 203.432 499.468 203.006 499.468 202.558C499.513 201.618 499.513 200.677 499.468 199.737Z" fill="#FAFAFA"/>
<path d="M313.007 0.493594C315.336 1.031 317.53 1.85949 319.59 2.97908C321.694 4.09867 323.463 5.48696 324.896 7.14395C326.329 8.80094 327.359 10.6819 327.986 12.7867C328.613 14.8915 328.658 17.1755 328.12 19.6386C327.717 21.6538 327.023 23.3332 326.038 24.6767C325.098 25.9754 324.023 27.1174 322.814 28.1027C321.56 29.0431 320.239 29.8716 318.851 30.5882C317.508 31.3047 316.231 31.9988 315.022 32.6706C313.813 33.2976 312.716 34.0141 311.731 34.8202C310.746 35.5815 310.052 36.4996 309.649 37.5744C309.425 38.1118 309.089 38.5372 308.641 38.8507C308.193 39.1642 307.701 39.2538 307.163 39.1194L301.454 37.8431C300.917 37.7535 300.491 37.4624 300.178 36.9698C299.82 36.4772 299.73 35.9622 299.909 35.4248C300.447 33.4991 301.23 31.8645 302.26 30.521C303.335 29.2223 304.499 28.1027 305.753 27.1622C307.052 26.2218 308.395 25.3933 309.783 24.6767C311.171 24.005 312.447 23.3332 313.612 22.6615C314.821 22.0345 315.851 21.3403 316.701 20.579C317.552 19.8625 318.09 18.9892 318.314 17.9592C318.717 16.0335 318.269 14.2869 316.97 12.7195C315.627 11.1521 313.634 10.0773 310.992 9.49509C306.738 8.55463 303.133 9.98771 300.178 13.7943C299.82 14.2869 299.484 14.6228 299.17 14.8019C298.812 15.0259 298.32 15.0706 297.693 14.9363L291.58 13.5928C291.133 13.5032 290.797 13.2793 290.573 12.921C290.304 12.518 290.215 12.0701 290.304 11.5775C290.752 9.83097 291.692 8.17397 293.125 6.60655C294.558 4.99434 296.305 3.65083 298.364 2.57603C300.379 1.45644 302.663 0.695118 305.216 0.292066C307.723 -0.15577 310.32 -0.0885924 313.007 0.493594ZM306.559 43.6874C307.096 43.8217 307.522 44.1352 307.835 44.6278C308.149 45.1204 308.238 45.6354 308.104 46.1728L306.693 52.756C306.559 53.3382 306.246 53.7637 305.753 54.0324C305.26 54.3458 304.745 54.4578 304.208 54.3682L297.76 52.8904C297.222 52.8008 296.797 52.5097 296.484 52.0171C296.17 51.5245 296.058 51.0095 296.148 50.4721L297.626 43.8889C297.76 43.3067 298.073 42.8588 298.566 42.5454C299.058 42.2319 299.573 42.1423 300.111 42.2767L306.559 43.6874Z" fill="#27DEBF"/>
<path d="M320.127 63.505C321.784 63.2363 323.418 63.2139 325.03 63.4378C326.642 63.617 328.143 64.0424 329.531 64.7142C330.874 65.4307 332.016 66.3712 332.956 67.5355C333.897 68.7447 334.501 70.2001 334.77 71.9019C334.994 73.2902 334.971 74.5441 334.703 75.6637C334.434 76.7385 334.031 77.7462 333.494 78.6866C332.956 79.6271 332.329 80.5004 331.613 81.3065C330.941 82.1126 330.292 82.8739 329.665 83.5904C329.083 84.3518 328.568 85.0907 328.12 85.8072C327.672 86.5685 327.471 87.3523 327.516 88.1584C327.516 88.5166 327.404 88.8525 327.18 89.166C327.001 89.5243 326.71 89.7258 326.307 89.7706L322.344 90.4423C321.941 90.4871 321.582 90.3975 321.269 90.1736C320.911 89.9497 320.732 89.6362 320.732 89.2332C320.552 87.8449 320.642 86.6133 321 85.5385C321.314 84.4189 321.762 83.3889 322.344 82.4485C322.926 81.508 323.575 80.6347 324.292 79.8286C325.008 79.0673 325.657 78.306 326.239 77.5447C326.866 76.8281 327.337 76.134 327.65 75.4622C328.008 74.7905 328.143 74.0739 328.053 73.3126C327.829 72.0139 327.09 71.0286 325.836 70.3569C324.583 69.6851 323.038 69.4836 321.202 69.7523C318.202 70.2449 316.254 72.1034 315.358 75.3279C315.268 75.7309 315.134 76.0444 314.955 76.2683C314.776 76.4922 314.462 76.6266 314.015 76.6714L309.783 77.4103C309.47 77.4551 309.179 77.3879 308.91 77.2088C308.686 77.0296 308.529 76.7609 308.44 76.4027C308.305 75.1935 308.484 73.8948 308.977 72.5065C309.47 71.1182 310.231 69.8195 311.261 68.6103C312.335 67.3564 313.612 66.2816 315.089 65.3859C316.612 64.4455 318.291 63.8185 320.127 63.505ZM327.113 92.8606C327.471 92.8158 327.807 92.9054 328.12 93.1293C328.478 93.3532 328.68 93.6667 328.725 94.0698L329.464 98.6377C329.553 99.0408 329.486 99.399 329.262 99.7125C328.993 100.026 328.68 100.228 328.322 100.317L323.821 101.056C323.418 101.101 323.06 101.011 322.747 100.787C322.433 100.563 322.232 100.25 322.142 99.8469L321.403 95.2118C321.358 94.8535 321.448 94.5176 321.672 94.2041C321.896 93.8459 322.209 93.6443 322.612 93.5996L327.113 92.8606Z" fill="#27DEBF"/>
<g opacity="0.2">
<path d="M320.127 63.507C321.784 63.2383 323.418 63.2159 325.03 63.4398C326.642 63.6189 328.143 64.0444 329.531 64.7161C330.874 65.4326 332.016 66.3731 332.956 67.5375C333.897 68.7466 334.501 70.2021 334.77 71.9039C334.994 73.2922 334.971 74.5461 334.703 75.6657C334.434 76.7405 334.031 77.7481 333.494 78.6886C332.956 79.629 332.329 80.5023 331.613 81.3084C330.941 82.1145 330.292 82.8758 329.665 83.5924C329.083 84.3537 328.568 85.0926 328.12 85.8092C327.672 86.5705 327.471 87.3542 327.516 88.1603C327.516 88.5186 327.404 88.8545 327.18 89.1679C327.001 89.5262 326.71 89.7277 326.307 89.7725L322.344 90.4443C321.941 90.4891 321.582 90.3995 321.269 90.1756C320.911 89.9517 320.732 89.6382 320.732 89.2351C320.552 87.8468 320.642 86.6153 321 85.5405C321.314 84.4209 321.762 83.3909 322.344 82.4504C322.926 81.51 323.575 80.6367 324.292 79.8306C325.008 79.0692 325.657 78.3079 326.239 77.5466C326.866 76.8301 327.337 76.1359 327.65 75.4642C328.008 74.7924 328.143 74.0759 328.053 73.3146C327.829 72.0158 327.09 71.0306 325.836 70.3588C324.583 69.6871 323.038 69.4856 321.202 69.7543C318.202 70.2469 316.254 72.1054 315.358 75.3298C315.268 75.7329 315.134 76.0464 314.955 76.2703C314.776 76.4942 314.462 76.6285 314.015 76.6733L309.783 77.4123C309.47 77.457 309.179 77.3899 308.91 77.2107C308.686 77.0316 308.529 76.7629 308.44 76.4046C308.305 75.1955 308.484 73.8967 308.977 72.5085C309.47 71.1202 310.231 69.8214 311.261 68.6123C312.335 67.3583 313.612 66.2835 315.089 65.3879C316.612 64.4474 318.291 63.8204 320.127 63.507ZM327.113 92.8626C327.471 92.8178 327.807 92.9074 328.12 93.1313C328.478 93.3552 328.68 93.6687 328.725 94.0717L329.464 98.6397C329.553 99.0427 329.486 99.401 329.262 99.7145C328.993 100.028 328.68 100.229 328.322 100.319L323.821 101.058C323.418 101.103 323.06 101.013 322.747 100.789C322.433 100.565 322.232 100.252 322.142 99.8488L321.403 95.2137C321.358 94.8555 321.448 94.5196 321.672 94.2061C321.896 93.8478 322.209 93.6463 322.612 93.6015L327.113 92.8626Z" fill="black"/>
</g>
<path d="M358.145 70.7609C358.503 71.0296 358.727 71.3879 358.817 71.8357C358.906 72.3283 358.817 72.7538 358.548 73.112L355.324 77.6128C355.055 77.9711 354.697 78.195 354.249 78.2845C353.756 78.3741 353.331 78.2845 352.973 78.0158L348.54 74.8586C348.181 74.5899 347.958 74.2316 347.868 73.7838C347.823 73.336 347.935 72.9105 348.204 72.5075L351.361 68.0067C351.629 67.6484 352.01 67.4245 352.503 67.335C352.95 67.2454 353.353 67.335 353.712 67.6037L358.145 70.7609ZM376.751 40.2633C378.363 41.3829 379.773 42.704 380.982 44.2266C382.191 45.7493 383.065 47.3615 383.602 49.0633C384.184 50.8098 384.385 52.5788 384.206 54.3701C383.982 56.1167 383.288 57.8408 382.124 59.5426C381.139 60.8861 380.087 61.9161 378.967 62.6327C377.803 63.3492 376.594 63.8642 375.34 64.1777C374.131 64.4912 372.9 64.7151 371.646 64.8495C370.392 64.939 369.205 65.0286 368.086 65.1182C366.966 65.2525 365.892 65.454 364.862 65.7227C363.877 65.9914 363.071 66.4617 362.444 67.1334C362.13 67.4469 361.75 67.6484 361.302 67.738C360.854 67.8724 360.451 67.8052 360.093 67.5365L356.197 64.7823C355.839 64.5136 355.615 64.1329 355.525 63.6403C355.391 63.1477 355.48 62.7446 355.794 62.4312C356.824 61.1324 357.943 60.1472 359.152 59.4754C360.361 58.8485 361.593 58.3782 362.847 58.0648C364.145 57.7513 365.421 57.5497 366.675 57.4602C367.929 57.4154 369.116 57.3258 370.235 57.1915C371.31 57.1019 372.295 56.9004 373.191 56.5869C374.041 56.3182 374.713 55.8256 375.206 55.109C376.146 53.8103 376.37 52.3549 375.877 50.7426C375.385 49.1304 374.221 47.675 372.385 46.3762C369.519 44.3162 366.362 44.249 362.914 46.1747C362.466 46.4434 362.085 46.6002 361.772 46.6449C361.459 46.7345 361.078 46.6226 360.63 46.3091L356.533 43.3534C356.219 43.1294 356.018 42.8383 355.928 42.4801C355.839 42.1218 355.928 41.7635 356.197 41.4053C357.048 40.2409 358.279 39.278 359.891 38.5167C361.458 37.7554 363.182 37.3076 365.063 37.1732C366.989 36.9941 368.959 37.1508 370.974 37.6435C373.034 38.0913 374.959 38.9646 376.751 40.2633Z" fill="#27DEBF"/>
<g opacity="0.6">
<path d="M358.144 70.7589C358.502 71.0276 358.726 71.3859 358.816 71.8338C358.905 72.3264 358.816 72.7518 358.547 73.1101L355.323 77.6108C355.054 77.9691 354.696 78.193 354.248 78.2826C353.755 78.3722 353.33 78.2826 352.972 78.0139L348.539 74.8566C348.18 74.5879 347.957 74.2297 347.867 73.7818C347.822 73.334 347.934 72.9086 348.203 72.5055L351.36 68.0048C351.628 67.6465 352.009 67.4226 352.502 67.333C352.949 67.2434 353.352 67.333 353.711 67.6017L358.144 70.7589ZM376.75 40.2613C378.362 41.3809 379.772 42.702 380.981 44.2247C382.19 45.7473 383.064 47.3595 383.601 49.0613C384.183 50.8079 384.385 52.5768 384.205 54.3682C383.981 56.1147 383.287 57.8389 382.123 59.5407C381.138 60.8842 380.086 61.9142 378.966 62.6307C377.802 63.3473 376.593 63.8623 375.339 64.1758C374.13 64.4893 372.899 64.7132 371.645 64.8475C370.391 64.9371 369.204 65.0266 368.085 65.1162C366.965 65.2506 365.891 65.4521 364.861 65.7208C363.876 65.9895 363.07 66.4597 362.443 67.1315C362.129 67.445 361.749 67.6465 361.301 67.7361C360.853 67.8704 360.45 67.8032 360.092 67.5345L356.196 64.7803C355.838 64.5116 355.614 64.131 355.524 63.6384C355.39 63.1457 355.479 62.7427 355.793 62.4292C356.823 61.1305 357.942 60.1452 359.151 59.4735C360.36 58.8465 361.592 58.3763 362.846 58.0628C364.144 57.7493 365.42 57.5478 366.674 57.4582C367.928 57.4134 369.115 57.3239 370.234 57.1895C371.309 57.1 372.294 56.8984 373.19 56.5849C374.041 56.3162 374.712 55.8236 375.205 55.1071C376.145 53.8084 376.369 52.3529 375.876 50.7407C375.384 49.1285 374.22 47.673 372.384 46.3743C369.518 44.3143 366.361 44.2471 362.913 46.1728C362.465 46.4415 362.084 46.5982 361.771 46.643C361.458 46.7326 361.077 46.6206 360.629 46.3071L356.532 43.3514C356.218 43.1275 356.017 42.8364 355.927 42.4781C355.838 42.1199 355.927 41.7616 356.196 41.4033C357.047 40.2389 358.278 39.2761 359.89 38.5148C361.458 37.7534 363.182 37.3056 365.062 37.1713C366.988 36.9921 368.958 37.1489 370.973 37.6415C373.033 38.0893 374.958 38.9626 376.75 40.2613Z" fill="white"/>
</g>
<path d="M258.131 189.66H210.374V74.051C210.374 53.0923 227.301 36.1641 248.257 36.1641H252.623C273.58 36.1641 290.507 53.0923 290.507 74.051V157.281C290.507 175.15 275.998 189.66 258.131 189.66Z" fill="#353F4E"/>
<path d="M205.739 468.104C205.336 470.992 204.53 474.418 204.329 482.613C204.194 491.413 202.582 494.571 202.381 501.758C202.112 510.021 203.523 513.111 206.881 517.746C210.239 522.448 219.039 526.613 222.733 518.754C226.494 510.827 226.024 505.789 224.815 497.661C223.606 489.331 223.405 484.696 222.733 478.314C222.061 472.671 221.322 468.372 221.322 468.372L205.739 468.104Z" fill="#0B6353"/>
<path d="M230.726 409.523L201.709 409.053C202.179 428.399 205.202 449.895 205.739 468.1C205.806 471.526 205.672 494.701 206.948 501.688C208.896 512.301 221.457 510.891 222.128 504.509C222.733 498.194 221.322 471.19 221.322 468.369C221.188 456.68 226.696 436.998 229.517 416.106C229.718 415.099 230.592 410.531 230.726 409.523Z" fill="#FFA8A7"/>
<path d="M268.004 452.989C268.004 452.989 266.862 452.384 266.661 453.594C266.392 455.071 265.922 458.094 265.318 460.445C264.512 463.804 263.773 469.245 264.31 471.932C264.78 474.687 271.094 478.113 275.191 479.389C281.237 481.27 285.401 484.293 288.692 487.383C292.723 491.212 301.522 494.839 307.433 494.772C314.485 494.705 319.456 492.421 321.739 488.659C324.158 484.696 319.657 484.427 311.597 479.187C309.761 478.023 307.679 476.68 305.35 475.157C292.521 466.76 287.886 462.326 284.259 453.997L268.004 452.989Z" fill="#0B6353"/>
<path d="M284.392 447.815C284.124 441.836 288.288 390.984 288.288 390.984L260.682 403.546C266.593 438.746 267.869 447.076 267.936 452.853C267.936 452.987 267.802 453.457 267.802 454.331C267.869 461.115 275.593 464.81 281.571 469.378C283.989 471.192 290.908 476.499 297.893 480.059C302.259 482.209 311.126 482.41 312.267 479.656C304.946 474.013 294.266 465.616 288.422 459.235C285.668 456.212 284.594 453.861 284.392 447.815Z" fill="#FFA8A7"/>
<path d="M213.597 220.492C203.051 243.735 203.051 261.738 204.798 291.362C206.41 318.568 208.962 342.483 208.962 342.483C208.559 347.319 201.842 356.724 200.969 378.086C200.163 398.037 202.312 423.362 202.312 423.362C202.312 423.362 217.358 431.692 228.508 423.295C228.508 423.295 239.255 371.973 242.412 347.051C245.166 325.219 249.935 297.408 249.935 297.408L260.078 346.916C260.078 346.916 256.182 359.142 255.309 368.412C253.898 383.124 262.093 411.942 262.093 411.942C262.093 411.942 277.676 416.577 287.147 408.113C287.147 408.113 290.707 361.292 292.05 343.557C293.796 319.912 290.035 255.759 287.147 221.836L213.597 220.492Z" fill="#353F4E"/>
<path d="M249.936 297.408L254.1 260.126C254.1 260.126 272.84 257.64 281.303 249.646C281.303 249.646 274.922 261.335 259.272 263.619L253.227 298.281L260.078 346.916L249.936 297.408Z" fill="#263238"/>
<path d="M325.769 211.356C326.911 199.937 326.911 192.346 326.776 190.868C326.373 184.956 325.299 183.949 317.037 173.537C305.887 159.363 296.349 146.666 286.274 133.97C279.086 124.969 271.564 123.558 264.175 123.961C259.003 124.297 269.078 149.085 274.116 163.796L303.066 194.898C304.006 196.175 304.409 197.653 304.275 199.198L302.461 225.665L311.126 237.286C311.126 237.286 324.291 225.933 325.769 211.356Z" fill="#FFA8A7"/>
<path d="M236.3 124.768C230.658 125.171 220.515 126.044 220.515 126.044C214.605 129.336 213.127 132.023 212.052 139.815C211.582 143.174 214.269 152.041 216.62 164.603L220.986 187.98L220.515 199.534C218.232 206.588 213.06 215.387 208.492 228.285C230.927 240.847 249.734 241.317 266.795 239.1C279.826 237.421 286.677 234.264 289.028 231.174C288.49 218.41 287.617 210.484 287.416 197.116C287.281 191.54 287.617 185.898 287.819 179.449C296.551 172.261 296.685 160.304 291.916 152.646C280.833 134.71 270.086 123.424 262.966 124.029L236.3 124.768Z" fill="#27DEBF"/>
<path opacity="0.6" d="M236.3 124.768C230.658 125.171 220.515 126.044 220.515 126.044C214.605 129.336 213.127 132.023 212.052 139.815C211.582 143.174 214.269 152.041 216.62 164.603L220.986 187.98L220.515 199.534C218.232 206.588 213.06 215.387 208.492 228.285C230.927 240.847 249.734 241.317 266.795 239.1C279.826 237.421 286.677 234.264 289.028 231.174C288.49 218.41 287.617 210.484 287.416 197.116C287.281 191.54 287.617 185.898 287.819 179.449C296.551 172.261 296.685 160.304 291.916 152.646C280.833 134.71 270.086 123.424 262.966 124.029L236.3 124.768Z" fill="#096A56"/>
<path opacity="0.1" d="M270.49 179.584C270.49 179.584 260.28 187.578 248.525 183.413C236.838 179.248 235.159 169.037 235.159 169.037C235.159 169.037 233.95 182.405 248.66 186.973C262.9 191.339 270.49 179.584 270.49 179.584Z" fill="black"/>
<path d="M284.394 88.0909C283.924 107.505 277.677 112.274 274.52 113.685C271.363 115.028 265.251 114.222 259.34 113.215V124.903C259.34 124.903 266.191 132.024 265.654 137.33C265.116 142.705 254.907 143.309 247.249 138.069C241.674 134.24 237.711 129.941 235.965 127.859C235.293 127.12 234.957 126.179 234.957 125.172V97.7642C234.957 97.7642 231.733 101.19 226.024 97.294C220.315 93.3978 219.777 86.0757 223.27 81.9108C225.755 79.0223 232.136 78.8207 235.159 83.3215C236.905 86.6803 237.107 90.039 239.055 88.6955C244.16 85.0009 241.406 76.6039 247.585 72.5063C249.466 71.4986 251.548 70.5582 253.899 69.7521C264.848 65.9231 274.386 62.7658 276.736 55.2422C281.035 57.7949 284.931 65.2513 284.394 88.0909Z" fill="#FFA8A7"/>
<path d="M262.698 105.425C261.287 105.425 260.146 104.282 260.146 102.872C260.146 101.461 261.287 100.318 262.698 100.318C264.108 100.318 265.25 101.461 265.25 102.872C265.25 104.282 264.108 105.425 262.698 105.425Z" fill="#B16668"/>
<path d="M258.332 88.0903C256.855 88.0903 255.646 86.8137 255.646 85.2684C255.646 83.7231 256.855 82.5137 258.332 82.5137C259.81 82.5137 261.019 83.7231 261.019 85.2684C261.019 86.8137 259.81 88.0903 258.332 88.0903Z" fill="#263238"/>
<path d="M278.886 88.0887C277.542 88.0887 276.468 86.9465 276.468 85.5356C276.468 84.1246 277.542 82.9824 278.886 82.9824C280.229 82.9824 281.371 84.1246 281.371 85.5356C281.371 86.9465 280.229 88.0887 278.886 88.0887Z" fill="#263238"/>
<path fill-rule="evenodd" clip-rule="evenodd" d="M257.526 92.0544C252.69 92.0544 248.794 88.1582 248.794 83.3216C248.794 77.4102 254.906 77.4102 257.526 77.4102C260.145 77.4102 266.258 77.4102 266.258 83.3216C266.258 88.1582 262.362 92.0544 257.526 92.0544ZM257.526 78.7537C252.22 78.7537 250.204 80.03 250.204 83.3216C250.204 87.4193 253.496 90.7109 257.526 90.7109C261.623 90.7109 264.914 87.4193 264.914 83.3216C264.914 80.03 262.832 78.7537 257.526 78.7537Z" fill="#455A64"/>
<path fill-rule="evenodd" clip-rule="evenodd" d="M279.692 92.0544C274.923 92.0544 270.96 88.1582 270.96 83.3216C270.96 77.4102 277.072 77.4102 279.692 77.4102C282.312 77.4102 288.424 77.4102 288.424 83.3216C288.424 88.1582 284.528 92.0544 279.692 92.0544ZM279.692 78.7537C274.453 78.7537 272.37 80.03 272.37 83.3216C272.37 87.4193 275.662 90.7109 279.692 90.7109C283.789 90.7109 287.081 87.4193 287.081 83.3216C287.081 80.03 284.998 78.7537 279.692 78.7537Z" fill="#455A64"/>
<path d="M267.601 80.502L268.071 96.8256L276.668 94.2057L267.601 80.502Z" fill="#F28F8F"/>
<path d="M259.339 113.215C253.092 112.409 240.263 108.714 238.248 103.676C238.248 103.676 238.92 106.833 242.748 110.125C246.577 113.416 259.339 117.111 259.339 117.111V113.215Z" fill="#F28F8F"/>
<path d="M259.608 72.5746L253.966 76.0684C253.026 74.4559 253.496 72.3058 255.108 71.3652C256.653 70.4246 258.668 70.9621 259.608 72.5746Z" fill="#263238"/>
<path d="M282.782 76.4681L276.468 74.2509C277.005 72.4368 278.886 71.4961 280.632 72.1008C282.379 72.7055 283.386 74.654 282.782 76.4681Z" fill="#263238"/>
<path d="M265.588 84.0604C265.185 84.0604 264.916 83.7245 264.916 83.3215C264.916 82.2467 267.133 81.5078 269.08 81.5078C271.096 81.5078 272.372 82.2467 272.372 83.3215C272.372 83.7245 272.036 83.9932 271.7 83.9932C271.297 83.9932 270.961 83.7245 270.961 83.3215C270.894 83.1871 270.29 82.8513 269.08 82.8513C267.871 82.8513 266.327 83.1871 266.259 83.3215C266.259 83.7245 265.991 84.0604 265.588 84.0604Z" fill="#455A64"/>
<path d="M249.533 83.459C249.488 83.459 249.443 83.459 249.398 83.459L234.084 82.0481C233.815 81.7793 233.076 81.0402 231.531 80.4355L249.6 82.0481C249.936 82.1153 250.204 82.4512 250.204 82.8543C250.137 83.1903 249.868 83.459 249.533 83.459Z" fill="#455A64"/>
<path d="M186.461 99.4447C191.499 92.7271 194.924 87.689 199.492 81.9119C202.111 78.6875 203.791 76.3363 206.276 72.9776C207.955 70.6936 209.03 68.7455 210.91 68.0066C213.06 67.2005 215.142 65.5883 216.485 64.1776C217.493 63.1028 218.299 61.9608 219.172 60.7517C222.06 56.9227 225.486 53.4295 229.315 50.541C233.345 47.5181 237.845 45.167 242.01 42.2784C244.495 40.5319 247.114 37.7105 244.092 35.0235C243.219 34.2174 242.077 33.7472 240.868 33.4785C233.546 31.8663 227.232 34.3517 220.045 36.2326C216.956 36.9716 213.866 37.9792 210.978 39.2555C209.5 39.9273 208.089 40.599 206.947 41.6067C205.067 43.1517 203.992 45.4357 202.783 47.5181C199.559 53.1608 192.909 58.199 188.207 62.6326C182.699 67.8051 177.796 72.5073 171.549 78.2173C165.907 83.3898 160.332 88.092 155.16 93.7348C150.929 98.3699 152.473 101.997 153.078 103.206C156.571 110.394 160.467 113.014 165.168 117.448C173.229 125.106 201.104 147.274 210.306 154.596C212.321 156.141 213.866 158.223 214.806 160.507L216.62 164.605C227.165 166.553 234.151 150.767 225.419 131.689C224.008 128.599 221.792 125.979 219.038 123.964C208.022 115.97 186.461 99.4447 186.461 99.4447Z" fill="#FFA8A7"/>
<path d="M186.462 99.4434C186.462 99.4434 181.693 105.825 173.565 108.311C173.565 108.311 180.282 110.057 189.484 101.794L186.462 99.4434Z" fill="#F28F8F"/>
<path d="M323.016 197.317H323.083L321.337 195.84C320.934 195.571 320.329 195.437 319.59 195.638L300.918 200.743C299.171 201.214 297.29 202.96 296.753 204.64L283.319 243.4C282.983 244.273 283.118 245.012 283.521 245.348L285.334 246.893C285.67 247.229 286.342 247.296 287.081 247.094L305.754 241.989C307.5 241.586 309.381 239.772 309.918 238.093C312.605 230.502 320.732 206.991 323.352 199.4C323.688 198.392 323.553 197.72 323.016 197.317Z" fill="#455A64"/>
<path d="M284.999 244.878L298.433 206.117C299.037 204.438 300.918 202.691 302.664 202.221L321.27 197.183C323.017 196.713 323.957 197.653 323.352 199.4C320.733 206.991 312.605 230.502 309.919 238.093C309.381 239.772 307.501 241.586 305.754 241.989L287.081 247.094C285.402 247.565 284.462 246.557 284.999 244.878Z" fill="#159880"/>
<path d="M300.649 203.297C299.641 204.103 298.835 205.11 298.432 206.185L284.999 244.878C284.73 245.751 284.797 246.423 285.2 246.826L283.521 245.416L283.588 245.348C283.118 244.945 282.984 244.274 283.319 243.4L296.753 204.64C297.022 203.7 297.828 202.759 298.701 201.953L300.649 203.297Z" fill="#37474F"/>
<path d="M317.911 214.983C316.567 218.947 311.933 221.566 304.208 223.38C296.484 225.194 292.252 233.389 293.461 235.875C294.737 238.36 307.164 240.711 312.134 239.972C317.105 239.233 322.142 232.046 323.62 229.829C325.165 227.612 326.911 212.027 325.299 209.878C323.687 207.795 320.329 208.131 320.329 208.131L317.911 214.983Z" fill="#F28F8F"/>
</svg>
